<svg width="23" height="23" viewBox="0 0 23 23" xmlns="http://www.w3.org/2000/svg">
<path d="M17.7025 9.67509C19.6697 9.44977 21.2031 7.77652 21.2031 5.75C21.2031 3.57039 19.4296 1.79688 17.25 1.79688C15.2235 1.79688 13.5502 3.33033 13.3249 5.29755C12.7452 5.12684 12.1339 5.03125 11.5 5.03125C7.9332 5.03125 5.03125 7.9332 5.03125 11.5C5.03125 15.0668 7.9332 17.9688 11.5 17.9688C15.0668 17.9688 17.9688 15.0668 17.9688 11.5C17.9688 10.8661 17.8732 10.2548 17.7025 9.67509ZM17.25 2.51562C19.0332 2.51562 20.4844 3.96678 20.4844 5.75C20.4844 7.46422 19.1425 8.86758 17.4545 8.97395C16.7993 7.43511 15.5645 6.20066 14.026 5.54552C14.1324 3.85753 15.5358 2.51562 17.25 2.51562ZM11.5 17.25C8.32959 17.25 5.75 14.6704 5.75 11.5C5.75 8.32959 8.32959 5.75 11.5 5.75C14.6704 5.75 17.25 8.32959 17.25 11.5C17.25 14.6704 14.6704 17.25 11.5 17.25Z" fill="inherit"/>
<path d="M11.5 6.46875V7.1875C13.878 7.1875 15.8125 9.12202 15.8125 11.5H16.5312C16.5312 8.72563 14.2744 6.46875 11.5 6.46875Z" fill="inherit"/>
<path d="M19.4062 16.1719C17.623 16.1719 16.1719 17.623 16.1719 19.4062C16.1719 21.1895 17.623 22.6406 19.4062 22.6406C21.1895 22.6406 22.6406 21.1895 22.6406 19.4062C22.6406 17.623 21.1895 16.1719 19.4062 16.1719ZM19.4062 21.9219C18.0191 21.9219 16.8906 20.7934 16.8906 19.4062C16.8906 18.0191 18.0191 16.8906 19.4062 16.8906C20.7934 16.8906 21.9219 18.0191 21.9219 19.4062C21.9219 20.7934 20.7934 21.9219 19.4062 21.9219Z" fill="inherit"/>
<path d="M19.4062 17.6094V18.3281C20.0007 18.3281 20.4844 18.8118 20.4844 19.4062H21.2031C21.2031 18.4155 20.397 17.6094 19.4062 17.6094Z" fill="inherit"/>
<path d="M6.10938 3.59375H6.82812C6.82812 2.60295 6.02205 1.79688 5.03125 1.79688V2.51562C5.62566 2.51562 6.10938 2.99934 6.10938 3.59375Z" fill="inherit"/>
<path d="M5.03125 6.82812C6.81447 6.82812 8.26562 5.37697 8.26562 3.59375C8.26562 1.81053 6.81447 0.359375 5.03125 0.359375C3.24803 0.359375 1.79688 1.81053 1.79688 3.59375C1.79688 5.37697 3.24803 6.82812 5.03125 6.82812ZM5.03125 1.07812C6.41844 1.07812 7.54688 2.20656 7.54688 3.59375C7.54688 4.98094 6.41844 6.10938 5.03125 6.10938C3.64406 6.10938 2.51562 4.98094 2.51562 3.59375C2.51562 2.20656 3.64406 1.07812 5.03125 1.07812Z" fill="inherit"/>
<path d="M19.0469 5.75H19.7656C19.7656 4.36281 18.6372 3.23438 17.25 3.23438V3.95312C18.2408 3.95312 19.0469 4.7592 19.0469 5.75Z" fill="inherit"/>
<path d="M5.39062 19.0469C4.39983 19.0469 3.59375 19.853 3.59375 20.8438C3.59375 21.8345 4.39983 22.6406 5.39062 22.6406C6.38142 22.6406 7.1875 21.8345 7.1875 20.8438C7.1875 19.853 6.38142 19.0469 5.39062 19.0469ZM5.39062 21.9219C4.79622 21.9219 4.3125 21.4382 4.3125 20.8438C4.3125 20.2493 4.79622 19.7656 5.39062 19.7656C5.98503 19.7656 6.46875 20.2493 6.46875 20.8438C6.46875 21.4382 5.98503 21.9219 5.39062 21.9219Z" fill="inherit"/>
<path d="M2.15625 12.5781C1.16545 12.5781 0.359375 13.3842 0.359375 14.375C0.359375 15.3658 1.16545 16.1719 2.15625 16.1719C3.14705 16.1719 3.95312 15.3658 3.95312 14.375C3.95312 13.3842 3.14705 12.5781 2.15625 12.5781ZM2.15625 15.4531C1.56184 15.4531 1.07812 14.9694 1.07812 14.375C1.07812 13.7806 1.56184 13.2969 2.15625 13.2969C2.75066 13.2969 3.23438 13.7806 3.23438 14.375C3.23438 14.9694 2.75066 15.4531 2.15625 15.4531Z" fill="inherit"/>
<path d="M3.23438 11.8594C4.22517 11.8594 5.03125 11.0533 5.03125 10.0625C5.03125 9.0717 4.22517 8.26562 3.23438 8.26562C2.24358 8.26562 1.4375 9.0717 1.4375 10.0625C1.4375 11.0533 2.24358 11.8594 3.23438 11.8594ZM3.23438 8.98438C3.82878 8.98438 4.3125 9.46809 4.3125 10.0625C4.3125 10.6569 3.82878 11.1406 3.23438 11.1406C2.63997 11.1406 2.15625 10.6569 2.15625 10.0625C2.15625 9.46809 2.63997 8.98438 3.23438 8.98438Z" fill="inherit"/>
<path d="M20.125 11.1406C19.3322 11.1406 18.6875 11.7853 18.6875 12.5781C18.6875 13.3709 19.3322 14.0156 20.125 14.0156C20.9178 14.0156 21.5625 13.3709 21.5625 12.5781C21.5625 11.7853 20.9178 11.1406 20.125 11.1406ZM20.125 13.2969C19.7286 13.2969 19.4062 12.9745 19.4062 12.5781C19.4062 12.1817 19.7286 11.8594 20.125 11.8594C20.5214 11.8594 20.8438 12.1817 20.8438 12.5781C20.8438 12.9745 20.5214 13.2969 20.125 13.2969Z" fill="inherit"/>
<path d="M12.5781 18.3281C11.7853 18.3281 11.1406 18.9728 11.1406 19.7656C11.1406 20.5584 11.7853 21.2031 12.5781 21.2031C13.3709 21.2031 14.0156 20.5584 14.0156 19.7656C14.0156 18.9728 13.3709 18.3281 12.5781 18.3281ZM12.5781 20.4844C12.1817 20.4844 11.8594 20.162 11.8594 19.7656C11.8594 19.3692 12.1817 19.0469 12.5781 19.0469C12.9745 19.0469 13.2969 19.3692 13.2969 19.7656C13.2969 20.162 12.9745 20.4844 12.5781 20.4844Z" fill="inherit"/>
<path d="M11.5 3.95312C12.0944 3.95312 12.5781 3.46941 12.5781 2.875C12.5781 2.28059 12.0944 1.79688 11.5 1.79688C10.9056 1.79688 10.4219 2.28059 10.4219 2.875C10.4219 3.46941 10.9056 3.95312 11.5 3.95312ZM11.5 2.51562C11.698 2.51562 11.8594 2.67698 11.8594 2.875C11.8594 3.07302 11.698 3.23438 11.5 3.23438C11.302 3.23438 11.1406 3.07302 11.1406 2.875C11.1406 2.67698 11.302 2.51562 11.5 2.51562Z" fill="inherit"/>
<path d="M3.95312 17.6094C3.95312 18.2038 4.43684 18.6875 5.03125 18.6875C5.62566 18.6875 6.10938 18.2038 6.10938 17.6094C6.10938 17.015 5.62566 16.5312 5.03125 16.5312C4.43684 16.5312 3.95312 17.015 3.95312 17.6094ZM5.03125 17.25C5.22927 17.25 5.39062 17.4114 5.39062 17.6094C5.39062 17.8074 5.22927 17.9688 5.03125 17.9688C4.83323 17.9688 4.67188 17.8074 4.67188 17.6094C4.67188 17.4114 4.83323 17.25 5.03125 17.25Z" fill="inherit"/>
</svg>
