<svg width="19" height="23" viewBox="0 0 19 23" xmlns="http://www.w3.org/2000/svg">
<path d="M18.0921 13.6917L18.0757 13.4667C17.8123 10.0368 16.2152 7.88672 14.8064 5.99024C13.5018 4.23413 12.3751 2.71762 12.3751 0.480011C12.3751 0.30033 12.2744 0.136102 12.1149 0.0537181C11.9548 -0.0291148 11.7625 -0.0155489 11.617 0.0902382C9.50111 1.60441 7.73566 4.15646 7.11895 6.5915C6.69081 8.28678 6.63417 10.1926 6.62622 11.4513C4.67219 11.0339 4.22955 8.11083 4.22487 8.07903C4.20286 7.92742 4.11024 7.79545 3.97548 7.72339C3.83932 7.65229 3.67927 7.64712 3.54123 7.71544C3.43877 7.76504 1.02615 8.991 0.885775 13.8864C0.875937 14.0492 0.875488 14.212 0.875488 14.3753C0.875488 19.1308 4.74469 23 9.50017 23C14.2556 23 18.1248 19.1308 18.1248 14.3753C18.1248 14.1367 18.1085 13.914 18.0921 13.6917ZM9.50017 22.0417C7.91484 22.0417 6.62528 20.6679 6.62528 18.9792C6.62528 18.9216 6.62483 18.8636 6.629 18.7925C6.64818 18.0803 6.78344 17.5942 6.93177 17.2708C7.20973 17.8679 7.70709 18.4167 8.51381 18.4167C8.77866 18.4167 8.99297 18.2024 8.99297 17.9376C8.99297 17.2553 9.00703 16.4683 9.17688 15.758C9.32803 15.1277 9.68924 14.4581 10.1469 13.9209C10.3504 14.6182 10.7472 15.1824 11.1347 15.7332C11.6892 16.5212 12.2624 17.3358 12.363 18.7251C12.369 18.8074 12.3752 18.8902 12.3752 18.9791C12.3751 20.6679 11.0855 22.0417 9.50017 22.0417ZM12.5283 21.4157C13.0257 20.7374 13.3334 19.899 13.3334 18.9792C13.3334 18.8664 13.3264 18.7616 13.3123 18.5656C13.1986 17.0013 12.5187 16.0346 11.9184 15.1816C11.407 14.4554 10.9657 13.8279 10.9657 12.9379C10.9657 12.7559 10.8628 12.5898 10.6999 12.5088C10.538 12.4274 10.3425 12.4457 10.1979 12.5556C9.27889 13.25 8.51242 14.4189 8.24478 15.5349C8.10814 16.1072 8.06043 16.7262 8.04359 17.2353C7.71136 16.8778 7.6084 16.2152 7.6075 16.2064C7.58598 16.0524 7.49147 15.9181 7.35343 15.8465C7.21633 15.7754 7.05211 15.7735 6.91407 15.8447C6.79332 15.9064 5.73258 16.5147 5.67175 18.7523C5.66753 18.8281 5.66708 18.9039 5.66708 18.9792C5.66708 19.8991 5.97479 20.7375 6.47214 21.4157C3.7471 20.239 1.83391 17.5273 1.83391 14.3754C1.83391 14.2317 1.83346 14.0886 1.84325 13.929C1.92559 11.0569 2.84461 9.63255 3.44447 9.00416C3.86277 10.5015 4.95865 12.4588 7.10453 12.4588C7.36938 12.4588 7.58369 12.2445 7.58369 11.9796C7.58369 10.3761 7.61972 8.52311 8.04835 6.82643C8.53497 4.9042 9.86806 2.82853 11.4772 1.42338C11.7444 3.47569 12.8623 4.98052 14.0372 6.56158C15.434 8.44167 16.878 10.3859 17.1199 13.534L17.1363 13.7633C17.1512 13.9627 17.1667 14.1615 17.1667 14.3754C17.1666 17.5272 15.2534 20.239 12.5283 21.4157Z" fill="inherit"/>
</svg>
