<svg width="23" height="23" viewBox="0 0 23 23" xmlns="http://www.w3.org/2000/svg">
<g clip-path="url(#clip0)">
<path d="M21.4303 5.7656C21.3145 5.56636 21.059 5.49876 20.8598 5.6146L18.8219 6.79261C18.6226 6.90845 18.555 7.16394 18.6709 7.36318C18.7867 7.56241 19.0422 7.63002 19.2414 7.51417L21.2793 6.33616C21.4786 6.22026 21.5462 5.96483 21.4303 5.7656Z" fill="inherit"/>
<path d="M21.2793 16.6661L19.2414 15.4881C19.0422 15.3723 18.7867 15.4399 18.6709 15.6391C18.555 15.8384 18.6226 16.0939 18.8219 16.2097L20.8598 17.3877C21.059 17.5036 21.3145 17.4359 21.4303 17.2367C21.5462 17.0374 21.4786 16.782 21.2793 16.6661Z" fill="inherit"/>
<path d="M11.5322 19.7462C11.3011 19.729 11.0999 19.9024 11.0827 20.1335C11.0812 20.1542 11.0812 20.175 11.0827 20.1956V22.5494C11.0655 22.7805 11.239 22.9817 11.4701 22.9988C11.7012 23.016 11.9024 22.8426 11.9195 22.6115C11.9211 22.5908 11.9211 22.5701 11.9195 22.5494V20.1956C11.9367 19.9646 11.7632 19.7633 11.5322 19.7462Z" fill="inherit"/>
<path d="M4.17825 6.79261L2.14036 5.6146C1.94113 5.49876 1.68564 5.56636 1.5698 5.7656C1.45396 5.96483 1.52156 6.22032 1.7208 6.33616L3.75869 7.51417C3.95792 7.63002 4.21341 7.56241 4.32925 7.36318C4.44509 7.16388 4.37749 6.90845 4.17825 6.79261Z" fill="inherit"/>
<path d="M11.5322 0.00117317C11.3011 -0.0160014 11.0999 0.157415 11.0827 0.388523C11.0812 0.409213 11.0812 0.429961 11.0827 0.450651V2.80437C11.084 3.03427 11.2701 3.22036 11.5 3.22163C11.7317 3.22163 11.9195 3.03381 11.9195 2.80206V0.450708C11.9367 0.219601 11.7632 0.0183477 11.5322 0.00117317Z" fill="inherit"/>
<path d="M7.51199 3.75881L6.33628 1.72092C6.22044 1.52168 5.96495 1.45408 5.76572 1.56992C5.56648 1.68576 5.49888 1.94125 5.61472 2.14048L6.79043 4.17838C6.90627 4.37761 7.16175 4.44522 7.36099 4.32937C7.56023 4.21347 7.62783 3.95805 7.51199 3.75881Z" fill="inherit"/>
<path d="M11.5621 7.77692C11.5414 7.77537 11.5206 7.77537 11.4999 7.77692C9.44371 7.77692 7.77686 9.44378 7.77686 11.5C7.77686 11.7317 7.96468 11.9196 8.19642 11.9196C8.42724 11.9183 8.61368 11.7308 8.61368 11.5C8.61241 9.90726 9.90258 8.61502 11.4953 8.61375C11.4969 8.61375 11.4984 8.61375 11.4999 8.61375C11.731 8.63093 11.9322 8.45751 11.9494 8.2264C11.9666 7.99529 11.7932 7.79404 11.5621 7.77692Z" fill="inherit"/>
<path d="M22.9368 11.4677C22.9214 11.2606 22.7567 11.0958 22.5495 11.0804H20.1958C19.9647 11.0632 19.7635 11.2366 19.7463 11.4677C19.7291 11.6989 19.9025 11.9001 20.1336 11.9172C20.1543 11.9188 20.1751 11.9188 20.1958 11.9172H22.5495C22.7806 11.9001 22.954 11.6989 22.9368 11.4677Z" fill="inherit"/>
<path d="M2.86638 11.0828C2.84569 11.0813 2.82495 11.0813 2.80426 11.0828H0.450534C0.219427 11.1 0.0460103 11.3013 0.0631849 11.5323C0.0785728 11.7395 0.243287 11.9043 0.450534 11.9197H2.80426C3.03536 11.9368 3.23656 11.7634 3.25373 11.5323C3.27091 11.3012 3.09749 11.0999 2.86638 11.0828Z" fill="inherit"/>
<path d="M11.5016 5.34253C8.10093 5.34207 5.34378 8.09847 5.34326 11.4991C5.34303 13.1329 5.99209 14.6997 7.14745 15.8547C8.30063 17.0108 9.86702 17.6596 11.4999 17.6575C14.9005 17.6579 17.6578 14.9015 17.6582 11.5009C17.6587 8.1002 14.9023 5.34299 11.5016 5.34253ZM15.2621 15.2692C13.1843 17.347 9.81544 17.347 7.73761 15.2692C6.73809 14.2697 6.17738 12.9135 6.17922 11.5C6.17721 10.0885 6.73809 8.73439 7.73761 7.73774V7.74466C9.81544 5.66683 13.1843 5.66683 15.2621 7.74466C17.34 9.82249 17.34 13.1914 15.2621 15.2692Z" fill="inherit"/>
<path d="M17.3865 20.8614C17.3861 20.8607 17.3858 20.8601 17.3854 20.8595L16.2074 18.8216C16.0915 18.6224 15.836 18.5548 15.6368 18.6706C15.4376 18.7865 15.37 19.042 15.4858 19.2412L16.6638 21.2791C16.7792 21.4781 17.0339 21.5462 17.2332 21.4312C17.4329 21.3161 17.5016 21.061 17.3865 20.8614Z" fill="inherit"/>
<path d="M17.2484 1.56992C17.0492 1.45408 16.7937 1.52168 16.6778 1.72092L15.4998 3.75881C15.3832 3.95759 15.4498 4.21324 15.6485 4.32984C15.6489 4.33007 15.6493 4.3303 15.6497 4.33053C15.8487 4.4466 16.1042 4.37934 16.2203 4.18022C16.2206 4.17959 16.2211 4.17895 16.2214 4.17838L17.3994 2.14048C17.5153 1.94119 17.4476 1.68576 17.2484 1.56992Z" fill="inherit"/>
<path d="M7.3633 18.6706C7.16406 18.5548 6.90857 18.6224 6.79273 18.8216L5.61472 20.8595C5.49888 21.0588 5.56648 21.3142 5.76572 21.4301C5.96495 21.5459 6.22044 21.4783 6.33628 21.2791L7.51429 19.2412C7.63014 19.0419 7.56253 18.7865 7.3633 18.6706Z" fill="inherit"/>
<path d="M4.32925 15.6369C4.21341 15.4377 3.95792 15.3701 3.75869 15.4859L1.7208 16.664C1.52156 16.7798 1.45396 17.0353 1.5698 17.2345C1.68564 17.4338 1.94113 17.5014 2.14036 17.3855L4.17825 16.2075C4.37749 16.0916 4.44509 15.8362 4.32925 15.6369Z" fill="inherit"/>
</g>
<defs>
<clipPath id="clip0">
<rect width="23" height="23" fill="white"/>
</clipPath>
</defs>
</svg>
