<svg width="23" height="23" viewBox="0 0 23 23" xmlns="http://www.w3.org/2000/svg">
<path d="M0.69605 23.0001H3.90007C4.05361 23.0001 4.18767 22.8964 4.22628 22.7479L5.07593 19.4781H14.2828C14.2828 19.4781 13.4783 22.574 13.477 22.5784C13.424 22.7823 13.582 23.0001 13.8032 23.0001H17.0073C17.1608 23.0001 17.2949 22.8964 17.3335 22.7479L22.6318 2.36094C22.8934 1.35353 22.287 0.321032 21.2797 0.0593976C20.2836 -0.199605 19.237 0.415439 18.9782 1.41144L18.3379 3.87495H16.6416C16.4554 3.87495 16.3045 4.02586 16.3045 4.21186C16.3045 4.39804 16.4554 4.54878 16.6416 4.54878H18.1628L17.7046 6.31143H7.74177C7.2557 6.31143 6.86035 5.91609 6.86035 5.43019C6.86035 5.00502 7.16304 4.64915 7.56436 4.56685C7.62156 4.55509 15.2937 4.54878 15.2937 4.54878C15.4797 4.54878 15.6306 4.39804 15.6306 4.21186C15.6306 4.02586 15.4797 3.87495 15.2937 3.87495H9.13101L9.5246 2.36094C9.78641 1.35353 9.17979 0.321032 8.17256 0.0593976C7.17656 -0.199605 6.12984 0.415439 5.87102 1.41144C5.87102 1.41144 0.378789 22.5442 0.370015 22.5782C0.315267 22.789 0.478986 23.0001 0.69605 23.0001ZM14.4579 18.8043H4.49423C4.00834 18.8043 3.61299 18.4089 3.61299 17.923C3.61299 17.437 4.00834 17.0416 4.49423 17.0416H7.14023C7.32624 17.0416 7.47715 16.8907 7.47715 16.7047C7.47715 16.5185 7.32624 16.3678 7.14023 16.3678H5.88435L6.69944 13.2317H15.9061L15.0912 16.3678H8.48789C8.30188 16.3678 8.15098 16.5185 8.15098 16.7047C8.15098 16.8907 8.30188 17.0416 8.48789 17.0416H14.9161L14.4579 18.8043ZM16.5394 10.7952L16.0813 12.5579H6.11879C5.63289 12.5579 5.23755 12.1625 5.23755 11.6766C5.23755 11.1905 5.63289 10.7952 6.11879 10.7952H16.5394ZM19.6304 1.58078C19.7961 0.943271 20.4738 0.545993 21.1102 0.711467C21.7577 0.879924 22.1478 1.54375 21.9795 2.19143L16.7467 22.3263H14.2389C14.2389 22.3263 19.6296 1.58393 19.6304 1.58078ZM16.7146 10.1214H7.50768L8.32277 6.98544H17.5295L16.7146 10.1214ZM6.52326 1.58078C6.68891 0.943271 7.36642 0.545993 8.00305 0.711467C8.65073 0.879924 9.04064 1.54375 8.87236 2.19143L8.4349 3.87495H7.74177C6.95493 3.87495 6.27426 4.48912 6.19459 5.27139C6.10896 6.11104 6.78489 6.92069 7.62753 6.98123L6.81139 10.1214H6.11879C5.26124 10.1214 4.56372 10.8189 4.56354 11.6764C4.56354 12.4733 5.21158 13.1678 6.0042 13.2275L5.18806 16.3676H4.49423C3.63668 16.3676 2.93916 17.0653 2.93899 17.9229C2.93899 18.7225 3.58421 19.4156 4.38087 19.4741L3.63966 22.3261H1.13176C1.13176 22.3263 6.51694 1.60482 6.52326 1.58078Z" fill="inherit"/>
</svg>
