<svg width="23" height="19" viewBox="0 0 23 19" xmlns="http://www.w3.org/2000/svg">
<path d="M22.2597 12.7421H21.2305V2.12141C21.2305 1.81222 20.9789 1.56059 20.6695 1.56059H18.0862V1.03153C18.0862 0.722336 17.8347 0.470703 17.5254 0.470703H14.581C14.2718 0.470703 14.0202 0.722336 14.0202 1.03153V1.89698C14.0202 2.08298 14.1708 2.23354 14.3568 2.23354C14.5426 2.23354 14.6932 2.08281 14.6932 1.89698V1.14383H17.4132V12.7423H14.7021V4.18975C14.7021 4.16343 14.699 4.13816 14.6932 4.11359V3.43099C14.6932 3.24499 14.5426 3.09443 14.3568 3.09443C14.1708 3.09443 14.0202 3.24516 14.0202 3.43099V3.85319H11.4458C11.1366 3.85319 10.885 4.10482 10.885 4.41401V12.7423H7.98295L8.38005 9.37385C8.40023 9.20276 8.34619 9.03097 8.23177 8.90235C8.11754 8.77355 7.95312 8.69967 7.78098 8.69967H7.65867C8.01155 8.04883 8.52517 6.8419 8.52517 5.32771C8.52517 5.32491 8.52517 5.32192 8.52517 5.31912C8.52482 5.3035 8.51499 4.93395 8.49271 4.7067C8.47885 4.56527 8.39795 4.43665 8.27652 4.36277C8.15492 4.28889 8.0033 4.27626 7.871 4.32925C7.59602 4.43945 7.07152 4.72057 6.57177 5.37439C6.42472 4.46227 6.11518 3.68333 5.65157 3.07881C5.56453 2.96528 5.43275 2.90035 5.29009 2.90035C5.14743 2.90035 5.01564 2.96528 4.92861 3.07881C4.4643 3.6842 4.15388 4.46384 4.007 5.37755C3.49637 4.70846 2.96099 4.43015 2.70901 4.32925C2.5767 4.27644 2.42526 4.28889 2.30365 4.36277C2.18205 4.43665 2.10133 4.56527 2.08747 4.70688C2.06518 4.93395 2.05536 5.3035 2.055 5.31894C2.055 5.32192 2.05483 5.32491 2.05483 5.32771C2.05483 5.57408 2.06887 5.82431 2.09642 6.07173C2.11695 6.25651 2.2833 6.3897 2.46808 6.36899C2.65285 6.34846 2.78586 6.18211 2.76533 5.99733C2.74077 5.77606 2.72813 5.55232 2.72796 5.33228C2.72848 5.31087 2.73147 5.21225 2.73673 5.09574C3.28299 5.4316 4.2246 6.34285 4.4736 8.69107H3.69641C3.56498 8.48278 3.3151 8.0476 3.10348 7.45291C3.04118 7.27796 2.84868 7.18636 2.67356 7.24883C2.49843 7.31113 2.40719 7.50345 2.46948 7.67857C2.61793 8.09603 2.78288 8.44172 2.92238 8.69967H2.79902C2.62688 8.69967 2.46246 8.77355 2.34823 8.90235C2.23381 9.03097 2.17977 9.20276 2.19995 9.37385L2.59705 12.7423H0.650491C0.267075 12.7421 -0.0449219 13.0543 -0.0449219 13.4377V15.2978C-0.0449219 15.6814 0.267075 15.9933 0.650491 15.9933H1.02513V17.6305C1.02513 18.1347 1.43522 18.5448 1.93937 18.5448H3.22613C3.73028 18.5448 4.14037 18.1347 4.14037 17.6305V15.9933H18.7697V17.6305C18.7697 18.1347 19.1799 18.5448 19.6839 18.5448H20.9708C21.475 18.5448 21.8851 18.1347 21.8851 17.6305V15.9933H22.2595C22.6431 15.9933 22.9551 15.6814 22.9551 15.2978V13.4377C22.9551 13.0543 22.6431 12.7421 22.2597 12.7421ZM18.0862 2.23371H20.5574V4.36014H18.0862V2.23371ZM18.0862 5.03327H20.5574V6.71837H18.0862V5.03327ZM18.0862 7.39149H20.5574V12.7421H18.0862V7.39149ZM11.5579 4.52614H14.0202V6.07875H11.5579V4.52614ZM11.5579 6.75188H14.0202V7.95354H11.5579V6.75188ZM11.5579 8.6265H14.0202V12.7421H11.5579V8.6265ZM7.84345 5.09574C7.84871 5.21243 7.85152 5.31087 7.85222 5.33228C7.85082 7.00036 7.14014 8.28256 6.88341 8.6909H6.10658C6.35558 6.34285 7.29719 5.43142 7.84345 5.09574ZM5.29009 3.73562C5.78721 4.51982 5.96251 5.48652 5.99182 6.37338C5.70632 7.02896 5.51873 7.80421 5.43047 8.6909H5.14971C5.0539 7.73016 4.84631 6.97474 4.58836 6.38145C4.61661 5.49249 4.79121 4.52245 5.29009 3.73562ZM7.70254 9.3728L7.30526 12.7421H3.27474L2.87746 9.3728H7.70254ZM2.86834 9.29489V9.29541V9.29489ZM3.46741 17.6305C3.46741 17.7636 3.35915 17.8716 3.22631 17.8716H1.93937C1.80635 17.8716 1.69809 17.7636 1.69809 17.6305V15.9933H3.46724V17.6305H3.46741ZM21.2121 17.6305C21.2121 17.7636 21.1038 17.8716 20.9708 17.8716H19.6841C19.5511 17.8716 19.4428 17.7636 19.4428 17.6305V15.9933H21.2121V17.6305ZM22.282 15.2978C22.282 15.3102 22.272 15.3202 22.2595 15.3202H0.650491C0.638208 15.3202 0.628206 15.3102 0.628206 15.2978V13.4377C0.628206 13.4254 0.638208 13.4152 0.650491 13.4152H22.2595C22.272 13.4152 22.282 13.4254 22.282 13.4377V15.2978Z" fill="inherit"/>
</svg>
