<svg width="21" height="23" viewBox="0 0 21 23" xmlns="http://www.w3.org/2000/svg">
<path d="M19.0436 11.9612C18.2239 10.5798 17.0845 9.15062 15.6572 7.71334C14.9062 6.95716 14.1591 6.28188 13.4829 5.7079C14.3506 5.62723 15.0323 4.89527 15.0323 4.00675C15.0323 3.06449 14.2657 2.29794 13.3235 2.29794C13.0383 2.29794 12.6196 2.43995 12.1817 2.63322L13.6545 0.763072C13.7661 0.621182 13.787 0.428028 13.7082 0.265573C13.6294 0.103177 13.4646 0 13.2841 0H7.71593C7.53538 0 7.37069 0.103118 7.29184 0.265573C7.213 0.428028 7.23392 0.621182 7.34558 0.763072L8.81834 2.63322C8.38042 2.43989 7.96176 2.29794 7.6765 2.29794C6.73424 2.29794 5.96769 3.06449 5.96769 4.00675C5.96769 4.85002 6.58181 5.5521 7.38624 5.6904C6.74603 6.214 6.04836 6.82517 5.34745 7.51193C3.91742 8.91304 2.77593 10.3364 1.9547 11.7426C0.911972 13.5281 0.383301 15.2934 0.383301 16.9897C0.383301 18.3661 1.03772 19.8822 2.13389 21.0455C3.32157 22.3059 4.83434 23 6.3936 23H14.6064C16.1899 23 17.7009 22.3431 18.861 21.1503C19.9769 20.003 20.6167 18.4866 20.6167 16.9897C20.6167 15.412 20.0875 13.7202 19.0436 11.9612ZM14.0895 4.00681C14.0895 4.42918 13.746 4.77283 13.3235 4.77283C13.0651 4.77283 12.3064 4.42193 11.553 4.00675C12.3062 3.59157 13.0646 3.24079 13.3235 3.24079C13.746 3.24079 14.0895 3.58444 14.0895 4.00681ZM12.3129 0.94291L10.5 3.24485L8.68724 0.94291H12.3129ZM6.91054 4.00681C6.91054 3.58444 7.25419 3.24079 7.67656 3.24079C7.93501 3.24079 8.6936 3.59168 9.44713 4.00687C8.69384 4.42205 7.93536 4.77283 7.67656 4.77283C7.25419 4.77283 6.91054 4.42918 6.91054 4.00681ZM14.6064 22.0572H6.39366C3.58655 22.0572 1.32615 19.285 1.32615 16.9897C1.32615 13.5089 3.86462 10.2876 5.99415 8.19828C7.382 6.83666 8.78199 5.76547 9.69956 5.11418L8.56827 9.14314C8.49791 9.3938 8.64399 9.65401 8.89471 9.72443C8.93731 9.73639 8.98021 9.74211 9.0224 9.74211C9.22834 9.74211 9.41761 9.60605 9.476 9.39805L10.5002 5.75062L11.5243 9.39805C11.5827 9.60611 11.772 9.74211 11.9779 9.74211C12.0201 9.74211 12.0629 9.73639 12.1056 9.72443C12.3563 9.65407 12.5023 9.3938 12.432 9.14314L11.3207 5.18536C13.7997 7.07224 19.6741 12.0637 19.6741 16.9896C19.6739 19.6893 17.3059 22.0572 14.6064 22.0572Z" fill="inherit"/>
</svg>
