<svg width="23" height="23" viewBox="0 0 23 23" xmlns="http://www.w3.org/2000/svg">
<path d="M22.017 7.15856L22.1848 6.53873C22.2335 6.35878 22.1271 6.17339 21.9472 6.12469L5.75617 1.74141L6.17408 0.892255C6.21864 0.80174 6.22035 0.696057 6.17881 0.604147C6.13726 0.512237 6.05679 0.443732 5.95943 0.417356L4.63137 0.0578633C4.53708 0.0323877 4.43648 0.0488613 4.35537 0.103188C4.27426 0.157515 4.22061 0.244249 4.20828 0.34111L4.08756 1.28974L1.78833 0.667251C1.70191 0.643846 1.60973 0.655773 1.53209 0.700333C1.45445 0.744893 1.39769 0.818484 1.37428 0.904902L1.09203 1.9476C1.04328 2.12755 1.14968 2.31294 1.32963 2.36164L19.038 7.15568H1.05773C0.474493 7.15568 0 7.63017 0 8.21341V21.8964C0 22.4796 0.474493 22.9541 1.05773 22.9541H21.9423C22.5255 22.9541 23 22.4796 23 21.8964V8.21341C23 7.65529 22.5654 7.19709 22.017 7.15856ZM4.8291 0.810742L5.38736 0.961885L5.09218 1.5616L4.74547 1.46775L4.8291 0.810742ZM1.93772 1.40712L21.4449 6.68816L21.339 7.07916L1.83185 1.79812L1.93772 1.40712ZM22.3249 21.8963C22.3249 22.1073 22.1532 22.2789 21.9423 22.2789H1.05773C0.846769 22.2789 0.675147 22.1073 0.675147 21.8963V8.21337C0.675147 8.00241 0.846769 7.83078 1.05773 7.83078H21.9423C22.1532 7.83078 22.3249 8.00241 22.3249 8.21337V21.8963Z" fill="inherit"/>
</svg>
