<svg width="23" height="23" viewBox="0 0 23 23" xmlns="http://www.w3.org/2000/svg">
<path d="M18.1074 9.14564C18.2704 8.56025 18.358 7.9438 18.358 7.30717C18.358 5.93285 17.9528 4.60695 17.1865 3.4725C17.0808 3.31632 16.8687 3.27509 16.7122 3.38072C16.5558 3.48636 16.5148 3.69868 16.6204 3.85503C17.3102 4.87595 17.6747 6.06972 17.6747 7.30717C17.6747 7.88765 17.5941 8.44952 17.4436 8.98262C17.0221 8.9012 16.5871 8.85821 16.142 8.85821C14.3531 8.85821 12.7222 9.54695 11.5 10.6728C10.2776 9.54695 8.64676 8.85821 6.85796 8.85821C6.41295 8.85821 5.97794 8.9012 5.55627 8.98262C5.40589 8.44952 5.32517 7.88765 5.32517 7.30717C5.32517 3.90241 8.09524 1.13235 11.5 1.13235C13.1493 1.13235 14.7 1.77459 15.8662 2.94098C15.9996 3.07434 16.2157 3.07434 16.3493 2.94098C16.4826 2.80744 16.4826 2.59126 16.3493 2.45789C15.0539 1.16253 13.3318 0.449219 11.5 0.449219C7.71849 0.449219 4.64204 3.52567 4.64204 7.30717C4.64204 7.9438 4.72961 8.56025 4.89262 9.14564C2.06606 9.99266 0 12.6174 0 15.716C0 19.4975 3.07645 22.5739 6.85796 22.5739C7.29717 22.5739 7.73656 22.5322 8.1642 22.4497C8.3495 22.4139 8.47076 22.2347 8.43496 22.0496C8.39916 21.8643 8.22 21.7432 8.03487 21.7789C7.6497 21.8531 7.25383 21.8908 6.85796 21.8908C3.45319 21.8908 0.683128 19.1209 0.683128 15.716C0.683128 12.9185 2.55335 10.5501 5.10899 9.79402C5.87231 11.749 7.50792 13.2702 9.53467 13.8777C9.37165 14.4629 9.28409 15.0795 9.28409 15.716C9.28409 17.4651 9.94265 19.063 11.0245 20.2757C10.5147 20.7413 9.92194 21.1263 9.26128 21.4056C9.08755 21.4791 9.00631 21.6797 9.07983 21.8534C9.15336 22.0272 9.35375 22.1084 9.52747 22.0349C10.2692 21.7211 10.9337 21.2875 11.5039 20.7629C12.7257 21.8866 14.355 22.5739 16.142 22.5739C19.9236 22.5739 23 19.4975 23 15.716C23 12.6174 20.9339 9.99266 18.1074 9.14564ZM17.2186 9.63539C16.5142 11.3593 15.0525 12.6957 13.249 13.2293C12.95 12.4634 12.5169 11.7641 11.9789 11.1601C13.0775 10.1552 14.5394 9.54134 16.142 9.54134C16.5091 9.54134 16.8689 9.57362 17.2186 9.63539ZM11.5 11.6492C11.9492 12.1612 12.3149 12.7478 12.5765 13.3878C12.2268 13.4495 11.8671 13.482 11.5 13.482C11.1329 13.482 10.7732 13.4495 10.4235 13.3878C10.6851 12.7478 11.0508 12.1612 11.5 11.6492ZM5.78141 9.63539C6.13113 9.5738 6.49086 9.54134 6.85796 9.54134C8.46058 9.54134 9.92247 10.1553 11.0211 11.1601C10.4831 11.7641 10.05 12.4634 9.75103 13.2293C7.94749 12.6957 6.48577 11.3591 5.78141 9.63539ZM10.1985 14.0407C10.62 14.122 11.055 14.1651 11.5 14.1651C11.945 14.1651 12.38 14.122 12.8015 14.0407C12.9521 14.5736 13.0326 15.1357 13.0326 15.7162C13.0326 17.2482 12.4702 18.6836 11.5033 19.7869C10.5477 18.6993 9.96722 17.2742 9.96722 15.7162C9.96739 15.1357 10.0479 14.5736 10.1985 14.0407ZM16.142 21.8908C14.5417 21.8908 13.0816 21.2788 11.9834 20.2764C13.0784 19.0462 13.7159 17.4358 13.7159 15.7162C13.7159 15.0795 13.6283 14.4631 13.4653 13.8777C15.4921 13.2704 17.1277 11.749 17.891 9.79402C20.4466 10.5501 22.3169 12.9185 22.3169 15.716C22.3169 19.1209 19.5468 21.8908 16.142 21.8908Z" fill="inherit"/>
</svg>
