<?xml version="1.0" encoding="utf-8"?><svg viewBox="0 0 23 23" xmlns="http://www.w3.org/2000/svg" xmlns:xlink="http://www.w3.org/1999/xlink"><style>:root>svg{display:none}:root>svg:target{display:block}</style><svg viewBox="0 0 23 23" id="airmassage" xmlns="http://www.w3.org/2000/svg"><path d="M17.703 9.675a3.957 3.957 0 003.5-3.925 3.958 3.958 0 00-3.953-3.953 3.957 3.957 0 00-3.925 3.5 6.447 6.447 0 00-1.825-.266A6.476 6.476 0 005.031 11.5a6.476 6.476 0 006.469 6.469 6.476 6.476 0 006.469-6.469c0-.634-.096-1.245-.267-1.825zm-.453-7.16a3.238 3.238 0 013.234 3.235 3.236 3.236 0 01-3.03 3.224 6.506 6.506 0 00-3.428-3.428 3.236 3.236 0 013.224-3.03zM11.5 17.25c-3.17 0-5.75-2.58-5.75-5.75s2.58-5.75 5.75-5.75 5.75 2.58 5.75 5.75-2.58 5.75-5.75 5.75z" fill="inherit"/><path d="M11.5 6.469v.718a4.317 4.317 0 014.313 4.313h.718A5.037 5.037 0 0011.5 6.469zM19.406 16.172a3.238 3.238 0 00-3.234 3.234 3.238 3.238 0 003.234 3.235 3.238 3.238 0 003.235-3.235 3.238 3.238 0 00-3.235-3.234zm0 5.75a2.518 2.518 0 01-2.515-2.516 2.518 2.518 0 012.515-2.515 2.518 2.518 0 012.516 2.515 2.518 2.518 0 01-2.516 2.516z" fill="inherit"/><path d="M19.406 17.61v.718a1.08 1.08 0 011.078 1.078h.72c0-.99-.807-1.797-1.798-1.797zM6.11 3.594h.718c0-.991-.806-1.797-1.797-1.797v.719A1.08 1.08 0 016.11 3.594z" fill="inherit"/><path d="M5.031 6.828a3.238 3.238 0 003.235-3.234A3.238 3.238 0 005.03.359a3.238 3.238 0 00-3.234 3.235A3.238 3.238 0 005.03 6.828zm0-5.75a2.518 2.518 0 012.516 2.516A2.518 2.518 0 015.03 6.109a2.518 2.518 0 01-2.515-2.515A2.518 2.518 0 015.03 1.078zM19.047 5.75h.719a2.518 2.518 0 00-2.516-2.516v.72c.99 0 1.797.805 1.797 1.796zM5.39 19.047c-.99 0-1.796.806-1.796 1.797 0 .99.806 1.797 1.797 1.797.99 0 1.796-.806 1.796-1.797 0-.991-.806-1.797-1.796-1.797zm0 2.875a1.08 1.08 0 01-1.077-1.078 1.08 1.08 0 011.078-1.078 1.08 1.08 0 011.078 1.078 1.08 1.08 0 01-1.078 1.078zM2.156 12.578c-.99 0-1.797.806-1.797 1.797 0 .99.806 1.797 1.797 1.797.991 0 1.797-.806 1.797-1.797 0-.99-.806-1.797-1.797-1.797zm0 2.875a1.08 1.08 0 01-1.078-1.078 1.08 1.08 0 011.078-1.078 1.08 1.08 0 011.078 1.078 1.08 1.08 0 01-1.078 1.078zM3.234 11.86c.991 0 1.797-.807 1.797-1.797 0-.991-.806-1.797-1.797-1.797-.99 0-1.796.806-1.796 1.796 0 .991.806 1.797 1.796 1.797zm0-2.876a1.08 1.08 0 011.079 1.079 1.08 1.08 0 01-1.079 1.078 1.08 1.08 0 01-1.078-1.079 1.08 1.08 0 011.078-1.078zM20.125 11.14a1.439 1.439 0 000 2.875c.793 0 1.438-.644 1.438-1.437s-.645-1.437-1.438-1.437zm0 2.157a.72.72 0 11.001-1.44.72.72 0 01-.001 1.44zM12.578 18.328a1.439 1.439 0 000 2.875c.793 0 1.438-.645 1.438-1.437 0-.793-.645-1.438-1.438-1.438zm0 2.156a.72.72 0 11.002-1.439.72.72 0 01-.002 1.44zM11.5 3.953a1.08 1.08 0 001.078-1.078A1.08 1.08 0 0011.5 1.797a1.08 1.08 0 00-1.078 1.078A1.08 1.08 0 0011.5 3.953zm0-1.437a.36.36 0 11-.001.72.36.36 0 01.001-.72zM3.953 17.61a1.08 1.08 0 001.078 1.078 1.08 1.08 0 001.078-1.079 1.08 1.08 0 00-1.078-1.078 1.08 1.08 0 00-1.078 1.078zm1.078-.36a.36.36 0 11-.001.72.36.36 0 01.001-.72z" fill="inherit"/></svg><svg viewBox="0 0 19 23" id="bake" xmlns="http://www.w3.org/2000/svg"><path d="M18.092 13.692l-.016-.225c-.264-3.43-1.86-5.58-3.27-7.477-1.304-1.756-2.43-3.272-2.43-5.51a.48.48 0 00-.759-.39C9.501 1.604 7.736 4.156 7.119 6.592c-.428 1.695-.485 3.6-.493 4.86-1.954-.418-2.396-3.341-2.401-3.373a.482.482 0 00-.684-.364c-.102.05-2.515 1.276-2.655 6.171-.01.163-.01.326-.01.49C.875 19.13 4.744 23 9.5 23c4.756 0 8.625-3.87 8.625-8.625 0-.238-.017-.461-.033-.683zM9.5 22.042c-1.585 0-2.875-1.374-2.875-3.063 0-.057 0-.115.004-.186.02-.713.154-1.199.303-1.522.278.597.775 1.146 1.582 1.146.265 0 .479-.215.479-.48 0-.682.014-1.469.184-2.179.151-.63.512-1.3.97-1.837.203.697.6 1.261.988 1.812.554.788 1.127 1.603 1.228 2.992.006.082.012.165.012.254 0 1.689-1.29 3.063-2.875 3.063zm3.028-.626a4.106 4.106 0 00.805-2.437c0-.113-.007-.217-.02-.413-.114-1.565-.794-2.531-1.395-3.384-.511-.727-.952-1.354-.952-2.244a.479.479 0 00-.768-.382c-.92.694-1.686 1.863-1.953 2.979-.137.572-.185 1.191-.201 1.7-.333-.357-.436-1.02-.437-1.029a.48.48 0 00-.693-.361c-.12.061-1.181.67-1.242 2.907a4.106 4.106 0 00.8 2.663c-2.725-1.176-4.638-3.888-4.638-7.04 0-.143 0-.286.01-.446.082-2.872 1-4.296 1.6-4.925.419 1.498 1.515 3.455 3.66 3.455.265 0 .48-.214.48-.48 0-1.603.036-3.456.464-5.153.487-1.922 1.82-3.997 3.43-5.403.266 2.053 1.384 3.558 2.56 5.139 1.396 1.88 2.84 3.824 3.082 6.972l.016.23c.015.199.03.398.03.611 0 3.152-1.913 5.864-4.638 7.04z" fill="inherit"/></svg><svg viewBox="0 0 23 23" id="insulation" xmlns="http://www.w3.org/2000/svg"><g clip-path="url(#cclip0)" fill="inherit"><path d="M21.43 5.766a.417.417 0 00-.57-.151l-2.038 1.178a.417.417 0 10.42.721l2.037-1.178a.417.417 0 00.151-.57zM21.28 16.666l-2.039-1.178a.417.417 0 00-.42.722l2.039 1.178a.417.417 0 10.42-.722zM11.532 19.746a.42.42 0 00-.45.45v2.353a.42.42 0 10.837 0v-2.353a.42.42 0 00-.387-.45zM4.178 6.793L2.14 5.615a.417.417 0 00-.42.721L3.76 7.514a.417.417 0 00.42-.721zM11.532.001a.42.42 0 00-.45.45v2.353a.42.42 0 00.418.418.42.42 0 00.42-.42V.451a.42.42 0 00-.388-.45zM7.512 3.759L6.336 1.72a.417.417 0 00-.721.42L6.79 4.177a.417.417 0 00.722-.42zM11.562 7.777A3.723 3.723 0 007.777 11.5a.42.42 0 10.837 0 2.884 2.884 0 012.881-2.886h.005a.42.42 0 00.062-.837zM22.937 11.468a.42.42 0 00-.388-.388h-2.353a.42.42 0 100 .837h2.353a.42.42 0 00.388-.45zM2.866 11.083a.43.43 0 00-.062 0H.451a.42.42 0 000 .837h2.353a.42.42 0 00.062-.837z"/><path d="M11.502 5.343a6.158 6.158 0 10-.002 12.315 6.158 6.158 0 00.002-12.315zm3.76 9.926A5.32 5.32 0 016.18 11.5a5.302 5.302 0 011.559-3.762v.007a5.32 5.32 0 117.524 7.524zM17.387 20.861l-.002-.002-1.178-2.037a.418.418 0 00-.721.42l1.178 2.037a.417.417 0 00.723-.418zM17.248 1.57a.417.417 0 00-.57.15L15.5 3.76a.417.417 0 00.149.57v.002a.417.417 0 00.571-.15l.001-.003L17.4 2.14a.417.417 0 00-.15-.57zM7.363 18.67a.417.417 0 00-.57.152L5.615 20.86a.417.417 0 00.721.42l1.178-2.039a.417.417 0 00-.15-.57zM4.33 15.637a.417.417 0 00-.571-.151L1.72 16.664a.417.417 0 10.42.721l2.037-1.178a.417.417 0 00.151-.57z"/></g><defs><clipPath id="cclip0"><path fill="#fff" d="M0 0h23v23H0z"/></clipPath></defs></svg><svg viewBox="0 0 23 23" id="ladder" xmlns="http://www.w3.org/2000/svg"><path d="M.696 23H3.9a.337.337 0 00.326-.252l.85-3.27h9.207l-.806 3.1a.341.341 0 00.326.422h3.204a.337.337 0 00.326-.252L22.633 2.36A1.89 1.89 0 0021.28.059a1.905 1.905 0 00-2.302 1.352l-.64 2.464h-1.696a.337.337 0 100 .674h1.52l-.457 1.762H7.742a.882.882 0 01-.178-1.744c.058-.012 7.73-.018 7.73-.018a.337.337 0 100-.674H9.13l.394-1.514A1.89 1.89 0 008.173.059 1.905 1.905 0 005.87 1.411L.37 22.578A.34.34 0 00.696 23zm13.762-4.196H4.494a.882.882 0 010-1.762H7.14a.337.337 0 000-.674H5.884l.815-3.136h9.207l-.815 3.136H8.488a.337.337 0 100 .674h6.428l-.458 1.762zm2.081-8.009l-.458 1.763H6.12a.882.882 0 010-1.763h10.42zm3.091-9.214a1.23 1.23 0 011.48-.87c.648.169 1.038.833.87 1.48l-5.233 20.135h-2.508L19.63 1.581zm-2.915 8.54H7.508l.815-3.136h9.206l-.814 3.136zM6.523 1.581a1.23 1.23 0 011.48-.87c.648.169 1.038.833.87 1.48l-.438 1.684h-.693a1.57 1.57 0 00-1.547 1.396c-.086.84.59 1.65 1.433 1.71l-.817 3.14H6.12c-.858 0-1.555.698-1.555 1.555 0 .797.648 1.492 1.44 1.551l-.816 3.14h-.694c-.857 0-1.555.698-1.555 1.556 0 .8.645 1.493 1.442 1.551l-.741 2.852H1.132L6.523 1.581z" fill="inherit"/></svg><svg viewBox="0 0 23 19" id="shelf" xmlns="http://www.w3.org/2000/svg"><path d="M22.26 12.742h-1.03V2.122c0-.31-.251-.561-.56-.561h-2.584v-.53c0-.309-.251-.56-.56-.56H14.58c-.31 0-.56.251-.56.56v.866a.336.336 0 10.672 0v-.753h2.72v11.598h-2.71V4.19a.33.33 0 00-.01-.076V3.43a.336.336 0 10-.673 0v.422h-2.574c-.31 0-.561.252-.561.561v8.328H7.983l.397-3.368a.603.603 0 00-.599-.674h-.122a7.18 7.18 0 00.866-3.372v-.009c0-.016-.01-.385-.032-.612a.457.457 0 00-.622-.378c-.275.11-.8.392-1.3 1.045-.146-.912-.456-1.69-.92-2.295a.452.452 0 00-.36-.179.452.452 0 00-.362.179c-.465.605-.775 1.385-.922 2.299-.51-.67-1.046-.948-1.298-1.049a.456.456 0 00-.622.378c-.022.227-.032.596-.032.612v.009c0 .246.014.496.041.744a.336.336 0 10.67-.075 6.095 6.095 0 01-.038-.665c0-.021.003-.12.009-.236.546.336 1.488 1.247 1.737 3.595h-.778a6.371 6.371 0 01-.593-1.238.336.336 0 00-.634.226 7.3 7.3 0 00.453 1.02H2.8a.603.603 0 00-.6.675l.398 3.368H.65a.696.696 0 00-.695.696v1.86c0 .383.312.695.695.695h.375v1.638c0 .504.41.914.914.914h1.287c.504 0 .914-.41.914-.915v-1.637h14.63v1.638c0 .504.41.914.914.914h1.287c.504 0 .914-.41.914-.915v-1.637h.374a.696.696 0 00.696-.695v-1.86a.696.696 0 00-.695-.696zM18.086 2.234h2.471V4.36h-2.47V2.234zm0 2.8h2.471v1.684h-2.47V5.033zm0 2.357h2.471v5.351h-2.47v-5.35zm-6.528-2.865h2.462V6.08h-2.462V4.526zm0 2.226h2.462v1.202h-2.462V6.752zm0 1.875h2.462v4.115h-2.462V8.626zM7.843 5.095c.006.116.009.215.01.236C7.85 7 7.14 8.282 6.882 8.691h-.776c.249-2.348 1.19-3.26 1.736-3.595zM5.29 3.736c.497.784.673 1.75.702 2.637-.286.656-.473 1.431-.562 2.318h-.28c-.096-.96-.304-1.716-.562-2.31.029-.889.203-1.859.702-2.645zm2.413 5.637l-.398 3.37h-4.03l-.398-3.37h4.826zm-4.835-.078zm.6 8.336a.241.241 0 01-.242.24H1.94a.241.241 0 01-.24-.24v-1.638h1.768v1.638zm17.744 0a.241.241 0 01-.241.24h-1.287a.241.241 0 01-.241-.24v-1.638h1.77v1.638zm1.07-2.333c0 .012-.01.022-.023.022H.65a.022.022 0 01-.022-.022v-1.86c0-.013.01-.023.022-.023h21.61c.012 0 .022.01.022.023v1.86z" fill="inherit"/></svg><svg viewBox="0 0 21 23" id="tent" xmlns="http://www.w3.org/2000/svg"><path d="M19.044 11.961c-.82-1.381-1.96-2.81-3.387-4.248a34.99 34.99 0 00-2.174-2.005 1.711 1.711 0 001.55-1.701 1.71 1.71 0 00-1.71-1.71c-.285 0-.703.143-1.141.336l1.473-1.87a.472.472 0 00-.37-.763h-5.57a.471.471 0 00-.37.763l1.473 1.87c-.438-.193-.856-.335-1.141-.335a1.71 1.71 0 00-1.71 1.709c0 .843.615 1.545 1.42 1.683a30.633 30.633 0 00-2.04 1.822c-1.43 1.401-2.571 2.824-3.392 4.23C.912 13.529.383 15.294.383 16.99c0 1.376.655 2.892 1.75 4.056C3.323 22.306 4.835 23 6.394 23h8.213c1.584 0 3.095-.657 4.255-1.85 1.116-1.147 1.756-2.663 1.756-4.16 0-1.578-.53-3.27-1.573-5.029zm-4.955-7.954a.767.767 0 01-.766.766c-.258 0-1.017-.351-1.77-.766.753-.415 1.512-.766 1.77-.766.423 0 .766.343.766.766zM12.313.943L10.5 3.245 8.687.943h3.626zM6.91 4.007c0-.423.343-.766.766-.766.258 0 1.017.35 1.77.766-.753.415-1.512.766-1.77.766a.767.767 0 01-.766-.766zm7.695 18.05H6.394c-2.807 0-5.068-2.772-5.068-5.067 0-3.481 2.539-6.702 4.668-8.792A31.145 31.145 0 019.7 5.114l-1.132 4.03a.471.471 0 00.908.254L10.5 5.751l1.024 3.647a.472.472 0 00.908-.255l-1.111-3.958c2.479 1.887 8.353 6.879 8.353 11.805 0 2.7-2.368 5.067-5.068 5.067z" fill="inherit"/></svg><svg viewBox="0 0 23 23" id="termalmugs" xmlns="http://www.w3.org/2000/svg"><path d="M22.017 7.159l.168-.62a.338.338 0 00-.238-.414L5.757 1.74l.417-.849A.338.338 0 005.96.417L4.631.057a.338.338 0 00-.423.284l-.12.949-2.3-.623a.338.338 0 00-.414.238l-.282 1.043a.338.338 0 00.238.414l17.708 4.794H1.058C.474 7.156 0 7.63 0 8.213v13.683c0 .584.474 1.058 1.058 1.058h20.884c.584 0 1.058-.474 1.058-1.058V8.213c0-.558-.435-1.016-.983-1.054zM4.829.81l.558.15-.295.6-.347-.093L4.83.81zm-2.891.596l19.507 5.281-.106.391L1.832 1.8l.106-.392zm20.387 20.49a.383.383 0 01-.383.382H1.058a.383.383 0 01-.383-.383V8.213c0-.21.172-.382.383-.382h20.884c.211 0 .383.171.383.382v13.683z" fill="inherit"/></svg><svg viewBox="0 0 23 23" id="Ñhromotherapy" xmlns="http://www.w3.org/2000/svg"><path d="M18.107 9.146c.163-.586.251-1.202.251-1.839 0-1.374-.405-2.7-1.172-3.835a.342.342 0 00-.566.383 6.143 6.143 0 011.055 3.452c0 .58-.08 1.143-.231 1.676a6.857 6.857 0 00-5.944 1.69 6.832 6.832 0 00-5.944-1.69 6.182 6.182 0 015.944-7.85c1.65 0 3.2.642 4.366 1.808a.342.342 0 00.483-.483A6.813 6.813 0 0011.5.449a6.866 6.866 0 00-6.607 8.697C2.066 9.993 0 12.617 0 15.716a6.866 6.866 0 008.164 6.734.342.342 0 00-.13-.671 6.182 6.182 0 01-7.352-6.063A6.186 6.186 0 015.11 9.794a6.89 6.89 0 004.426 4.084 6.842 6.842 0 00-.25 1.838c0 1.75.658 3.347 1.74 4.56a6.18 6.18 0 01-1.764 1.13.342.342 0 00.266.629 6.868 6.868 0 001.977-1.272 6.832 6.832 0 004.638 1.81A6.866 6.866 0 0023 15.717c0-3.099-2.066-5.723-4.893-6.57zm-.888.49a6.203 6.203 0 01-3.97 3.593 6.868 6.868 0 00-1.27-2.069 6.15 6.15 0 015.24-1.525zM11.5 11.648c.45.512.815 1.099 1.076 1.739a6.192 6.192 0 01-2.152 0 6.186 6.186 0 011.076-1.739zM5.781 9.635a6.15 6.15 0 015.24 1.525 6.867 6.867 0 00-1.27 2.07 6.204 6.204 0 01-3.97-3.595zm4.417 4.406a6.866 6.866 0 002.604 0c.15.533.23 1.095.23 1.675a6.167 6.167 0 01-1.529 4.07 6.15 6.15 0 01-1.536-4.07c0-.58.08-1.142.231-1.675zm5.944 7.85a6.15 6.15 0 01-4.159-1.615 6.848 6.848 0 001.733-4.56c0-.636-.088-1.253-.25-1.838a6.89 6.89 0 004.425-4.084 6.186 6.186 0 014.426 5.922 6.182 6.182 0 01-6.175 6.175z" fill="inherit"/></svg></svg>