<svg width="31" height="31" viewBox="0 0 31 31" xmlns="http://www.w3.org/2000/svg">
<path d="M30.54 15.27C30.54 6.83571 23.7043 0 15.27 0C6.83571 0 0 6.83571 0 15.27C0 23.7043 6.83571 30.54 15.27 30.54C15.3595 30.54 15.4489 30.54 15.5384 30.534V18.6521H12.2578V14.8286H15.5384V12.0132C15.5384 8.75043 17.5307 6.9729 20.4415 6.9729C21.8373 6.9729 23.0362 7.07431 23.3822 7.12202V10.5339H21.378C19.7973 10.5339 19.4871 11.2855 19.4871 12.389V14.8226H23.2748L22.7797 18.6461H19.4871V29.9495C25.8695 28.1183 30.54 22.2429 30.54 15.27Z" fill="inherit"/>
</svg>
