<svg width="31" height="31" viewBox="0 0 31 31" xmlns="http://www.w3.org/2000/svg">
<g clip-path="url(#clip0)">
<path d="M18.1926 15.2699C18.1926 16.8841 16.8841 18.1926 15.2699 18.1926C13.6557 18.1926 12.3472 16.8841 12.3472 15.2699C12.3472 13.6557 13.6557 12.3472 15.2699 12.3472C16.8841 12.3472 18.1926 13.6557 18.1926 15.2699Z" fill="inherit"/>
<path d="M22.1047 10.0986C21.9642 9.71788 21.7401 9.37328 21.4488 9.09042C21.1659 8.79917 20.8216 8.57503 20.4406 8.43453C20.1317 8.31454 19.6675 8.17171 18.8127 8.1328C17.8879 8.09063 17.6106 8.08154 15.2695 8.08154C12.9281 8.08154 12.6508 8.0904 11.7263 8.13257C10.8714 8.17171 10.4071 8.31454 10.0983 8.43453C9.71739 8.57503 9.37279 8.79917 9.09017 9.09042C8.79892 9.37328 8.57478 9.71765 8.43405 10.0986C8.31405 10.4076 8.17122 10.8719 8.13231 11.7268C8.09014 12.6513 8.08105 12.9286 8.08105 15.27C8.08105 17.6111 8.09014 17.8884 8.13231 18.8132C8.17122 19.668 8.31405 20.1322 8.43405 20.4411C8.57478 20.8221 8.79869 21.1664 9.08993 21.4493C9.37279 21.7405 9.71716 21.9647 10.0981 22.1052C10.4071 22.2254 10.8714 22.3682 11.7263 22.4071C12.6508 22.4493 12.9279 22.4582 15.2693 22.4582C17.6109 22.4582 17.8881 22.4493 18.8124 22.4071C19.6673 22.3682 20.1317 22.2254 20.4406 22.1052C21.2053 21.8102 21.8097 21.2058 22.1047 20.4411C22.2247 20.1322 22.3675 19.668 22.4067 18.8132C22.4488 17.8884 22.4577 17.6111 22.4577 15.27C22.4577 12.9286 22.4488 12.6513 22.4067 11.7268C22.3677 10.8719 22.2249 10.4076 22.1047 10.0986ZM15.2695 19.7722C12.7827 19.7722 10.7668 17.7565 10.7668 15.2697C10.7668 12.783 12.7827 10.7673 15.2695 10.7673C17.756 10.7673 19.7719 12.783 19.7719 15.2697C19.7719 17.7565 17.756 19.7722 15.2695 19.7722ZM19.9499 11.6415C19.3688 11.6415 18.8977 11.1704 18.8977 10.5893C18.8977 10.0082 19.3688 9.53708 19.9499 9.53708C20.531 9.53708 21.0022 10.0082 21.0022 10.5893C21.0019 11.1704 20.531 11.6415 19.9499 11.6415Z" fill="inherit"/>
<path d="M15.2697 0C6.83777 0 0 6.83777 0 15.2697C0 23.7016 6.83777 30.5394 15.2697 30.5394C23.7016 30.5394 30.5394 23.7016 30.5394 15.2697C30.5394 6.83777 23.7016 0 15.2697 0ZM23.985 18.8847C23.9426 19.8181 23.7941 20.4553 23.5775 21.0131C23.122 22.1909 22.1909 23.122 21.0131 23.5775C20.4555 23.7941 19.8181 23.9423 18.8849 23.985C17.9499 24.0276 17.6512 24.0379 15.2699 24.0379C12.8885 24.0379 12.59 24.0276 11.6548 23.985C10.7216 23.9423 10.0841 23.7941 9.52656 23.5775C8.94127 23.3573 8.41144 23.0122 7.9734 22.566C7.52744 22.1282 7.18237 21.5982 6.96219 21.0131C6.7455 20.4555 6.59709 19.8181 6.55468 18.8849C6.51158 17.9496 6.50156 17.6509 6.50156 15.2697C6.50156 12.8885 6.51158 12.5898 6.55445 11.6548C6.59685 10.7214 6.74504 10.0841 6.96173 9.52633C7.18191 8.94127 7.52721 8.4112 7.9734 7.9734C8.4112 7.52721 8.94127 7.18214 9.52633 6.96196C10.0841 6.74527 10.7214 6.59709 11.6548 6.55445C12.5898 6.51181 12.8885 6.50156 15.2697 6.50156C17.6509 6.50156 17.9496 6.51181 18.8847 6.55468C19.8181 6.59709 20.4553 6.74527 21.0131 6.96173C21.5982 7.18191 22.1282 7.52721 22.5663 7.9734C23.0122 8.41144 23.3575 8.94127 23.5775 9.52633C23.7944 10.0841 23.9426 10.7214 23.9852 11.6548C24.0278 12.5898 24.0379 12.8885 24.0379 15.2697C24.0379 17.6509 24.0278 17.9496 23.985 18.8847Z" fill="inherit"/>
</g>
<defs>
<clipPath id="clip0">
<rect width="30.5394" height="30.5394" fill="inherit"/>
</clipPath>
</defs>
</svg>
