<svg width="31" height="31" viewBox="0 0 31 31" xmlns="http://www.w3.org/2000/svg">
<path d="M15.2845 12.6557C16.7426 12.6504 17.9039 11.4791 17.8986 10.0179C17.8932 8.55603 16.7294 7.39285 15.2707 7.3916C13.7998 7.39004 12.6251 8.57477 12.6363 10.0498C12.6472 11.5057 13.8217 12.661 15.2845 12.6557Z" fill="inherit"/>
<path d="M15.27 0C6.83659 0 0 6.8369 0 15.27C0 23.7031 6.83659 30.54 15.27 30.54C23.7034 30.54 30.54 23.7031 30.54 15.27C30.54 6.8369 23.7034 0 15.27 0ZM15.2919 4.64364C18.2662 4.65177 20.6535 7.08465 20.6382 10.0918C20.6232 13.0296 18.1968 15.4106 15.2275 15.4006C12.2885 15.3906 9.87809 12.954 9.89559 10.0102C9.91214 7.03435 12.3238 4.63552 15.2919 4.64364ZM21.3161 17.5139C20.6585 18.189 19.8668 18.6777 18.9876 19.0185C18.1565 19.3406 17.2458 19.5028 16.3441 19.6109C16.4807 19.759 16.5447 19.8318 16.6297 19.9168C17.8532 21.1468 19.0826 22.3706 20.302 23.6041C20.7175 24.0246 20.8041 24.5457 20.5754 25.0341C20.3257 25.5683 19.7656 25.9195 19.216 25.8817C18.8679 25.8576 18.5964 25.6848 18.3556 25.4421C17.432 24.5129 16.491 23.6003 15.5868 22.6537C15.3228 22.3781 15.1966 22.4306 14.9638 22.6699C14.035 23.6266 13.0908 24.5679 12.1413 25.5043C11.7149 25.9248 11.2075 26.001 10.7126 25.7605C10.1868 25.5061 9.85247 24.9691 9.87809 24.4289C9.89621 24.0646 10.0755 23.7853 10.3261 23.536C11.5374 22.3272 12.7449 21.1146 13.9528 19.903C14.0331 19.8227 14.1074 19.7374 14.224 19.6125C12.5765 19.4403 11.0909 19.0348 9.81904 18.0403C9.66095 17.9166 9.49817 17.7972 9.35446 17.6585C8.79739 17.124 8.74147 16.5113 9.18168 15.8808C9.55879 15.3409 10.1911 15.1966 10.8488 15.5068C10.9763 15.5665 11.0975 15.6421 11.2137 15.7221C13.5838 17.3508 16.84 17.3955 19.2194 15.7949C19.455 15.6149 19.7071 15.4668 19.9992 15.3922C20.5666 15.2459 21.0965 15.455 21.4008 15.9517C21.7492 16.5194 21.7451 17.073 21.3161 17.5139Z" fill="inherit"/>
</svg>
