<svg width="31" height="31" viewBox="0 0 31 31" xmlns="http://www.w3.org/2000/svg">
<path d="M15.2697 0C6.83677 0 0 6.83646 0 15.2697C0 23.703 6.83677 30.5394 15.2697 30.5394C23.7027 30.5394 30.5394 23.703 30.5394 15.2697C30.5394 6.83646 23.7027 0 15.2697 0ZM17.0268 20.3416C15.6143 20.3416 14.2859 19.578 13.831 18.7111C13.831 18.7111 13.0712 21.7244 12.9115 22.3058C12.3451 24.3616 10.679 26.4179 10.5493 26.5863C10.459 26.7035 10.2594 26.6669 10.2388 26.5113C10.2034 26.2495 9.77793 23.6561 10.2784 21.541C10.5287 20.4788 11.9602 14.4134 11.9602 14.4134C11.9602 14.4134 11.5434 13.5782 11.5434 12.3435C11.5434 10.405 12.6669 8.95781 14.0659 8.95781C15.2553 8.95781 15.8296 9.85103 15.8296 10.9217C15.8296 12.1177 15.0685 13.906 14.6758 15.5631C14.3474 16.9506 15.3709 18.0825 16.7394 18.0825C19.2178 18.0825 20.8858 14.8995 20.8858 11.1276C20.8858 8.26142 18.9563 6.11507 15.444 6.11507C11.4772 6.11507 9.00343 9.07403 9.00343 12.3798C9.00343 13.5189 9.34022 14.3234 9.86697 14.9448C10.1085 15.2307 10.1428 15.3456 10.055 15.6737C9.99162 15.9146 9.84885 16.4938 9.78824 16.7228C9.70107 17.0546 9.43301 17.1727 9.13277 17.0505C7.30634 16.3048 6.45467 14.3034 6.45467 12.0536C6.45467 8.33797 9.58797 3.88249 15.803 3.88249C20.7971 3.88249 24.0841 7.49598 24.0841 11.3757C24.0844 16.5082 21.2311 20.3416 17.0268 20.3416Z" fill="inherit"/>
</svg>
