<svg width="31" height="31" viewBox="0 0 31 31" xmlns="http://www.w3.org/2000/svg">
<path d="M15.2697 0C6.83677 0 0 6.83646 0 15.2697C0 23.703 6.83677 30.5394 15.2697 30.5394C23.7027 30.5394 30.5394 23.703 30.5394 15.2697C30.5394 6.83646 23.7027 0 15.2697 0ZM23.0153 16.9212C23.727 17.6163 24.48 18.2705 25.1189 19.0375C25.4019 19.3768 25.6687 19.7277 25.8718 20.1223C26.1617 20.6849 25.8999 21.302 25.3963 21.3354L22.268 21.3348C21.4601 21.4017 20.8171 21.0758 20.2751 20.5234C19.8423 20.0832 19.4409 19.613 19.0241 19.1578C18.8538 18.971 18.6745 18.7951 18.4608 18.6567C18.0343 18.3793 17.6638 18.4642 17.4195 18.9098C17.1705 19.3631 17.1136 19.8655 17.0899 20.37C17.0558 21.1077 16.8334 21.3004 16.0933 21.3351C14.5118 21.4091 13.0112 21.1692 11.6165 20.3719C10.3862 19.6686 9.43395 18.6761 8.60415 17.5523C6.98829 15.3616 5.75078 12.9571 4.63887 10.4837C4.38862 9.92664 4.5717 9.62859 5.18623 9.61703C6.20723 9.59734 7.22824 9.59984 8.24924 9.61609C8.66476 9.62265 8.93969 9.86041 9.09934 10.2525C9.65108 11.61 10.3275 12.9015 11.1751 14.0994C11.401 14.4184 11.6315 14.7364 11.9599 14.9617C12.3223 15.2104 12.5985 15.1282 12.7694 14.7236C12.8787 14.4665 12.9259 14.1915 12.9497 13.916C13.0309 12.9721 13.0406 12.0286 12.9 11.0885C12.8125 10.5002 12.4816 10.1203 11.8952 10.0091C11.5965 9.95257 11.6403 9.84197 11.7856 9.67139C12.0377 9.37646 12.2739 9.19401 12.746 9.19401L16.2804 9.19338C16.8375 9.30273 16.9624 9.55267 17.038 10.1138L17.0412 14.0416C17.0346 14.2587 17.1502 14.9023 17.5401 15.0445C17.8525 15.1476 18.0587 14.897 18.2455 14.6992C19.0932 13.7998 19.6971 12.7381 20.2379 11.6393C20.4766 11.1548 20.6824 10.6533 20.8824 10.151C21.0311 9.77949 21.2623 9.59672 21.6816 9.60297L25.0851 9.60703C25.1854 9.60703 25.2873 9.60797 25.3866 9.62515C25.9602 9.72325 26.1174 9.97007 25.9399 10.5296C25.6606 11.4088 25.1179 12.1411 24.5874 12.8753C24.0188 13.6614 23.4124 14.4199 22.8494 15.2094C22.332 15.9311 22.373 16.2945 23.0153 16.9212Z" fill="inherit"/>
</svg>
