<svg width="31" height="31" viewBox="0 0 31 31" xmlns="http://www.w3.org/2000/svg">
<g clip-path="url(#clip0)">
<path d="M13.3677 18.1307L18.3347 15.2699L13.3677 12.4092V18.1307Z" fill="inherit"/>
<path d="M15.2697 0C6.83777 0 0 6.83777 0 15.2697C0 23.7016 6.83777 30.5394 15.2697 30.5394C23.7016 30.5394 30.5394 23.7016 30.5394 15.2697C30.5394 6.83777 23.7016 0 15.2697 0ZM24.8109 15.2853C24.8109 15.2853 24.8109 18.3821 24.4181 19.8754C24.1979 20.6927 23.5535 21.3372 22.7361 21.5571C21.2428 21.9502 15.2697 21.9502 15.2697 21.9502C15.2697 21.9502 9.3122 21.9502 7.80331 21.5415C6.98596 21.3216 6.34149 20.6769 6.1213 19.8595C5.72824 18.3821 5.72824 15.2697 5.72824 15.2697C5.72824 15.2697 5.72824 12.1732 6.1213 10.6799C6.34125 9.86254 7.00157 9.20223 7.80331 8.98228C9.29659 8.58921 15.2697 8.58921 15.2697 8.58921C15.2697 8.58921 21.2428 8.58921 22.7361 8.99789C23.5535 9.21784 24.1979 9.86254 24.4181 10.6799C24.8268 12.1732 24.8109 15.2853 24.8109 15.2853Z" fill="inherit"/>
</g>
<defs>
<clipPath id="clip0">
<rect width="30.5394" height="30.5394" fill="inherit"/>
</clipPath>
</defs>
</svg>
