<?xml version="1.0" encoding="utf-8"?><svg viewBox="0 0 31 31" xmlns="http://www.w3.org/2000/svg" xmlns:xlink="http://www.w3.org/1999/xlink"><style>:root>svg{display:none}:root>svg:target{display:block}</style><svg viewBox="0 0 31 31" id="fb" xmlns="http://www.w3.org/2000/svg"><path d="M30.54 15.27C30.54 6.836 23.704 0 15.27 0S0 6.836 0 15.27s6.836 15.27 15.27 15.27c.09 0 .179 0 .268-.006V18.652h-3.28V14.83h3.28v-2.816c0-3.263 1.993-5.04 4.904-5.04 1.395 0 2.594.101 2.94.149v3.412h-2.004c-1.58 0-1.89.752-1.89 1.855v2.434h3.787l-.495 3.823h-3.293V29.95C25.87 28.12 30.54 22.244 30.54 15.27z" fill="inherit"/></svg><svg viewBox="0 0 31 31" id="insta" xmlns="http://www.w3.org/2000/svg"><g clip-path="url(#bclip0)" fill="inherit"><path d="M18.193 15.27a2.923 2.923 0 11-5.846 0 2.923 2.923 0 015.846 0z"/><path d="M22.105 10.099a2.716 2.716 0 00-.656-1.009 2.715 2.715 0 00-1.008-.655c-.31-.12-.773-.263-1.628-.302-.925-.042-1.202-.051-3.543-.051-2.342 0-2.62.008-3.544.05-.855.04-1.319.183-1.628.303-.38.14-.725.364-1.008.655a2.718 2.718 0 00-.656 1.009c-.12.309-.263.773-.302 1.628-.042.924-.051 1.202-.051 3.543s.01 2.618.051 3.543c.04.855.182 1.32.302 1.628.14.381.365.725.656 1.008.283.291.627.516 1.008.656.31.12.773.263 1.628.302.925.042 1.202.051 3.543.051 2.342 0 2.62-.009 3.543-.05.855-.04 1.32-.183 1.629-.303.764-.295 1.369-.9 1.664-1.664.12-.309.262-.773.302-1.628.042-.925.05-1.202.05-3.543s-.008-2.619-.05-3.543c-.04-.855-.182-1.32-.302-1.628zm-6.835 9.673a4.502 4.502 0 110-9.005 4.502 4.502 0 010 9.005zm4.68-8.13a1.052 1.052 0 110-2.105 1.052 1.052 0 010 2.104z"/><path d="M15.27 0C6.838 0 0 6.838 0 15.27c0 8.432 6.838 15.27 15.27 15.27 8.432 0 15.27-6.838 15.27-15.27C30.54 6.838 23.701 0 15.27 0zm8.715 18.885c-.042.933-.19 1.57-.407 2.128a4.483 4.483 0 01-2.565 2.564c-.558.217-1.195.365-2.128.408-.935.043-1.234.053-3.615.053-2.381 0-2.68-.01-3.615-.053-.933-.043-1.57-.19-2.128-.407a4.296 4.296 0 01-1.554-1.012 4.297 4.297 0 01-1.01-1.553c-.218-.558-.366-1.195-.408-2.128-.043-.935-.053-1.234-.053-3.615 0-2.381.01-2.68.052-3.615.043-.934.191-1.57.408-2.129a4.295 4.295 0 011.011-1.553 4.295 4.295 0 011.553-1.011c.558-.217 1.195-.365 2.129-.408.935-.042 1.234-.052 3.615-.052 2.38 0 2.68.01 3.615.053.933.042 1.57.19 2.128.407.585.22 1.115.565 1.553 1.011.446.438.792.968 1.012 1.553.216.558.365 1.195.407 2.129.043.935.053 1.234.053 3.615 0 2.38-.01 2.68-.053 3.615z"/></g><defs><clipPath id="bclip0"><path fill="inherit" d="M0 0h30.539v30.539H0z"/></clipPath></defs></svg><svg viewBox="0 0 31 31" id="ok" xmlns="http://www.w3.org/2000/svg"><path d="M15.284 12.656a2.614 2.614 0 002.615-2.638 2.62 2.62 0 00-2.628-2.626 2.624 2.624 0 00-2.635 2.658 2.62 2.62 0 002.649 2.606z" fill="inherit"/><path d="M15.27 0C6.837 0 0 6.837 0 15.27s6.837 15.27 15.27 15.27 15.27-6.837 15.27-15.27S23.703 0 15.27 0zm.022 4.644c2.974.008 5.362 2.44 5.346 5.448-.015 2.938-2.441 5.319-5.41 5.309-2.94-.01-5.35-2.447-5.332-5.39a5.387 5.387 0 015.396-5.367zm6.024 12.87c-.657.675-1.45 1.164-2.328 1.505-.831.322-1.742.484-2.644.592.137.148.2.22.286.306 1.223 1.23 2.453 2.454 3.672 3.687.416.42.502.942.273 1.43-.25.534-.81.886-1.359.848-.348-.024-.62-.197-.86-.44-.924-.93-1.865-1.842-2.77-2.788-.263-.276-.39-.223-.622.016-.929.957-1.873 1.898-2.823 2.834-.426.42-.934.497-1.428.256-.526-.254-.86-.79-.835-1.331.018-.364.197-.644.448-.893 1.211-1.209 2.419-2.421 3.627-3.633.08-.08.154-.166.271-.29-1.648-.173-3.133-.578-4.405-1.573-.158-.123-.32-.243-.465-.381-.557-.535-.613-1.148-.172-1.778.377-.54 1.01-.684 1.667-.374.127.06.248.135.365.215 2.37 1.629 5.626 1.673 8.005.073a2.17 2.17 0 01.78-.403c.568-.146 1.098.063 1.402.56.348.567.344 1.121-.085 1.562z" fill="inherit"/></svg><svg viewBox="0 0 31 31" id="pinterest" xmlns="http://www.w3.org/2000/svg"><path d="M15.27 0C6.837 0 0 6.836 0 15.27c0 8.433 6.837 15.27 15.27 15.27s15.27-6.837 15.27-15.27C30.54 6.836 23.702 0 15.27 0zm1.757 20.342c-1.413 0-2.741-.764-3.196-1.63 0 0-.76 3.012-.92 3.594-.566 2.056-2.232 4.112-2.362 4.28-.09.117-.29.08-.31-.075-.036-.261-.461-2.855.04-4.97l1.681-7.128s-.417-.835-.417-2.07c0-1.938 1.124-3.385 2.523-3.385 1.19 0 1.764.893 1.764 1.964 0 1.196-.761 2.984-1.154 4.641-.329 1.388.695 2.52 2.063 2.52 2.479 0 4.147-3.183 4.147-6.955 0-2.867-1.93-5.013-5.442-5.013-3.967 0-6.44 2.959-6.44 6.265 0 1.139.336 1.943.863 2.565.241.286.276.4.188.729-.063.24-.206.82-.267 1.049-.087.332-.355.45-.655.328-1.827-.746-2.678-2.748-2.678-4.997 0-3.716 3.133-8.172 9.348-8.172 4.994 0 8.281 3.614 8.281 7.494 0 5.132-2.853 8.966-7.057 8.966z" fill="inherit"/></svg><svg viewBox="0 0 31 31" id="vk" xmlns="http://www.w3.org/2000/svg"><path d="M15.27 0C6.837 0 0 6.836 0 15.27c0 8.433 6.837 15.27 15.27 15.27s15.27-6.837 15.27-15.27C30.54 6.836 23.702 0 15.27 0zm7.745 16.921c.712.695 1.465 1.35 2.104 2.117.283.339.55.69.753 1.084.29.563.028 1.18-.476 1.213h-3.128c-.808.067-1.45-.26-1.993-.812-.433-.44-.834-.91-1.25-1.365a2.927 2.927 0 00-.564-.501c-.427-.278-.797-.193-1.041.253-.25.453-.306.956-.33 1.46-.034.738-.257.93-.997.965-1.581.074-3.082-.166-4.476-.963-1.23-.703-2.183-1.696-3.013-2.82-1.616-2.19-2.853-4.595-3.965-7.068-.25-.557-.067-.855.547-.867a87.022 87.022 0 013.063 0c.416.006.69.243.85.635.552 1.358 1.229 2.65 2.076 3.847.226.32.457.637.785.863.362.248.638.166.81-.238.109-.258.156-.533.18-.808.08-.944.09-1.887-.05-2.828-.088-.588-.418-.968-1.005-1.079-.298-.056-.255-.167-.11-.338.253-.295.489-.477.961-.477h3.534c.557.109.682.359.758.92l.003 3.928c-.006.217.11.86.5 1.002.311.104.518-.147.704-.345.848-.9 1.452-1.96 1.993-3.06.239-.484.444-.986.644-1.488.15-.372.38-.554.8-.548l3.403.004c.1 0 .202.001.302.018.573.098.73.345.553.905-.28.879-.822 1.611-1.353 2.345-.568.786-1.175 1.545-1.738 2.334-.517.722-.476 1.085.166 1.712z" fill="inherit"/></svg><svg viewBox="0 0 31 31" id="youtube" xmlns="http://www.w3.org/2000/svg"><g clip-path="url(#fclip0)" fill="inherit"><path d="M13.368 18.13l4.967-2.86-4.967-2.86v5.72z"/><path d="M15.27 0C6.838 0 0 6.838 0 15.27c0 8.432 6.838 15.27 15.27 15.27 8.432 0 15.27-6.838 15.27-15.27C30.54 6.838 23.701 0 15.27 0zm9.54 15.285s0 3.097-.392 4.59a2.39 2.39 0 01-1.682 1.682c-1.493.393-7.466.393-7.466.393s-5.958 0-7.467-.409a2.391 2.391 0 01-1.682-1.681c-.393-1.478-.393-4.59-.393-4.59s0-3.097.393-4.59a2.44 2.44 0 011.682-1.698c1.494-.393 7.467-.393 7.467-.393s5.973 0 7.466.409c.817.22 1.462.865 1.682 1.682.409 1.493.393 4.605.393 4.605z"/></g><defs><clipPath id="fclip0"><path fill="inherit" d="M0 0h30.539v30.539H0z"/></clipPath></defs></svg></svg>