<?xml version="1.0" encoding="utf-8"?><svg viewBox="0 0 36 36" xmlns="http://www.w3.org/2000/svg" xmlns:xlink="http://www.w3.org/1999/xlink"><style>:root>svg{display:none}:root>svg:target{display:block}</style><svg viewBox="0 0 36 36" id="arr-circ-right" xmlns="http://www.w3.org/2000/svg"><path d="M30.727 5.271c-7.03-7.03-18.427-7.03-25.456 0-7.03 7.03-7.03 18.427 0 25.456 7.03 7.03 18.427 7.03 25.456 0 7.03-7.03 7.03-18.427 0-25.456zm-4.212 13.322L18.77 26.34a.822.822 0 01-.595.243.834.834 0 01-.594-1.424l6.322-6.321H7.113a.837.837 0 110-1.675h16.79L17.58 10.84a.835.835 0 111.18-1.181l7.746 7.745a.86.86 0 01.008 1.19z" fill="inherit"/></svg><svg viewBox="0 0 16 10" id="arr-tr-down" xmlns="http://www.w3.org/2000/svg"><path d="M8.004 7.823L1.05.871a.616.616 0 00-.87.87L7.567 9.13c.24.24.63.24.871 0l7.388-7.388a.616.616 0 00-.87-.87L8.004 7.823z" fill="inherit"/></svg><svg viewBox="0 0 13 21" id="arr-tr-right" xmlns="http://www.w3.org/2000/svg"><path d="M.928.28a.955.955 0 000 1.35l8.866 8.87-8.866 8.87a.955.955 0 001.35 1.35l9.54-9.545a.955.955 0 000-1.35L2.278.28a.954.954 0 00-1.35 0z" fill="inherit"/></svg><svg viewBox="0 0 16 16" id="clock-ic_fill" xmlns="http://www.w3.org/2000/svg"><path d="M8 0C3.589 0 0 3.589 0 8s3.589 8 8 8 8-3.589 8-8-3.589-8-8-8zm3.805 12.138a.665.665 0 01-.943 0L7.53 8.805a.664.664 0 01-.196-.472V4a.666.666 0 111.334 0v4.057l3.138 3.138c.26.261.26.682 0 .943z" fill="inherit"/></svg><svg viewBox="0 0 17 17" id="loop-ic" xmlns="http://www.w3.org/2000/svg"><path d="M16.457 15.484l-4.046-4.208a6.84 6.84 0 001.61-4.412A6.872 6.872 0 007.157 0 6.872 6.872 0 00.293 6.864a6.872 6.872 0 006.864 6.863 6.79 6.79 0 003.932-1.242l4.077 4.24c.17.177.4.275.646.275a.896.896 0 00.645-1.516zm-9.3-13.693a5.079 5.079 0 015.073 5.073 5.079 5.079 0 01-5.073 5.073 5.079 5.079 0 01-5.073-5.073A5.079 5.079 0 017.157 1.79z" fill="inherit"/></svg><svg viewBox="0 0 16 12" id="mail-ic_fill" xmlns="http://www.w3.org/2000/svg"><path d="M15.86 1.179L11.006 6l4.852 4.821A1.39 1.39 0 0016 10.22V1.78c0-.216-.053-.419-.14-.602zM14.594.375H1.406c-.216 0-.419.053-.602.14l6.202 6.172c.548.548 1.44.548 1.988 0L15.196.516a1.39 1.39 0 00-.602-.141zM.14 1.179A1.39 1.39 0 000 1.78v8.438c0 .216.053.419.14.602L4.994 6 .141 1.179z" fill="inherit"/><path d="M10.344 6.663l-.687.686c-.914.914-2.4.914-3.314 0l-.687-.686-4.852 4.821c.183.088.386.141.602.141h13.188c.216 0 .419-.053.602-.14l-4.852-4.822z" fill="inherit"/></svg><svg viewBox="0 0 16 20" id="marker-map-ic" xmlns="http://www.w3.org/2000/svg"><path d="M8 0C4.006 0 .757 3.25.757 7.243c0 4.957 6.482 12.233 6.758 12.54.259.29.712.289.97 0 .276-.307 6.758-7.583 6.758-12.54C15.243 3.25 11.993 0 8 0zm0 10.887a3.648 3.648 0 01-3.644-3.644A3.648 3.648 0 018 3.6a3.648 3.648 0 013.644 3.644A3.648 3.648 0 018 10.887z" fill="inherit"/></svg><svg viewBox="0 0 20 20" id="tel-ic" xmlns="http://www.w3.org/2000/svg"><path d="M19.642 17.32c-.407 1.235-2.024 2.26-3.314 2.56-.882.2-2.035.362-5.915-1.366-4.962-2.208-8.158-7.625-8.408-7.977C1.767 10.186 0 7.67 0 5.066S1.23 1.195 1.727.65C2.134.204 2.807 0 3.454 0c.209 0 .396.011.565.02.496.023.745.055 1.073.896.407 1.054 1.4 3.658 1.517 3.925.12.268.241.63.072.982-.158.363-.297.524-.547.832-.249.308-.485.544-.734.875-.228.288-.486.597-.199 1.13.288.521 1.28 2.26 2.74 3.657 1.886 1.803 3.414 2.379 3.96 2.623.408.182.893.139 1.191-.201.378-.438.845-1.164 1.32-1.878.337-.512.764-.576 1.211-.394.456.17 2.869 1.45 3.365 1.716.496.268.823.395.944.62.118.224.118 1.278-.29 2.516z" fill="inherit"/></svg><svg fill="none" viewBox="0 0 16 16" id="tg-ic" xmlns="http://www.w3.org/2000/svg"><path d="M8 16A8 8 0 108 0a8 8 0 000 16z" fill="#039BE5"/><path d="M3.66 7.827l7.714-2.974c.358-.13.67.087.555.628l-1.313 6.187c-.097.439-.358.545-.723.339l-2-1.474-.964.929c-.107.107-.197.197-.404.197l.142-2.036 3.707-3.348c.161-.142-.036-.222-.249-.081l-4.58 2.884-1.975-.616c-.429-.136-.438-.429.09-.635z" fill="#fff"/></svg><svg fill="none" viewBox="0 0 28 28" id="viber-ic" xmlns="http://www.w3.org/2000/svg"><g clip-path="url(#jclip0)"><path d="M16.8 0h-5.6C5.795 0 1.398 4.397 1.398 9.801v4.2A9.805 9.805 0 007 22.86v4.678c0 .406.508.618.797.33l4.064-4.064h4.94c5.405 0 9.802-4.397 9.802-9.801v-4.2C26.602 4.396 22.205 0 16.8 0z" fill="#665CAC"/><path d="M8.4 22.859a9.805 9.805 0 01-5.601-8.857v-4.2C2.799 4.396 7.195 0 12.599 0h-1.4C5.796 0 1.4 4.397 1.4 9.801v4.2a9.805 9.805 0 005.6 8.858v4.678c0 .406.508.618.797.33l.603-.604V22.86z" fill="#523494"/><path d="M21.047 17.396l-.42-2.273a.467.467 0 00-.368-.373l-3.3-.66a.467.467 0 00-.421.128l-1.341 1.34c-2.26-1.012-3.513-2.268-4.616-4.624l1.336-1.337a.467.467 0 00.128-.421l-.66-3.3a.467.467 0 00-.373-.368l-2.273-.42a.468.468 0 00-.188.004c-.6.137-1.148.439-1.584.875-.755.755-1.043 1.856-.834 3.185.35 2.232 1.444 5.337 3.461 7.363l.028.027c2.024 2.016 5.13 3.11 7.36 3.46.282.045.553.066.812.066.968 0 1.779-.305 2.374-.9.436-.436.739-.984.875-1.584a.473.473 0 00.004-.188z" fill="#fff"/><path d="M11.46 10.054l.457-.457-.456.457zM16.538 14.217l-.461.461.46-.46z" fill="#E5E5E5"/><path d="M18.674 19.188c-.26 0-.53-.022-.811-.066-2.232-.351-5.338-1.445-7.361-3.46l-.028-.028c-2.017-2.025-3.11-5.13-3.461-7.362-.17-1.074-.013-1.999.451-2.713a3.268 3.268 0 00-.497.408c-.755.755-1.044 1.856-.834 3.185.35 2.232 1.444 5.337 3.461 7.363l.028.027c2.023 2.016 5.129 3.11 7.36 3.46.282.045.553.066.812.066.968 0 1.779-.305 2.374-.9.153-.153.289-.32.407-.497-.527.342-1.169.517-1.9.517z" fill="#E5E5E5"/><path d="M14.934 7.934a.467.467 0 100 .934c1.029 0 1.866.837 1.866 1.867 0 .254.213.466.467.466a.471.471 0 00.467-.466c0-1.544-1.256-2.8-2.8-2.8z" fill="#fff"/><path d="M14.934 6.067c-.173 0-.347.01-.518.029a.467.467 0 10.102.928 3.738 3.738 0 014.127 4.126.471.471 0 00.412.515.471.471 0 00.515-.412 4.673 4.673 0 00-4.639-5.185z" fill="#fff"/><path d="M14.934 4.2c-.167 0-.336.007-.502.02a.467.467 0 00.07.93 5.607 5.607 0 015.882 6.877.471.471 0 00.331.558.471.471 0 00.578-.343 6.542 6.542 0 00-6.36-8.042z" fill="#fff"/></g><defs><clipPath id="jclip0"><path fill="#fff" d="M0 0h28v28H0z"/></clipPath></defs></svg><svg viewBox="0 0 25 15" id="views-ic" xmlns="http://www.w3.org/2000/svg"><path d="M12.5.049C7.723.049 3.392 2.662.196 6.907a.99.99 0 000 1.181c3.196 4.25 7.527 6.863 12.304 6.863 4.776 0 9.108-2.613 12.304-6.858a.99.99 0 000-1.181C21.608 2.662 17.277.049 12.5.049zm.343 12.698a5.261 5.261 0 01-5.59-5.59c.164-2.618 2.286-4.74 4.904-4.904a5.261 5.261 0 015.59 5.59c-.169 2.613-2.291 4.735-4.904 4.904zm-.159-2.424a2.827 2.827 0 01-3.007-3.007 2.843 2.843 0 012.644-2.644 2.827 2.827 0 013.007 3.007 2.843 2.843 0 01-2.644 2.644z" fill="inherit"/></svg><svg viewBox="0 0 16 16" id="wp-ic" xmlns="http://www.w3.org/2000/svg"><path d="M8.002 0h-.004C3.587 0 0 3.588 0 8a7.94 7.94 0 001.523 4.689l-.997 2.972 3.075-.983A7.93 7.93 0 008.002 16C12.413 16 16 12.411 16 8s-3.587-8-7.998-8z" fill="inherit"/><path d="M12.657 11.297c-.193.545-.959.997-1.57 1.129-.418.089-.964.16-2.802-.602-2.351-.974-3.865-3.363-3.983-3.518-.113-.155-.95-1.265-.95-2.413s.583-1.707.818-1.947c.193-.197.512-.287.818-.287.099 0 .188.005.268.009.235.01.353.024.508.395.193.465.663 1.613.72 1.731.056.118.113.278.033.433-.075.16-.141.231-.259.367-.118.136-.23.24-.348.386-.108.127-.23.263-.094.498.136.23.606.997 1.298 1.613.893.795 1.617 1.049 1.876 1.157.193.08.423.061.564-.089.18-.193.4-.513.625-.828.16-.226.362-.254.574-.174.216.075 1.36.64 1.594.757.235.118.39.174.447.273.056.099.056.564-.137 1.11z" fill="#FAFAFA"/></svg></svg>