<svg width="39" height="40" viewBox="0 0 39 40" xmlns="http://www.w3.org/2000/svg">
<path fill-rule="evenodd" clip-rule="evenodd" d="M5.41634 0.208252C2.53986 0.208252 0.208008 2.54011 0.208008 5.41659C0.208008 8.29307 2.53986 10.6249 5.41634 10.6249C7.93609 10.6249 10.0379 8.83559 10.5205 6.45825H37.708C38.2832 6.45825 38.7497 5.99188 38.7497 5.41659C38.7497 4.84129 38.2832 4.37492 37.708 4.37492H10.5205C10.0379 1.99759 7.93609 0.208252 5.41634 0.208252ZM2.29134 5.41659C2.29134 3.69069 3.69045 2.29159 5.41634 2.29159C7.14224 2.29159 8.54134 3.69069 8.54134 5.41659C8.54134 7.14248 7.14224 8.54159 5.41634 8.54159C3.69045 8.54159 2.29134 7.14248 2.29134 5.41659Z" fill="inherit"/>
<path fill-rule="evenodd" clip-rule="evenodd" d="M37.708 33.5417H10.5205C10.0379 31.1644 7.93609 29.375 5.41634 29.375C2.53986 29.375 0.208008 31.7069 0.208008 34.5833C0.208008 37.4598 2.53986 39.7917 5.41634 39.7917C7.93609 39.7917 10.0379 38.0023 10.5205 35.625H37.708C38.2832 35.625 38.7497 35.1585 38.7497 34.5833C38.7497 34.0081 38.2832 33.5417 37.708 33.5417ZM8.54134 34.5833C8.54134 32.8575 7.14224 31.4583 5.41634 31.4583C3.69045 31.4583 2.29134 32.8575 2.29134 34.5833C2.29134 36.3092 3.69045 37.7083 5.41634 37.7083C7.14224 37.7083 8.54134 36.3092 8.54134 34.5833Z" fill="inherit"/>
<path fill-rule="evenodd" clip-rule="evenodd" d="M1.25 19.9998C1.25 19.4246 1.71637 18.9582 2.29167 18.9582H17.9167C17.9515 18.9582 17.9858 18.9598 18.0198 18.9632C18.5004 16.5834 20.6035 14.7915 23.125 14.7915C25.6448 14.7915 27.7467 16.5809 28.2292 18.9582H37.7083C38.2835 18.9582 38.75 19.4246 38.75 19.9998C38.75 20.575 38.2835 21.0415 37.7083 21.0415H28.2292C27.7467 23.4188 25.6448 25.2082 23.125 25.2082C20.6035 25.2082 18.5004 23.4163 18.0198 21.0365C17.9858 21.0398 17.9515 21.0415 17.9167 21.0415H2.29167C1.71637 21.0415 1.25 20.575 1.25 19.9998ZM23.125 16.8748C21.3992 16.8748 20 18.274 20 19.9998C20 21.7257 21.3992 23.1248 23.125 23.1248C24.8508 23.1248 26.25 21.7257 26.25 19.9998C26.25 18.274 24.8508 16.8748 23.125 16.8748Z" fill="inherit"/>
</svg>
