<svg width="50" height="50" viewBox="0 0 50 50" xmlns="http://www.w3.org/2000/svg">
<g clip-path="url(#clip0)">
<path d="M47.954 17.7105V14.69C47.954 14.6691 47.9528 14.6481 47.9509 14.6275C47.9505 14.6244 47.9509 14.621 47.9505 14.6176C47.9479 14.5893 47.9433 14.5619 47.9375 14.5352C47.9364 14.5306 47.9352 14.526 47.9341 14.5218C47.9287 14.4993 47.9223 14.4768 47.915 14.4551C47.9142 14.4524 47.9135 14.4497 47.9127 14.4471L45.4241 7.37535C45.3744 7.23421 45.3064 7.10413 45.2242 6.98472C45.2246 6.97519 45.2257 6.96603 45.2257 6.95611V2.49901C45.2257 1.06735 44.0584 -0.0976562 42.624 -0.0976562H7.43409C5.99925 -0.0976562 4.83234 1.06735 4.83234 2.49901V6.95611C4.83234 6.96565 4.83349 6.97519 4.83387 6.98472C4.75131 7.10374 4.68328 7.23421 4.63359 7.37535L2.14498 14.4471C2.14421 14.4497 2.14383 14.4524 2.14268 14.4551C2.13542 14.4768 2.12931 14.4989 2.12396 14.5211C2.12281 14.5256 2.12128 14.5306 2.12013 14.5352C2.1144 14.5619 2.1102 14.5893 2.10714 14.6172C2.10676 14.621 2.10714 14.6252 2.10676 14.629C2.10485 14.6492 2.1037 14.6694 2.1037 14.6897V17.7105C2.1037 19.6751 3.20945 21.3864 4.83234 22.2584V42.5794H4.02548C2.96598 42.5794 2.1037 43.4396 2.1037 44.4974V47.984C2.1037 49.0418 2.96598 49.9024 4.02548 49.9024H46.0322C47.0921 49.9024 47.954 49.0418 47.954 47.984V44.4974C47.954 43.4396 47.0921 42.5794 46.0322 42.5794H45.2257V22.2588C46.8482 21.3868 47.954 19.6751 47.954 17.7105ZM42.7822 21.4077C40.7393 21.4077 39.0778 19.7491 39.0778 17.7105V15.4225H46.4866V17.7105C46.4863 19.7491 44.8248 21.4077 42.7822 21.4077ZM12.448 15.4225H15.0532C15.4587 15.4225 15.787 15.0944 15.787 14.69C15.787 14.2853 15.4587 13.9576 15.0532 13.9576H12.6211L13.9551 7.72592H20.345L19.9066 13.9576H17.7929C17.3878 13.9576 17.0591 14.2853 17.0591 14.69C17.0591 15.0944 17.3878 15.4225 17.7929 15.4225H19.8569V17.7105V17.7109C19.8565 19.7495 18.1946 21.4077 16.1524 21.4077C14.1099 21.4077 12.448 19.7491 12.448 17.7105C12.448 17.7101 12.448 17.7098 12.448 17.7094V15.4225ZM36.1232 7.72592L37.4392 13.9576H30.1515L29.7127 7.72592H36.1232ZM28.2416 7.72592L28.68 13.9576H21.3777L21.8165 7.72592H28.2416ZM21.3246 15.4225H28.7335V17.7105C28.7335 19.7491 27.0716 21.4077 25.029 21.4077C22.9865 21.4077 21.3246 19.7491 21.3246 17.7105C21.3246 17.7101 21.3246 17.7098 21.3246 17.7094V15.4225ZM30.2012 15.4225H37.6097V17.7105C37.6097 19.7491 35.9482 21.4077 33.9056 21.4077C31.8627 21.4077 30.2012 19.7491 30.2012 17.7105V15.4225ZM46.1847 13.9576H38.939L37.6234 7.72592H43.8486C43.9342 7.72592 44.011 7.78009 44.0393 7.86058L46.1847 13.9576ZM7.43409 1.36719H42.624C43.2493 1.36719 43.758 1.87493 43.758 2.49901V6.26069H36.7176C36.7161 6.26069 36.7145 6.26069 36.713 6.26069H6.30005V2.49901C6.30005 1.87493 6.80878 1.36719 7.43409 1.36719ZM6.01836 7.86058C6.04664 7.77971 6.12347 7.72592 6.20908 7.72592H12.4541L11.1206 13.9576H3.87298L6.01836 7.86058ZM3.57141 17.7105V15.4225H10.9803V17.7105V17.7109C10.9799 19.7495 9.31841 21.4077 7.27585 21.4077C5.23329 21.4077 3.57141 19.7491 3.57141 17.7105ZM43.758 42.5794H38.0955C37.6899 42.5794 37.3616 42.9074 37.3616 43.3118C37.3616 43.7161 37.6899 44.0442 38.0955 44.0442H44.4907H44.4919H44.4926H46.0322C46.2825 44.0442 46.4863 44.2475 46.4863 44.4974V47.9844C46.4863 48.2343 46.2825 48.4376 46.0322 48.4376H4.02548C3.77513 48.4376 3.57141 48.2343 3.57141 47.9844V44.4974C3.57141 44.2475 3.77513 44.0442 4.02548 44.0442H5.56505H5.5662H5.56696H35.3733C35.7785 44.0442 36.1072 43.7161 36.1072 43.3118C36.1072 42.9074 35.7785 42.5794 35.3733 42.5794H20.0877V25.9236C20.0877 24.9566 19.2996 24.17 18.3307 24.17H9.52443C8.55589 24.17 7.76738 24.9566 7.76738 25.9236V42.5794H6.29967V22.7791C6.61614 22.8398 6.94217 22.8726 7.27585 22.8726C9.15826 22.8726 10.8094 21.8632 11.7141 20.3587C12.6188 21.8632 14.2696 22.8726 16.1524 22.8726C18.0349 22.8726 19.6856 21.8632 20.5904 20.3587C21.4954 21.8632 23.1462 22.8726 25.0286 22.8726C26.9114 22.8726 28.5622 21.8632 29.4669 20.3587C30.372 21.8632 32.0228 22.8726 33.9052 22.8726C35.7877 22.8726 37.4388 21.8632 38.3435 20.3587C39.2482 21.8632 40.8994 22.8726 42.7818 22.8726C43.1155 22.8726 43.4415 22.8398 43.7576 22.7791V42.5794H43.758ZM18.62 42.5794H9.23547V25.9236C9.23547 25.7645 9.36504 25.6348 9.52481 25.6348H18.3311C18.4905 25.6348 18.6204 25.7641 18.6204 25.9236V42.5794H18.62Z" fill="inherit"/>
<path d="M40.5332 24.17H23.0919C22.1234 24.17 21.3349 24.9566 21.3349 25.9236V36.9008C21.3349 37.8678 22.123 38.6544 23.0919 38.6544H40.5332C41.5022 38.6544 42.2903 37.8678 42.2903 36.9008V25.9236C42.2903 24.9566 41.5018 24.17 40.5332 24.17ZM40.8226 36.9008C40.8226 37.0603 40.6926 37.1896 40.5332 37.1896H23.0919C22.9326 37.1896 22.8026 37.0603 22.8026 36.9008V25.9236C22.8026 25.7645 22.9326 25.6348 23.0919 25.6348H40.5332C40.6926 25.6348 40.8226 25.7641 40.8226 25.9236V36.9008Z" fill="inherit"/>
</g>
<defs>
<clipPath id="clip0">
<rect width="50" height="50" fill="white"/>
</clipPath>
</defs>
</svg>
