<svg width="97" height="97" viewBox="0 0 97 97" xmlns="http://www.w3.org/2000/svg">
<circle cx="48.5" cy="48.5" r="48.5" fill="inherit"/>
<g clip-path="url(#clip0)">
<path d="M64.0708 30.0537C66.5709 30.0537 68.5977 28.027 68.5977 25.5269C68.5977 23.0267 66.5709 21 64.0708 21C61.5707 21 59.5439 23.0267 59.5439 25.5269C59.5439 28.027 61.5707 30.0537 64.0708 30.0537Z" fill="white"/>
<path d="M75.0811 36.6395C75.0668 33.8036 72.7482 31.4966 69.9123 31.4966C64.8522 31.4966 61.94 31.4937 60.2545 31.4959C59.5548 31.4969 58.8762 31.6623 58.2529 31.9804L53.958 34.1725L52.9119 27.7725C52.7173 26.582 51.5948 25.7749 50.404 25.9692C49.2135 26.1638 48.406 27.2867 48.6007 28.4772L50.1301 37.8345C50.2427 38.5233 50.6778 39.1169 51.3008 39.4316C51.9232 39.7461 52.6593 39.7447 53.281 39.4263L58.263 36.8764C58.263 36.8764 58.264 70.7549 58.264 73.3789C58.264 74.8265 59.4376 76 60.8851 76C62.3326 76 63.5062 74.8264 63.5062 73.3789V52.4286H64.6379V73.3789C64.6379 74.8265 65.8115 76 67.259 76C68.7065 76 69.8801 74.8264 69.8801 73.3789C69.8801 72.5546 69.8325 48.5563 69.8325 47.7331L64.53 47.1667C62.3349 46.9322 60.7454 44.9627 60.9799 42.7674C61.0972 41.6683 61.6496 40.7211 62.4473 40.0785L61.9527 35.8826C61.8951 35.3943 62.049 34.9044 62.3758 34.5368C62.7026 34.1692 63.1709 33.959 63.6628 33.959H68.5798C69.0554 33.959 69.5078 34.1571 69.8326 34.5022C69.8437 34.5141 69.856 34.5247 69.8669 34.5368C70.1971 34.9082 70.3498 35.3749 70.2814 35.956C70.5363 36.0892 70.7116 36.3553 70.7131 36.6615C70.7167 37.383 70.7159 36.6376 70.7159 41.5542L70.7375 41.5118L70.738 41.6131C69.2605 41.4553 69.7746 41.5102 67.9161 41.3117L68.58 35.6811H63.6629L64.3027 41.108C63.4549 41.374 62.8725 42.1206 62.7828 42.9602C62.6548 44.1597 63.5232 45.2358 64.7228 45.364L72.7024 46.2163C73.319 46.2822 73.9365 46.0827 74.3986 45.6652C74.8597 45.2485 75.1215 44.655 75.1184 44.0335C75.1145 43.2848 75.0849 37.3818 75.0811 36.6395Z" fill="white"/>
<path d="M43.8897 36.6874C43.8755 33.805 41.5184 31.4597 38.6359 31.4597C28.7221 31.4597 34.2519 31.4966 27.0879 31.4966C24.2521 31.4966 21.9334 33.8037 21.9191 36.6396C21.9155 37.3825 21.8857 43.2829 21.882 44.0334C21.8789 44.6549 22.1406 45.2484 22.6019 45.6652C23.0651 46.0836 23.6827 46.2821 24.2982 46.2163L32.2778 45.3639C33.4774 45.2357 34.3458 44.1596 34.2176 42.96C34.1274 42.1144 33.5412 41.3717 32.6977 41.1076L33.3375 35.6809H28.4205L29.0844 41.3116C27.3867 41.493 27.9378 41.4341 26.2625 41.613C26.2625 41.613 26.2834 37.4121 26.2873 36.6614C26.2888 36.3551 26.4643 36.0891 26.719 35.9559C26.5792 34.7691 27.4615 33.9589 28.4205 33.9589H33.3375C34.3675 33.9589 35.1683 34.8589 35.0477 35.8825L34.553 40.0784C35.3507 40.721 35.9032 41.6682 36.0205 42.7673C36.255 44.9624 34.6654 46.932 32.4703 47.1666L27.1678 47.7329C27.1678 48.5587 27.1203 72.5544 27.1203 73.3787C27.1203 74.8264 28.2938 75.9998 29.7414 75.9998C31.1889 75.9998 32.3624 74.8262 32.3624 73.3787V52.4287H33.494V73.379C33.494 74.8266 34.6676 76 36.1151 76C37.5626 76 38.7362 74.8265 38.7362 73.379C38.7362 71.0064 38.7371 42.1424 38.7372 36.7121C38.7372 36.4959 38.9122 36.3204 39.1284 36.3198C39.3447 36.3192 39.5205 36.4937 39.5218 36.7101C39.5725 46.2029 39.5458 42.4377 39.6393 53.2223C39.6498 54.4221 40.6257 55.3875 41.823 55.3875C41.8294 55.3875 41.836 55.3875 41.8424 55.3875C43.0487 55.377 44.018 54.3907 44.0076 53.1844C43.9135 42.4072 43.9402 46.168 43.8897 36.6874Z" fill="white"/>
<path d="M32.9288 30.0537C35.4289 30.0537 37.4556 28.027 37.4556 25.5269C37.4556 23.0267 35.4289 21 32.9288 21C30.4287 21 28.4019 23.0267 28.4019 25.5269C28.4019 28.027 30.4287 30.0537 32.9288 30.0537Z" fill="white"/>
</g>
<defs>
<clipPath id="clip0">
<rect width="55" height="55" fill="white" transform="translate(21 21)"/>
</clipPath>
</defs>
</svg>
