<svg width="50" height="50" viewBox="0 0 50 50" xmlns="http://www.w3.org/2000/svg">
<path d="M49.8104 10.3533C49.5391 10.0541 49.0766 10.0314 48.7773 10.3027L46.6154 12.2628C46.5248 12.3449 46.3841 12.3382 46.3019 12.2475L44.7213 10.5041C44.45 10.2049 43.9875 10.1822 43.6882 10.4535C43.3889 10.7248 43.3663 11.1873 43.6376 11.4866L44.9276 12.9094L42.7464 14.8871C42.6369 14.9864 42.56 15.1165 42.526 15.2603L41.9257 17.7936C41.6016 19.1613 40.88 20.3832 39.8387 21.3274L35.5509 25.2151C35.1177 25.6079 34.4457 25.5749 34.0528 25.1417C33.8626 24.9319 33.7653 24.6604 33.7792 24.3775C33.793 24.0946 33.9162 23.8339 34.1262 23.6437L35.9965 21.9479C36.2957 21.6766 36.3184 21.2141 36.0471 20.9148C35.7758 20.6156 35.3132 20.5929 35.014 20.8642L33.1437 22.5599C32.8481 22.8279 32.6254 23.1548 32.4856 23.5163C32.1736 23.3697 31.8308 23.292 31.4758 23.2916H31.4732C31.1053 23.2916 30.7567 23.3755 30.4452 23.5251C30.3685 23.2818 30.2534 23.0555 30.1075 22.8527L31.9333 21.1973C32.2325 20.926 32.2552 20.4635 31.9839 20.1642C31.7126 19.865 31.25 19.8423 30.9508 20.1136L29.9149 21.0527C29.7941 20.724 29.5991 20.4173 29.3311 20.1583L28.7535 19.6003L29.6903 18.751C29.9896 18.4797 30.0122 18.0171 29.7409 17.7179C29.4697 17.4186 29.0071 17.3959 28.7078 17.6672L27.6992 18.5818L25.6393 16.5917C25.9647 16.4637 26.2687 16.2664 26.5271 15.9989C27.4367 15.0574 27.4657 13.5849 26.6326 12.609L29.74 9.79156C31.2189 8.45068 33.034 7.52835 34.989 7.12424C35.1169 7.09781 35.2354 7.03754 35.3323 6.94978L37.6331 4.86357L41.5415 9.17437C41.6859 9.33361 41.8843 9.41446 42.0837 9.41446C42.2588 9.41446 42.4347 9.35185 42.5747 9.22488C42.8739 8.95358 42.8966 8.49105 42.6253 8.19177L38.4261 3.56043C38.3439 3.46974 38.3508 3.32912 38.4415 3.24691L40.6034 1.28669C40.9027 1.0154 40.9253 0.552866 40.654 0.253582C40.3827 -0.0457019 39.9203 -0.0683262 39.6209 0.20297L37.459 2.16319C37.0583 2.52644 36.8749 3.04007 36.9133 3.54171L34.4953 5.73411C32.36 6.21127 30.3799 7.23677 28.7576 8.70774L25.5873 11.5822L22.3029 8.40992C21.0785 7.22702 19.5439 6.45263 17.8651 6.17051L15.5213 5.77663L13.3119 3.64215C13.3663 3.14198 13.1991 2.62279 12.8101 2.24695L10.7114 0.219353C10.4209 -0.0613049 9.95789 -0.0534059 9.67723 0.237199C9.39657 0.527706 9.40457 0.990723 9.69508 1.27138L11.7938 3.29898C11.8818 3.38412 11.8843 3.52493 11.7992 3.61299L3.65226 12.0459C3.5994 12.1006 3.53845 12.1129 3.49642 12.1136C3.45508 12.1128 3.39296 12.104 3.33835 12.0513L1.23956 10.0237C0.949049 9.743 0.486031 9.75099 0.205374 10.0415C-0.0752843 10.332 -0.0672878 10.795 0.223219 11.0757L2.32191 13.1033C2.63846 13.4091 3.05281 13.5764 3.49174 13.5764C3.50169 13.5764 3.51164 13.5763 3.52158 13.5761C3.59355 13.5749 3.66435 13.5676 3.73446 13.5575L6.08095 15.8245C6.69824 17.9235 7.85237 19.8316 9.42729 21.3531L10.9537 22.8278C11.0956 22.9649 11.2788 23.0332 11.4617 23.0332C11.6531 23.0332 11.8443 22.9585 11.9878 22.81C12.2685 22.5195 12.2605 22.0564 11.97 21.7758L10.4436 20.3011C9.00787 18.914 7.96754 17.1639 7.43519 15.2399C7.40038 15.114 7.3324 14.9997 7.2384 14.9089L5.00474 12.751L12.5503 4.94061L14.6679 6.98644C14.7742 7.08913 14.9091 7.1572 15.0549 7.18168L17.6223 7.61319C19.0085 7.84617 20.2755 8.4854 21.2864 9.46204L25.449 13.4835C25.8696 13.8899 25.8812 14.5625 25.4749 14.983C25.1127 15.3579 24.5392 15.407 24.121 15.1255L22.1596 13.2547C21.8691 12.9741 21.4061 12.982 21.1254 13.2726C20.8447 13.5631 20.8527 14.0261 21.1432 14.3068L28.3145 21.2108C28.5069 21.3966 28.6016 21.6463 28.5943 21.8962C28.4582 21.8717 28.3183 21.8582 28.1751 21.8581H28.1725C27.8451 21.8581 27.5329 21.9245 27.2487 22.0445C27.2095 21.4717 26.9686 20.9384 26.5591 20.528C26.1097 20.0776 25.5117 19.8291 24.8754 19.8284H24.8725C24.6722 19.8284 24.4757 19.8531 24.2864 19.9008L21.6809 17.3837C21.3904 17.103 20.9272 17.1109 20.6467 17.4015C20.366 17.692 20.374 18.155 20.6645 18.4357L23.0208 20.7121C22.8245 20.9537 22.6793 21.2281 22.591 21.5221C22.2765 21.3726 21.9302 21.2936 21.5716 21.2932H21.5689C21.3877 21.2932 21.2098 21.3139 21.0372 21.3531L19.3865 19.7584C19.096 19.4778 18.633 19.4857 18.3524 19.7763C18.0717 20.0668 18.0797 20.5298 18.3702 20.8105L19.7473 22.1408C19.3853 22.5691 19.1872 23.1055 19.1866 23.6729L19.1861 24.156L17.0923 22.1332C16.8018 21.8525 16.3388 21.8604 16.0582 22.151C15.7775 22.4415 15.7855 22.9046 16.076 23.1852L19.1839 26.1877L19.1813 28.5201C19.0034 28.4898 18.8353 28.4084 18.6991 28.2768L14.2121 23.942C13.9216 23.6613 13.4585 23.6692 13.1779 23.9598C12.8973 24.2503 12.9053 24.7133 13.1958 24.994L17.1059 28.7716C16.8223 28.8957 16.5612 29.0723 16.3356 29.2975C15.8584 29.7735 15.5953 30.4068 15.5945 31.0809L15.5881 36.8687C15.5862 38.5712 16.0937 40.2135 17.0558 41.618L18.3987 43.5787L18.3953 46.6495C18.3393 46.6929 18.2848 46.7386 18.2339 46.7895C17.9153 47.1073 17.7396 47.5303 17.7391 47.9792L17.7358 49.2396C17.7347 49.6435 18.0613 49.9719 18.4652 49.9729H18.4671C18.8702 49.9729 19.1975 49.6467 19.1985 49.2435L19.2019 47.982C19.2019 47.906 19.2373 47.8547 19.267 47.8251C19.2966 47.7954 19.3439 47.7583 19.424 47.7602L31.1494 47.7732C31.2718 47.7733 31.3713 47.8731 31.3712 47.9945L31.3679 49.2548C31.3669 49.6587 31.6935 49.987 32.0975 49.988H32.0994C32.5025 49.988 32.8297 49.6618 32.8308 49.2585L32.834 47.9971C32.8347 47.4562 32.578 46.975 32.1808 46.6661L32.1844 43.402C33.2672 41.501 33.8399 39.3459 33.8423 37.156L33.8431 36.4894C33.8435 36.0853 33.5165 35.7576 33.1125 35.7571H33.1117C32.7081 35.7571 32.3808 36.0841 32.3803 36.4876L32.3795 37.1542C32.3773 39.1505 31.8393 41.1141 30.8235 42.8326C30.757 42.9451 30.7219 43.0733 30.7218 43.204L30.7183 46.3098L19.8583 46.2977L19.8617 43.3534C19.8618 43.2055 19.8172 43.0612 19.7337 42.9392L18.2626 40.7913C17.4683 39.6317 17.0493 38.2758 17.0509 36.8702L17.0573 31.0823C17.0576 30.7991 17.1683 30.5328 17.3688 30.3327C17.569 30.133 17.835 30.023 18.1178 30.023H18.1191C18.7039 30.0237 19.1791 30.5 19.1784 31.0847L19.1756 33.6093C19.1752 34.0133 19.5023 34.3411 19.9062 34.3415H19.907C20.3105 34.3415 20.638 34.0145 20.6384 33.6109L20.6412 31.0863L20.6494 23.6744C20.6497 23.4287 20.7456 23.1979 20.9195 23.0244C21.0931 22.8512 21.3238 22.7558 21.569 22.7558H21.5701C21.8157 22.7561 22.0466 22.852 22.22 23.026C22.3935 23.1999 22.4889 23.4309 22.4886 23.6765L22.4804 31.0884C22.48 31.4923 22.8071 31.8202 23.211 31.8206H23.2118C23.5902 31.8206 23.9016 31.5332 23.9394 31.1648C23.9419 31.1402 23.9432 31.1152 23.9432 31.0901L23.9531 22.2097C23.9534 21.9641 24.0493 21.7333 24.2233 21.5598C24.3968 21.3866 24.6275 21.2912 24.8727 21.2912H24.8738C25.1195 21.2915 25.3503 21.3874 25.5238 21.5613C25.6973 21.7352 25.7926 21.9662 25.7923 22.2119L25.7825 31.0922C25.7821 31.4961 26.1092 31.824 26.5131 31.8244H26.5139C26.8922 31.8244 27.2036 31.537 27.2415 31.1686C27.244 31.144 27.2453 31.119 27.2453 31.0939L27.2529 24.2396C27.2532 23.9939 27.349 23.7631 27.523 23.5896C27.6966 23.4163 27.9273 23.321 28.1726 23.321H28.1735C28.6806 23.3215 29.0927 23.7345 29.0922 24.2416L29.0846 31.0959C29.0842 31.4998 29.4112 31.8277 29.8152 31.8281H29.8159C30.1943 31.8281 30.5057 31.5407 30.5435 31.1723C30.5461 31.1477 30.5473 31.1227 30.5473 31.0976L30.5534 25.6727C30.5543 25.1663 30.9666 24.7547 31.473 24.7547H31.4739C31.7196 24.755 31.9504 24.8508 32.1239 25.0248C32.2974 25.1987 32.3928 25.4297 32.3925 25.6754L32.384 33.3635C32.3836 33.7674 32.7107 34.0953 33.1146 34.0957H33.1154C33.5189 34.0957 33.8464 33.7687 33.8468 33.3651L33.8541 26.754C34.1236 26.868 34.4139 26.9351 34.715 26.9498C34.7572 26.9519 34.7992 26.9529 34.8413 26.9529C35.4686 26.9529 36.0652 26.7233 36.5332 26.2989L40.821 22.4112C42.0823 21.2676 42.9563 19.7876 43.3489 18.131L43.8968 15.8185L46.1717 13.7559C46.2415 13.7682 46.312 13.7777 46.3839 13.7812C46.4121 13.7826 46.4402 13.7833 46.4682 13.7833C46.887 13.7833 47.2854 13.6299 47.5978 13.3465L49.7597 11.3864C50.0592 11.1151 50.0817 10.6525 49.8104 10.3533Z" fill="inherit"/>
</svg>
