<svg width="50" height="50" viewBox="0 0 50 50" xmlns="http://www.w3.org/2000/svg">
<path d="M48.7865 22.7382L44.7154 20.703L48.7865 18.6717C48.9165 18.607 49.0258 18.5072 49.1023 18.3837C49.1787 18.2602 49.2192 18.1178 49.2192 17.9725C49.2192 17.8273 49.1787 17.6849 49.1023 17.5614C49.0258 17.4379 48.9165 17.3381 48.7865 17.2733L25.349 5.55456C25.2405 5.50038 25.121 5.47217 24.9998 5.47217C24.8785 5.47217 24.759 5.50038 24.6505 5.55456L1.21303 17.2733C1.08303 17.3381 0.973662 17.4379 0.897216 17.5614C0.82077 17.6849 0.780273 17.8273 0.780273 17.9725C0.780273 18.1178 0.82077 18.2602 0.897216 18.3837C0.973662 18.5072 1.08303 18.607 1.21303 18.6717L5.28413 20.703L1.21303 22.7382C1.08316 22.8031 0.973947 22.9029 0.897635 23.0264C0.821323 23.1499 0.780935 23.2922 0.781003 23.4374V26.5624C0.780207 26.7082 0.820251 26.8514 0.896604 26.9756C0.972957 27.0999 1.08257 27.2003 1.21303 27.2655L5.28413 29.2967L1.21303 31.328C1.08303 31.3928 0.973662 31.4925 0.897216 31.6161C0.82077 31.7396 0.780273 31.882 0.780273 32.0272C0.780273 32.1725 0.82077 32.3149 0.897216 32.4384C0.973662 32.5619 1.08303 32.6616 1.21303 32.7264L24.6505 44.4452C24.759 44.4994 24.8785 44.5276 24.9998 44.5276C25.121 44.5276 25.2405 44.4994 25.349 44.4452L48.7865 32.7264C48.9165 32.6616 49.0258 32.5619 49.1023 32.4384C49.1787 32.3149 49.2192 32.1725 49.2192 32.0272C49.2192 31.882 49.1787 31.7396 49.1023 31.6161C49.0258 31.4925 48.9165 31.3928 48.7865 31.328L44.7154 29.2967L48.7865 27.2655C48.9169 27.2003 49.0265 27.0999 49.1029 26.9756C49.1793 26.8514 49.2193 26.7082 49.2185 26.5624V23.4374C49.2186 23.2922 49.1782 23.1499 49.1019 23.0264C49.0256 22.9029 48.9163 22.8031 48.7865 22.7382ZM24.9998 7.12331L46.6904 17.9686L24.9998 28.8139L3.30913 17.9686L24.9998 7.12331ZM24.6505 30.3905C24.759 30.4447 24.8785 30.4729 24.9998 30.4729C25.121 30.4729 25.2405 30.4447 25.349 30.3905L42.9685 21.5764L46.6904 23.4374L24.9998 34.2827L3.30913 23.4374L7.031 21.5764L24.6505 30.3905ZM2.3435 24.7014L24.2185 35.6389V37.0171L2.3435 26.0796V24.7014ZM46.6904 32.0311L24.9998 42.8764L3.30913 32.0311L7.031 30.1702L24.6505 38.9842C24.759 39.0384 24.8785 39.0666 24.9998 39.0666C25.121 39.0666 25.2405 39.0384 25.349 38.9842L42.9685 30.1702L46.6904 32.0311ZM25.781 37.0171V35.6389L47.656 24.7014V26.0796L25.781 37.0171Z" fill="inherit"/>
</svg>
