<?xml version="1.0" encoding="utf-8"?><svg viewBox="0 0 24 24" xmlns="http://www.w3.org/2000/svg" xmlns:xlink="http://www.w3.org/1999/xlink"><style>:root>svg{display:none}:root>svg:target{display:block}</style><svg viewBox="0 0 24 24" id="bake" xmlns="http://www.w3.org/2000/svg"><circle cx="12" cy="12" r="12" fill="inherit"/><path d="M12.265 18.622c-.5.002-.998-.085-1.469-.256-1.687-.618-2.812-1.592-3.344-2.895-.874-2.137.163-4.365.208-4.459a.19.19 0 01.353.03c.152.433.42.815.776 1.105.433-2.174 2.328-3.489 2.413-3.547 1.223-.979.224-2.925.214-2.944a.19.19 0 01.286-.235c3.37 2.734 3.175 5.487 2.903 6.619a1.835 1.835 0 00.687-1.698.189.189 0 01.244-.207c.04.013.076.04.1.075.365.57.662 1.18.884 1.82a5.17 5.17 0 01-.888 4.989l-.04.049a4.294 4.294 0 01-3.327 1.554zm-1.338-.611c.428.155.882.234 1.338.232a3.918 3.918 0 003.034-1.416l.038-.047a4.794 4.794 0 00.825-4.625c-.14-.4-.31-.788-.508-1.163-.209 1.138-1.298 1.668-1.31 1.674a.19.19 0 01-.253-.252c.06-.128 1.362-3.046-2.066-6.213.219.758.35 1.944-.6 2.703-.031.022-2.04 1.42-2.315 3.614a.19.19 0 01-.294.132 3.51 3.51 0 01-.978-1.055c-.249.727-.632 2.278-.035 3.735.49 1.198 1.541 2.1 3.123 2.68z" fill="#fff"/><path d="M11.459 18.544a.189.189 0 01-.122-.044c-2.411-2.032-.712-4.631-.695-4.657a.19.19 0 01.346.093c.005.29.109.57.295.793a3.845 3.845 0 011.668-3.717.19.19 0 01.263.25 1.312 1.312 0 00-.152.64c.01.26.092.512.237.727l.076.115c.25.372.522.73.813 1.071.227.274.409.583.538.915.948 1.954-.682 3.495-.697 3.511a.19.19 0 01-.258-.277c.06-.056 1.443-1.374.61-3.078a2.977 2.977 0 00-.484-.83c-.3-.351-.58-.72-.84-1.105l-.075-.115a1.767 1.767 0 01-.3-.925 1.697 1.697 0 01.01-.221c-.544.515-1.342 1.612-.966 3.405a.189.189 0 01-.24.22 1.292 1.292 0 01-.768-.81c-.336.763-.738 2.357.862 3.706a.19.19 0 01-.122.334z" fill="#fff"/></svg><svg viewBox="0 0 24 24" id="capacity" xmlns="http://www.w3.org/2000/svg"><circle cx="12" cy="12" r="12" fill="inherit"/><g clip-path="url(#bclip0)" fill="#fff"><path d="M13.113 7.155c-.34-.398-.647-.75-.886-1.045-.011-.023-.034-.034-.045-.046a.29.29 0 00-.41.046c-.238.295-.544.647-.885 1.045C9.388 8.892 7.31 11.3 7.31 13.31c0 1.294.522 2.464 1.374 3.316A4.716 4.716 0 0012 18a4.669 4.669 0 003.316-1.374 4.669 4.669 0 001.374-3.316c0-2.01-2.078-4.418-3.577-6.155zm1.794 9.05A4.095 4.095 0 0112 17.422a4.132 4.132 0 01-2.907-1.204 4.112 4.112 0 01-1.204-2.907c0-1.795 1.999-4.111 3.441-5.78.239-.285.466-.546.67-.796.204.25.432.511.67.784 1.442 1.67 3.441 3.975 3.441 5.78a4.132 4.132 0 01-1.204 2.908z"/><path d="M12.023 15.933c-.704 0-1.34-.284-1.795-.738A2.531 2.531 0 019.49 13.4a.281.281 0 00-.284-.284.281.281 0 00-.284.284c0 .863.352 1.635.909 2.203a3.107 3.107 0 002.192.897.281.281 0 00.284-.284.281.281 0 00-.284-.284z"/></g><defs><clipPath id="bclip0"><path fill="#fff" transform="translate(6 6)" d="M0 0h12v12H0z"/></clipPath></defs></svg><svg viewBox="0 0 24 24" id="height" xmlns="http://www.w3.org/2000/svg"><circle cx="12" cy="12" r="12" fill="inherit"/><g clip-path="url(#cclip0)"><path d="M13.82 15.92a.353.353 0 00-.506 0l-1.306 1.318v-9.48L13.32 9.08a.358.358 0 00.51 0l.194-.197a.363.363 0 00.107-.259.364.364 0 00-.108-.26l-2.259-2.258A.361.361 0 0011.502 6a.363.363 0 00-.267.107L8.977 8.365a.376.376 0 000 .518l.197.197a.378.378 0 00.528 0l1.29-1.28v9.406l-1.296-1.287a.373.373 0 00-.523 0l-.2.197a.376.376 0 000 .518l2.258 2.26a.36.36 0 00.262.106.362.362 0 00.266-.107l2.258-2.258a.376.376 0 000-.518l-.197-.197z" fill="#fff"/></g><defs><clipPath id="cclip0"><path fill="#fff" transform="translate(5 6)" d="M0 0h13v13H0z"/></clipPath></defs></svg><svg viewBox="0 0 24 24" id="human" xmlns="http://www.w3.org/2000/svg"><circle cx="12" cy="12" r="12" fill="inherit"/><path d="M13.015 11.988h-2.03a3.623 3.623 0 00-3.619 3.62V18h9.268v-2.393a3.623 3.623 0 00-3.62-3.619zm-4.946 5.309v-1.69a2.92 2.92 0 012.916-2.916h2.03a2.92 2.92 0 012.916 2.916v1.69H8.069zM12 6a2.802 2.802 0 00-2.799 2.799A2.802 2.802 0 0012 11.597 2.802 2.802 0 0014.799 8.8 2.802 2.802 0 0012 6zm0 4.894A2.098 2.098 0 019.904 8.8c0-1.156.94-2.096 2.096-2.096 1.155 0 2.095.94 2.095 2.096 0 1.155-.94 2.095-2.095 2.095z" fill="#fff"/></svg><svg viewBox="0 0 24 24" id="no-bake" xmlns="http://www.w3.org/2000/svg"><circle cx="12" cy="12" r="12" fill="inherit"/><path d="M12.265 18.622c-.5.002-.998-.085-1.469-.256-1.687-.618-2.812-1.592-3.344-2.895-.874-2.137.163-4.365.208-4.459a.19.19 0 01.353.03c.152.433.42.815.776 1.105.433-2.174 2.328-3.489 2.413-3.547 1.223-.979.224-2.925.214-2.944a.189.189 0 01.286-.235c3.37 2.734 3.175 5.487 2.903 6.619a1.834 1.834 0 00.687-1.698.19.19 0 01.344-.133c.365.57.662 1.181.884 1.821a5.17 5.17 0 01-.888 4.989l-.04.049a4.294 4.294 0 01-3.327 1.554zm-1.338-.611c.428.155.882.234 1.338.232a3.918 3.918 0 003.034-1.416l.038-.047a4.794 4.794 0 00.825-4.625c-.14-.4-.31-.788-.508-1.163-.209 1.138-1.298 1.668-1.31 1.674a.19.19 0 01-.253-.252c.06-.128 1.362-3.046-2.066-6.213.219.758.35 1.944-.6 2.703-.031.022-2.04 1.42-2.315 3.614a.19.19 0 01-.294.132 3.51 3.51 0 01-.978-1.055c-.249.727-.632 2.278-.035 3.735.49 1.198 1.541 2.1 3.123 2.68z" fill="#fff"/><path d="M11.459 18.544a.189.189 0 01-.122-.044c-2.41-2.032-.712-4.631-.695-4.657a.19.19 0 01.346.093c.005.29.109.57.295.793a3.844 3.844 0 011.668-3.717.19.19 0 01.263.25 1.313 1.313 0 00-.152.64c.01.26.092.512.237.727l.076.115c.25.372.522.73.813 1.071.227.274.409.583.538.915.948 1.954-.681 3.495-.697 3.511a.19.19 0 01-.316-.146.19.19 0 01.058-.131c.06-.056 1.443-1.374.61-3.078a2.974 2.974 0 00-.484-.83c-.3-.351-.58-.72-.84-1.105l-.075-.115a1.767 1.767 0 01-.299-.925 1.696 1.696 0 01.01-.221c-.545.515-1.343 1.612-.967 3.405a.19.19 0 01-.24.22 1.292 1.292 0 01-.768-.81c-.336.763-.738 2.357.862 3.706a.188.188 0 01-.013.3.19.19 0 01-.109.034z" fill="#fff"/><path stroke="#fff" stroke-width=".5" d="M5.197 2.847l14 17.999"/></svg><svg viewBox="0 0 24 24" id="width" xmlns="http://www.w3.org/2000/svg"><circle cx="12" cy="12" r="12" fill="inherit"/><g clip-path="url(#fclip0)"><path d="M14.92 10.18a.353.353 0 000 .506l1.318 1.306h-9.48L8.08 10.68a.358.358 0 000-.51l-.197-.194a.363.363 0 00-.259-.107.364.364 0 00-.26.108l-2.258 2.259a.361.361 0 00-.107.262.363.363 0 00.107.267l2.258 2.258c.138.138.38.138.518 0l.197-.197a.378.378 0 000-.528l-1.28-1.29h9.406l-1.287 1.296a.373.373 0 000 .523l.197.2c.138.138.38.139.518 0l2.26-2.258a.36.36 0 00.106-.262.363.363 0 00-.107-.266l-2.258-2.258a.376.376 0 00-.518 0l-.197.197z" fill="#fff"/></g><defs><clipPath id="fclip0"><path fill="#fff" transform="rotate(-90 12 7)" d="M0 0h13v13H0z"/></clipPath></defs></svg></svg>