<svg width="36" height="36" viewBox="0 0 36 36" xmlns="http://www.w3.org/2000/svg">
<path d="M30.7271 5.27122C23.6975 -1.75838 12.3005 -1.75838 5.27122 5.27122C-1.75838 12.3005 -1.75838 23.6975 5.27122 30.7271C12.3005 37.7563 23.6975 37.7563 30.7271 30.7271C37.7563 23.6975 37.7563 12.3005 30.7271 5.27122ZM26.5151 18.5935L18.7695 26.3391C18.6124 26.4974 18.3979 26.5851 18.1748 26.5821C17.9527 26.5811 17.7398 26.4941 17.5805 26.3391C17.4238 26.1827 17.3355 25.9704 17.3355 25.749C17.3355 25.5276 17.4238 25.315 17.5805 25.1586L23.9026 18.8365H7.11342C6.65091 18.8365 6.27606 18.4617 6.27606 17.9991C6.27606 17.5366 6.65091 17.1618 7.11342 17.1618H23.9026L17.5805 10.8397C17.2543 10.5136 17.2543 9.98499 17.5805 9.65888C17.9066 9.33309 18.4352 9.33309 18.7609 9.65888L26.5066 17.4045C26.8271 17.7349 26.831 18.2589 26.5151 18.5935Z" fill="inherit"/>
</svg>
