<svg width="16" height="12" viewBox="0 0 16 12" xmlns="http://www.w3.org/2000/svg">
<path d="M15.8593 1.17877L11.0068 5.99999L15.8593 10.8212C15.947 10.6379 16.0002 10.4352 16.0002 10.2187V1.78124C16.0002 1.56477 15.947 1.36212 15.8593 1.17877Z" fill="inherit"/>
<path d="M14.5937 0.375H1.40618C1.18971 0.375 0.987055 0.428219 0.803711 0.515938L7.00568 6.68666C7.55405 7.23504 8.4458 7.23504 8.99418 6.68666L15.1961 0.515938C15.0128 0.428219 14.8101 0.375 14.5937 0.375Z" fill="inherit"/>
<path d="M0.140938 1.17877C0.0532188 1.36212 0 1.56477 0 1.78124V10.2187C0 10.4352 0.0532188 10.6379 0.140938 10.8212L4.99341 5.99999L0.140938 1.17877Z" fill="inherit"/>
<path d="M10.3437 6.66284L9.65702 7.3495C8.7433 8.26322 7.25652 8.26322 6.3428 7.3495L5.65618 6.66284L0.803711 11.4841C0.987055 11.5718 1.18971 11.625 1.40618 11.625H14.5937C14.8101 11.625 15.0128 11.5718 15.1961 11.4841L10.3437 6.66284Z" fill="inherit"/>
</svg>
