<svg width="20" height="20" viewBox="0 0 20 20" xmlns="http://www.w3.org/2000/svg">
<path d="M19.6425 17.3191C19.2351 18.5549 17.6181 19.5798 16.3283 19.8791C15.4459 20.0809 14.2933 20.2419 10.4134 18.5141C5.45051 16.3056 2.25451 10.8885 2.00542 10.5371C1.76688 10.1856 0 7.66867 0 5.06559C0 2.4625 1.23069 1.19497 1.72677 0.650772C2.13418 0.204075 2.80758 0 3.45354 0C3.66252 0 3.8504 0.0113376 4.01927 0.0204076C4.51535 0.0430826 4.76444 0.074828 5.09164 0.916069C5.49906 1.97045 6.49121 4.57354 6.60943 4.8411C6.72975 5.10867 6.85008 5.47147 6.6812 5.82293C6.52288 6.18573 6.38355 6.34672 6.13446 6.6551C5.88537 6.96348 5.64894 7.1993 5.39984 7.53036C5.17186 7.81833 4.91432 8.12671 5.20141 8.65957C5.48851 9.18109 6.48066 10.9203 7.94144 12.317C9.82654 14.1197 11.3549 14.6956 11.9016 14.9405C12.309 15.1219 12.7945 15.0789 13.0922 14.7387C13.4701 14.3011 13.9366 13.5755 14.4115 12.8612C14.7493 12.3488 15.1757 12.2853 15.6232 12.4667C16.0792 12.6368 18.492 13.9179 18.9881 14.1832C19.4842 14.4508 19.8114 14.5777 19.9317 14.8022C20.0499 15.0267 20.0499 16.0811 19.6425 17.3191Z" fill="inherit"/>
</svg>
