<svg width="16" height="16" viewBox="0 0 16 16" fill="none" xmlns="http://www.w3.org/2000/svg">
<path d="M8 16C12.4183 16 16 12.4183 16 8C16 3.58172 12.4183 0 8 0C3.58172 0 0 3.58172 0 8C0 12.4183 3.58172 16 8 16Z" fill="#039BE5"/>
<path d="M3.66066 7.82665L11.374 4.85265C11.732 4.72332 12.0447 4.93999 11.9287 5.48132L11.9293 5.48065L10.616 11.668C10.5187 12.1067 10.258 12.2133 9.89333 12.0067L7.89333 10.5327L6.92866 11.462C6.82199 11.5687 6.73199 11.6587 6.52533 11.6587L6.66733 9.62332L10.374 6.27465C10.5353 6.13265 10.338 6.05265 10.1253 6.19399L5.54466 9.07799L3.56999 8.46199C3.14133 8.32599 3.13199 8.03332 3.66066 7.82665Z" fill="white"/>
</svg>
