<svg width="28" height="28" viewBox="0 0 28 28" fill="none" xmlns="http://www.w3.org/2000/svg">
<g clip-path="url(#clip0)">
<path d="M16.8004 0H11.1997C5.7952 0 1.39844 4.39677 1.39844 9.80126V14.0018C1.39844 17.7961 3.5867 21.2394 6.99915 22.859V27.5369C6.99915 27.943 7.50725 28.1554 7.79589 27.8669L11.8597 23.8031H16.8004C22.2048 23.8031 26.6016 19.4063 26.6016 14.0018V9.80126C26.6016 4.39677 22.2048 0 16.8004 0Z" fill="#665CAC"/>
<path d="M8.39931 22.859C4.98687 21.2393 2.7986 17.796 2.7986 14.0018V9.8012C2.7986 4.39677 7.19542 0 12.5999 0H11.1997C5.7952 0 1.39844 4.39677 1.39844 9.80126V14.0018C1.39844 17.7961 3.5867 21.2394 6.99915 22.859V27.5369C6.99915 27.943 7.50725 28.1554 7.79589 27.8669L8.39931 27.2635V22.859Z" fill="#523494"/>
<path d="M21.0465 17.3961L20.6268 15.123C20.5921 14.9352 20.4466 14.7875 20.2594 14.75L16.9592 14.09C16.8059 14.0595 16.6479 14.1073 16.5375 14.2176L15.1968 15.5585C12.9377 14.5463 11.684 13.2898 10.5808 10.9338L11.9173 9.59737C12.0276 9.48701 12.0755 9.32874 12.0449 9.17573L11.3849 5.87545C11.3474 5.68825 11.1997 5.54267 11.0119 5.508L8.73876 5.08844C8.67653 5.07701 8.61243 5.07821 8.55064 5.09227C7.95044 5.2286 7.4028 5.53103 6.96689 5.96705C6.21209 6.72185 5.92361 7.82325 6.13274 9.15221C6.48378 11.3838 7.57709 14.4894 9.59424 16.5146L9.6218 16.542C11.6455 18.5577 14.7511 19.6511 16.9828 20.0022C17.2639 20.0465 17.5347 20.0684 17.7944 20.0684C18.7621 20.0684 19.5728 19.7632 20.1681 19.168C20.604 18.732 20.9065 18.1844 21.0428 17.5843C21.0566 17.5225 21.0579 17.4585 21.0465 17.3961Z" fill="white"/>
<path d="M11.4609 10.0537L11.9172 9.59736L11.9177 9.59686L11.4609 10.0537L11.4609 10.0537Z" fill="#E5E5E5"/>
<path d="M16.5376 14.2172L16.0768 14.678L16.0769 14.6781L16.5376 14.2173L16.5376 14.2172Z" fill="#E5E5E5"/>
<path d="M18.6743 19.1883C18.4147 19.1883 18.1439 19.1663 17.8627 19.122C15.6311 18.7709 12.5255 17.6775 10.5018 15.6618L10.4742 15.6344C8.45705 13.6092 7.36373 10.5036 7.01269 8.27203C6.84377 7.19835 6.99995 6.27331 7.4642 5.55948C7.28641 5.6781 7.11955 5.81416 6.9667 5.96701C6.21191 6.72181 5.92343 7.82321 6.13255 9.15217C6.48359 11.3838 7.57691 14.4893 9.59405 16.5146L9.62162 16.5419C11.6453 18.5577 14.7509 19.6511 16.9826 20.0022C17.2638 20.0465 17.5345 20.0684 17.7942 20.0684C18.7619 20.0684 19.5726 19.7632 20.1679 19.168C20.3207 19.0151 20.4567 18.8483 20.5754 18.6705C20.0483 19.0133 19.4063 19.1883 18.6743 19.1883Z" fill="#E5E5E5"/>
<path d="M14.9335 7.93433C14.6757 7.93433 14.4668 8.14329 14.4668 8.40103C14.4668 8.65877 14.6757 8.86773 14.9335 8.86773C15.9629 8.86773 16.8004 9.70522 16.8004 10.7347C16.8004 10.989 17.0128 11.2014 17.2671 11.2014C17.5214 11.2014 17.7338 10.989 17.7338 10.7347C17.7338 9.1905 16.4776 7.93433 14.9335 7.93433Z" fill="white"/>
<path d="M14.9335 6.0674C14.7608 6.0674 14.5866 6.07697 14.4155 6.09584C14.1593 6.12411 13.9745 6.35473 14.0028 6.61099C14.0311 6.86726 14.2622 7.05155 14.5179 7.02372C14.6551 7.00857 14.7949 7.00086 14.9335 7.00086C16.9923 7.00086 18.6672 8.67583 18.6672 10.7346C18.6672 10.8733 18.6595 11.0131 18.6444 11.1502C18.6165 11.4029 18.8043 11.6375 19.0571 11.6654C19.3099 11.6932 19.5443 11.5055 19.5723 11.2526C19.5911 11.0816 19.6007 10.9074 19.6007 10.7346C19.6007 8.16116 17.507 6.0674 14.9335 6.0674Z" fill="white"/>
<path d="M14.9339 4.20055C14.7671 4.20055 14.5981 4.20689 14.4319 4.21952C14.1749 4.23899 13.9823 4.46321 14.0017 4.72019C14.0211 4.97722 14.2461 5.16983 14.5024 5.15036C14.6453 5.13948 14.7905 5.13401 14.9339 5.13401C18.0221 5.13401 20.5346 7.64646 20.5346 10.7347C20.5346 11.1717 20.4842 11.6067 20.3847 12.0275C20.3277 12.2687 20.4762 12.5194 20.7154 12.5849C20.967 12.6538 21.2332 12.496 21.2932 12.2422C21.4092 11.7511 21.468 11.2439 21.468 10.7347C21.468 7.13174 18.5368 4.20055 14.9339 4.20055Z" fill="white"/>
</g>
<defs>
<clipPath id="clip0">
<rect width="28" height="28" fill="white"/>
</clipPath>
</defs>
</svg>
