<svg width="25" height="15" viewBox="0 0 25 15" xmlns="http://www.w3.org/2000/svg">
<path d="M12.5 0.0488358C7.72348 0.0488358 3.39189 2.66211 0.195612 6.90677C-0.0652041 7.25452 -0.0652041 7.74036 0.195612 8.08811C3.39189 12.3379 7.72348 14.9512 12.5 14.9512C17.2765 14.9512 21.6081 12.3379 24.8044 8.09322C25.0652 7.74547 25.0652 7.25964 24.8044 6.91188C21.6081 2.66211 17.2765 0.0488358 12.5 0.0488358ZM12.8426 12.747C9.67193 12.9465 7.05354 10.3332 7.25299 7.15736C7.41664 4.53897 9.53897 2.41664 12.1574 2.25299C15.3281 2.05354 17.9465 4.66682 17.747 7.84264C17.5782 10.4559 15.4559 12.5782 12.8426 12.747ZM12.6841 10.3229C10.976 10.4303 9.56454 9.02398 9.67705 7.31589C9.76399 5.90442 10.9095 4.76398 12.321 4.67193C14.0291 4.56454 15.4406 5.9709 15.3281 7.67899C15.236 9.09558 14.0905 10.236 12.6841 10.3229Z" fill="inherit"/>
</svg>
