<svg width="24" height="24" viewBox="0 0 24 24" xmlns="http://www.w3.org/2000/svg">
<circle cx="12" cy="12" r="12" fill="inherit"/>
<g clip-path="url(#clip0)">
<path d="M13.1129 7.15459C12.7723 6.75711 12.4656 6.40506 12.2271 6.10979C12.2158 6.08708 12.1931 6.07572 12.1817 6.06437C12.0568 5.96216 11.8751 5.98487 11.7729 6.10979C11.5344 6.40506 11.2278 6.75711 10.8871 7.15459C9.38803 8.89213 7.3098 11.2997 7.3098 13.3098C7.3098 14.6044 7.8322 15.7742 8.68393 16.6259C9.53567 17.4663 10.7054 18 12 18C13.2947 18 14.4644 17.4776 15.3161 16.6259C16.1678 15.7742 16.6902 14.6044 16.6902 13.3098C16.6902 11.2997 14.612 8.89213 13.1129 7.15459ZM14.9073 16.2057C14.1577 16.9552 13.1357 17.4208 12 17.4208C10.8644 17.4208 9.84229 16.9552 9.09276 16.2171C8.35459 15.4789 7.88898 14.4454 7.88898 13.3098C7.88898 11.5155 9.88772 9.19876 11.33 7.52935C11.5685 7.24544 11.7956 6.98424 12 6.7344C12.2044 6.98424 12.4316 7.24544 12.67 7.518C14.1123 9.1874 16.1111 11.4928 16.1111 13.2984C16.1111 14.4341 15.6454 15.4562 14.9073 16.2057Z" fill="white"/>
<path d="M12.0227 15.9331C11.3186 15.9331 10.6827 15.6492 10.2284 15.1949C9.77414 14.7407 9.49023 14.1047 9.49023 13.4006C9.49023 13.2416 9.36531 13.1167 9.20632 13.1167C9.04733 13.1167 8.92241 13.2416 8.92241 13.4006C8.92241 14.2637 9.27446 15.036 9.83092 15.6038C10.376 16.1489 11.1596 16.5009 12.0227 16.5009C12.1817 16.5009 12.3066 16.376 12.3066 16.217C12.3066 16.058 12.1817 15.9331 12.0227 15.9331Z" fill="white"/>
</g>
<defs>
<clipPath id="clip0">
<rect width="12" height="12" fill="white" transform="translate(6 6)"/>
</clipPath>
</defs>
</svg>
