<svg width="24" height="24" viewBox="0 0 24 24" xmlns="http://www.w3.org/2000/svg">
<circle cx="12" cy="12" r="12" fill="inherit"/>
<g clip-path="url(#clip0)">
<path d="M13.8201 15.9202C13.6772 15.7773 13.4565 15.7773 13.3136 15.9202L12.0079 17.2378V7.75739L13.3196 9.08106C13.3884 9.15008 13.4749 9.18812 13.5729 9.18812C13.6708 9.18812 13.76 9.15008 13.8292 9.08106L14.0245 8.88426C14.0935 8.81525 14.1307 8.72319 14.1307 8.625C14.1307 8.52692 14.0924 8.43476 14.0234 8.36585L11.7641 6.10681C11.6935 6.0361 11.5989 5.99837 11.5019 6.00006C11.4007 5.99826 11.306 6.036 11.2355 6.1067L8.97733 8.3649C8.83919 8.50293 8.83919 8.74539 8.97733 8.88331L9.17402 9.08011C9.31702 9.2229 9.55905 9.2229 9.70163 9.08L10.9915 7.79966V17.2057L9.69581 15.9192C9.55271 15.7763 9.31543 15.7763 9.17254 15.9192L8.97363 16.116C8.83528 16.254 8.83422 16.4964 8.97236 16.6344L11.2307 18.8935C11.3015 18.964 11.3956 19.002 11.4927 18.9999C11.5938 19.002 11.6883 18.9641 11.7589 18.8935L14.017 16.6353C14.1552 16.4973 14.1552 16.2549 14.017 16.1169L13.8201 15.9202Z" fill="white"/>
</g>
<defs>
<clipPath id="clip0">
<rect width="13" height="13" fill="white" transform="translate(5 6)"/>
</clipPath>
</defs>
</svg>
