<svg width="24" height="24" viewBox="0 0 24 24" xmlns="http://www.w3.org/2000/svg">
<circle cx="12" cy="12" r="12" fill="inherit"/>
<path d="M13.0146 11.9883H10.9854C8.98992 11.9883 7.36617 13.6118 7.36617 15.6075V18H16.6338V15.6075C16.6338 13.6118 15.0101 11.9883 13.0146 11.9883ZM8.0693 17.2969V15.6075C8.0693 13.9995 9.37758 12.6914 10.9854 12.6914H13.0146C14.6224 12.6914 15.9307 13.9995 15.9307 15.6075V17.2969H8.0693Z" fill="white"/>
<path d="M12 6C10.4569 6 9.20133 7.25555 9.20133 8.79867C9.20133 10.3418 10.4569 11.5973 12 11.5973C13.5431 11.5973 14.7987 10.3418 14.7987 8.79867C14.7987 7.25555 13.5431 6 12 6ZM12 10.8942C10.8445 10.8942 9.90445 9.95414 9.90445 8.79867C9.90445 7.6432 10.8445 6.70312 12 6.70312C13.1555 6.70312 14.0955 7.6432 14.0955 8.79867C14.0955 9.95414 13.1555 10.8942 12 10.8942Z" fill="white"/>
</svg>
