<svg width="24" height="24" viewBox="0 0 24 24" xmlns="http://www.w3.org/2000/svg">
<circle cx="12" cy="12" r="12" fill="inherit"/>
<path d="M12.2649 18.6216C11.7641 18.6235 11.267 18.537 10.7964 18.366C9.10918 17.7476 7.9837 16.7736 7.45151 15.4714C6.57802 13.3336 7.61516 11.1057 7.65962 11.012C7.67615 10.9772 7.70294 10.9482 7.73639 10.929C7.76985 10.9098 7.80837 10.9013 7.8468 10.9047C7.88523 10.908 7.92172 10.9229 7.9514 10.9476C7.98107 10.9722 8.00251 11.0053 8.01283 11.0425C8.16494 11.4749 8.43334 11.8569 8.78851 12.1466C9.22156 9.97321 11.1174 8.65797 11.2016 8.60026C12.4249 7.62102 11.4258 5.6754 11.4156 5.65591C11.3954 5.61736 11.3892 5.57303 11.3979 5.5304C11.4066 5.48777 11.4297 5.44943 11.4633 5.42186C11.497 5.39429 11.5391 5.37916 11.5826 5.37903C11.6262 5.3789 11.6684 5.39376 11.7022 5.42113C15.0711 8.15491 14.8774 10.9084 14.6055 12.0397C14.8586 11.8416 15.0552 11.5805 15.1756 11.2826C15.2961 10.9846 15.3362 10.6603 15.2919 10.3419C15.286 10.2996 15.2945 10.2565 15.3162 10.2197C15.3379 10.1829 15.3714 10.1545 15.4113 10.1391C15.4511 10.1238 15.495 10.1224 15.5358 10.1352C15.5766 10.1479 15.6119 10.1741 15.6358 10.2095C16.0014 10.7793 16.2983 11.3904 16.5201 12.0301C16.8127 12.8679 16.8847 13.7669 16.7293 14.6405C16.5738 15.5142 16.1961 16.3332 15.6324 17.0186L15.5919 17.068C15.1867 17.5568 14.6781 17.9497 14.1028 18.2183C13.5275 18.487 12.8998 18.6247 12.2649 18.6216ZM10.9265 18.0107C11.3555 18.1664 11.8085 18.2451 12.2649 18.2432C12.8439 18.2461 13.4163 18.1206 13.941 17.8758C14.4658 17.631 14.9297 17.2729 15.2995 16.8273L15.3373 16.7801C15.8601 16.1448 16.2105 15.3856 16.355 14.5756C16.4995 13.7657 16.4331 12.9322 16.1622 12.1553C16.0216 11.7555 15.8516 11.3667 15.6536 10.992C15.4455 12.1303 14.3563 12.6597 14.3431 12.6659C14.3079 12.6826 14.2683 12.688 14.2299 12.6814C14.1915 12.6747 14.156 12.6563 14.1284 12.6288C14.1009 12.6012 14.0825 12.5658 14.0758 12.5274C14.0691 12.4889 14.0744 12.4494 14.0911 12.4141C14.1509 12.2859 15.4533 9.36818 12.0252 6.20097C12.2439 6.95905 12.3746 8.1447 11.4252 8.9041C11.3936 8.92643 9.38445 10.3242 9.11013 12.5176C9.10602 12.5497 9.09376 12.5802 9.07451 12.6062C9.05526 12.6322 9.02966 12.6528 9.00018 12.6661C8.97069 12.6794 8.93828 12.6849 8.90606 12.6821C8.87384 12.6792 8.84288 12.6682 8.81613 12.65C8.42069 12.3697 8.0876 12.0104 7.83783 11.5949C7.58943 12.3216 7.20575 13.873 7.80264 15.3297C8.2934 16.5282 9.34435 17.4297 10.9263 18.0098L10.9265 18.0107Z" fill="white"/>
<path d="M11.4587 18.5444C11.4141 18.5444 11.371 18.5287 11.3369 18.5C8.92605 16.4677 10.6246 13.8688 10.642 13.8429C10.664 13.81 10.6958 13.7849 10.7328 13.771C10.7699 13.7571 10.8103 13.7552 10.8485 13.7655C10.8867 13.7758 10.9207 13.7978 10.9457 13.8285C10.9708 13.8591 10.9856 13.8969 10.988 13.9363C10.9928 14.2266 11.097 14.5065 11.2832 14.7292C11.185 14.0156 11.2893 13.2888 11.5842 12.6316C11.879 11.9744 12.3526 11.4132 12.9509 11.012C12.9862 10.9915 13.0273 10.9829 13.068 10.9877C13.1086 10.9924 13.1466 11.0102 13.1763 11.0384C13.2059 11.0666 13.2257 11.1036 13.2325 11.144C13.2394 11.1843 13.2329 11.2258 13.2142 11.2622C13.1098 11.4592 13.0574 11.6796 13.0617 11.9026C13.0715 12.162 13.1538 12.4135 13.2993 12.6285L13.375 12.7441C13.6257 13.1162 13.8973 13.4739 14.1885 13.8153C14.4152 14.0894 14.5965 14.3981 14.7256 14.7296C15.6738 16.6845 14.0446 18.2254 14.0287 18.241C13.9917 18.274 13.9432 18.2913 13.8937 18.289C13.8442 18.2867 13.7975 18.265 13.7638 18.2287C13.73 18.1923 13.7119 18.1442 13.7133 18.0946C13.7148 18.045 13.7356 17.998 13.7714 17.9636C13.8306 17.9084 15.2139 16.5901 14.3811 14.8864C14.3779 14.8798 14.375 14.8729 14.3726 14.8658C14.258 14.5728 14.0976 14.2998 13.8974 14.057C13.5968 13.7047 13.3165 13.3355 13.0579 12.9512L12.9823 12.8356C12.798 12.5613 12.6943 12.2408 12.683 11.9105C12.6815 11.8368 12.6847 11.763 12.6928 11.6897C12.1479 12.2049 11.3496 13.3016 11.726 15.0951C11.7328 15.1273 11.7311 15.1607 11.7211 15.192C11.711 15.2232 11.693 15.2514 11.6687 15.2736C11.6445 15.2958 11.6149 15.3113 11.5829 15.3186C11.5508 15.3259 11.5174 15.3247 11.486 15.3151C11.3054 15.246 11.1427 15.1373 11.0097 14.9969C10.8768 14.8566 10.7771 14.6881 10.7179 14.5041C10.3822 15.2684 9.98003 16.8616 11.5804 18.2111C11.6101 18.2361 11.6314 18.2696 11.6413 18.3071C11.6513 18.3446 11.6495 18.3843 11.6362 18.4207C11.6229 18.4572 11.5987 18.4887 11.5669 18.5109C11.535 18.5331 11.4972 18.545 11.4583 18.545L11.4587 18.5444Z" fill="white"/>
<line x1="5.19734" y1="2.84651" x2="19.1973" y2="20.8465" stroke="white" stroke-width="0.5"/>
</svg>
