<svg width="24" height="24" viewBox="0 0 24 24" xmlns="http://www.w3.org/2000/svg">
<circle cx="12" cy="12" r="12" fill="inherit"/>
<g clip-path="url(#clip0)">
<path d="M14.9202 10.1799C14.7773 10.3228 14.7773 10.5435 14.9202 10.6864L16.2378 11.9921H6.75738L8.08105 10.6803C8.15007 10.6115 8.18812 10.5251 8.18812 10.4271C8.18812 10.3291 8.15007 10.2399 8.08105 10.1708L7.88426 9.9755C7.81524 9.90648 7.72318 9.86928 7.625 9.86928C7.52691 9.86928 7.43475 9.90754 7.36584 9.97655L5.1068 12.2359C5.03609 12.3065 4.99836 12.4011 5.00005 12.4981C4.99826 12.5993 5.03599 12.694 5.1067 12.7645L7.36489 15.0227C7.50292 15.1608 7.74538 15.1608 7.8833 15.0227L8.0801 14.826C8.22289 14.683 8.22289 14.4409 8.08 14.2984L6.79965 13.0085H16.2057L14.9192 14.3042C14.7763 14.4473 14.7763 14.6846 14.9192 14.8274L15.116 15.0264C15.254 15.1647 15.4964 15.1658 15.6344 15.0276L17.8935 12.7693C17.964 12.6985 18.0019 12.6043 17.9999 12.5073C18.0019 12.4062 17.9641 12.3117 17.8935 12.2411L15.6353 9.983C15.4973 9.84476 15.2549 9.84476 15.1169 9.983L14.9202 10.1799Z" fill="white"/>
</g>
<defs>
<clipPath id="clip0">
<rect width="13" height="13" fill="white" transform="translate(5 19) rotate(-90)"/>
</clipPath>
</defs>
</svg>
