<svg width="97" height="97" viewBox="0 0 97 97" xmlns="http://www.w3.org/2000/svg">
<circle cx="48.5" cy="48.5" r="48.5" fill="inherit"/>
<path d="M76 58.545C76 51.844 72.1557 45.8636 66.3982 42.9546C66.2194 55.8028 55.8027 66.2195 42.9545 66.3983C45.8635 72.1558 51.8439 76.0001 58.5449 76.0001C61.6867 76.0001 64.742 75.1633 67.4265 73.5735L75.9238 75.9239L73.5734 67.4266C75.1633 64.7421 76 61.6868 76 58.545Z" fill="white"/>
<path d="M63.2383 42.6191C63.2383 31.2495 53.9888 22 42.6191 22C31.2495 22 22 31.2495 22 42.6191C22 46.3246 22.9863 49.9323 24.8592 53.0997L22.0758 63.1621L32.1386 60.3791C35.306 62.252 38.9137 63.2383 42.6191 63.2383C53.9888 63.2383 63.2383 53.9888 63.2383 42.6191ZM39.4551 37.8203H36.291C36.291 34.3308 39.1296 31.4922 42.6191 31.4922C46.1087 31.4922 48.9473 34.3308 48.9473 37.8203C48.9473 39.5914 48.1974 41.2938 46.8894 42.4902L44.2012 44.9506V47.418H41.0371V43.5572L44.7532 40.1559C45.4174 39.5482 45.7832 38.7189 45.7832 37.8203C45.7832 36.0755 44.3639 34.6562 42.6191 34.6562C40.8744 34.6562 39.4551 36.0755 39.4551 37.8203ZM41.0371 50.582H44.2012V53.7461H41.0371V50.582Z" fill="white"/>
</svg>
