<svg width="42" height="50" viewBox="0 0 42 50" xmlns="http://www.w3.org/2000/svg">
<path d="M18.4542 25.3356C19.1255 25.6953 19.9869 25.8752 20.8485 25.8752C21.7098 25.8752 22.5715 25.6953 23.2428 25.3356C23.5994 25.1446 23.7335 24.7007 23.5425 24.3442C23.3515 23.9876 22.9077 23.8535 22.5511 24.0445C21.6281 24.5389 20.0687 24.5388 19.146 24.0445C18.7895 23.8536 18.3456 23.9876 18.1545 24.3442C17.9634 24.7006 18.0975 25.1446 18.4542 25.3356Z" fill="inherit"/>
<path d="M37.7752 33.3022C36.0307 31.7322 33.7453 30.5429 31.4451 29.9978C31.1211 29.7627 29.4502 28.5485 28.0509 27.5033C29.8329 25.8044 31.2134 23.6634 31.8325 21.4855C32.5336 21.3489 33.2459 20.9652 33.8213 20.3979C34.5227 19.7064 34.9249 18.8383 34.9249 18.0161V16.9254C34.9249 15.9141 34.1012 15.0914 33.0887 15.0914H32.1777V13.4404V9.85014C32.1777 5.30815 28.4998 2.2683 25.0578 0.937932C20.8241 -0.698299 16.4895 -0.158162 14.2731 2.28041C14.2291 2.32856 14.1926 2.36987 14.1615 2.40561C14.1141 2.41235 14.0589 2.42055 13.9944 2.43139C11.7958 2.79428 10.2305 4.29897 9.46758 6.78295C8.88906 8.66645 8.91943 10.5973 8.93076 11.3242C8.93184 11.3941 8.93281 11.4513 8.93281 11.4944V13.2798V15.0914H8.02197C7.01094 15.0914 6.18848 15.9141 6.18848 16.9254V18.0161C6.18848 18.839 6.59082 19.7078 7.29238 20.3995C7.8667 20.9658 8.57773 21.3489 9.27783 21.4854C9.89766 23.6651 11.2807 25.808 13.0654 27.5075C12.7521 27.7499 12.3641 28.0509 11.9646 28.361C11.1604 28.9849 10.2627 29.6815 9.91846 29.9422C7.53457 30.4581 5.1459 31.6748 3.33779 33.3022C1.1541 35.2676 0 37.6165 0 40.0946V42.4752C0 42.8797 0.32793 43.2076 0.732422 43.2076C1.13691 43.2076 1.46484 42.8797 1.46484 42.4752V40.0946C1.46484 35.8399 5.79121 32.3877 10.0801 31.4052L14.6833 34.8304C14.6995 34.8424 14.716 34.8538 14.7331 34.8644C14.907 34.9728 15.0207 35.0615 15.112 35.1329C15.3825 35.3441 15.6122 35.4281 15.8157 35.4281C16.1509 35.4281 16.4146 35.2003 16.6719 34.9379C16.8154 34.7915 17.023 34.5797 17.3496 34.2895L17.8104 36.0982L15.1438 44.9859C15.1423 44.9912 15.1393 45.0004 15.1378 45.0057C15.1082 45.0929 15.0181 45.3584 15.1921 45.6932L16.6891 48.5304H8.36982V43.4138C8.36982 43.0093 8.04189 42.6814 7.6374 42.6814C7.23291 42.6814 6.90498 43.0093 6.90498 43.4138V48.5304H1.97734C1.8915 48.5304 1.80918 48.5319 1.73066 48.5333C1.64951 48.5346 1.55068 48.5367 1.47129 48.5345C1.46758 48.4934 1.46484 48.4399 1.46484 48.3715V45.8082C1.46484 45.4037 1.13691 45.0757 0.732422 45.0757C0.32793 45.0757 0 45.4037 0 45.8082V48.3715C0 48.737 0.0430662 49.2652 0.415332 49.6309C0.749512 49.9592 1.16709 50.0002 1.55977 50.0002C1.62627 50.0002 1.69219 49.999 1.75674 49.9978C1.82695 49.9966 1.90049 49.9952 1.97725 49.9952H17.9021C17.9027 49.9952 17.9035 49.9953 17.9042 49.9953C17.905 49.9953 17.9058 49.9952 17.9066 49.9952H20.5566H23.2039C23.2047 49.9952 23.2055 49.9953 23.2063 49.9953C23.207 49.9953 23.2077 49.9952 23.2085 49.9952H39.136C39.2128 49.9952 39.2863 49.9966 39.3565 49.9978C39.4211 49.999 39.4869 50.0002 39.5535 50.0002C39.9462 50.0002 40.3639 49.9592 40.6979 49.6309C41.0703 49.2653 41.1133 48.737 41.1133 48.3715V40.0947C41.1133 37.6163 39.959 35.2675 37.7752 33.3022ZM32.1777 19.1731V16.5561H33.0886C33.2899 16.5561 33.46 16.7252 33.46 16.9254V18.0161C33.46 18.4424 33.2105 18.9429 32.7928 19.3548C32.5954 19.5494 32.3744 19.7114 32.1479 19.8324C32.1678 19.6094 32.1777 19.3894 32.1777 19.1731ZM8.3209 19.3564C7.90293 18.9443 7.65342 18.4432 7.65342 18.0161V16.9254C7.65342 16.7252 7.82227 16.5561 8.02207 16.5561H8.93291V19.1731C8.93291 19.3892 8.94287 19.6091 8.9627 19.8319C8.73721 19.7113 8.51719 19.5501 8.3209 19.3564ZM29.8113 30.6203L25.7559 33.6379C25.6737 33.6897 25.6013 33.7384 25.5374 33.7834C25.3609 33.6058 25.1149 33.3667 24.7534 33.0538L23.9712 32.3515C23.9148 32.2767 23.844 32.2125 23.7615 32.1632L22.2409 30.7982C22.6547 30.7015 23.0839 30.5708 23.5401 30.4003C24.7227 29.9596 25.8662 29.2977 26.9143 28.4822C27.8872 29.2121 29.0467 30.0623 29.8113 30.6203ZM22.5636 33.0564L21.971 35.3816H19.1396L18.5707 33.1492L20.5687 31.2657L22.5636 33.0564ZM14.2347 3.87631C14.3213 3.86176 14.3865 3.85307 14.4372 3.84614C14.8126 3.79545 14.9736 3.70805 15.2201 3.42084C15.253 3.38246 15.2954 3.33305 15.3556 3.26733C16.4277 2.08764 18.2159 1.47358 20.2566 1.47358C21.6147 1.47358 23.0848 1.74565 24.5297 2.30414C27.5188 3.45942 30.7129 6.04848 30.7129 9.85014V13.0651C28.3575 9.75844 25.8098 9.97495 23.1386 10.202C21.1189 10.3735 19.0308 10.5509 16.611 9.28423C15.4766 8.69048 13.2714 8.20981 11.2487 11.6619L10.3977 13.1184V11.4943C10.3977 11.4455 10.3967 11.3805 10.3954 11.3011C10.3469 8.21108 10.9732 4.41459 14.2347 3.87631ZM27.7908 14.5349H22.5152C21.8825 14.5349 21.3679 15.0498 21.3679 15.6825V16.275C20.8148 16.1812 20.2582 16.1817 19.7012 16.2768V15.6825C19.7012 15.0497 19.1877 14.5349 18.5565 14.5349H13.281C12.6498 14.5349 12.1363 15.0498 12.1363 15.6825V16.1084L10.7123 15.4834L12.5131 12.4015C14.1313 9.63969 15.4395 10.3242 15.9317 10.5819C18.7296 12.0463 21.1379 11.8417 23.2626 11.6614C26.1465 11.4163 28.2689 11.2363 30.4494 15.4572L28.9354 16.1138V15.6825C28.9354 15.0498 28.422 14.5349 27.7908 14.5349ZM27.4706 15.9997V17.233V17.2395V18.4574H22.8327V15.9998H27.4706V15.9997ZM18.2363 15.9997V18.4573H13.6012V17.242C13.6012 17.2402 13.6012 17.2383 13.6012 17.2365V15.9997H18.2363ZM10.5729 20.6458C10.4565 20.1374 10.3977 19.6418 10.3977 19.1731V16.9451L12.1363 17.7083V18.7773C12.1363 19.4085 12.6498 19.9221 13.281 19.9221H18.5565C19.1877 19.9221 19.7012 19.4085 19.7012 18.7773V17.7704C20.2628 17.635 20.8142 17.6342 21.3679 17.7682V18.7772C21.3679 19.4085 21.8826 19.922 22.5152 19.922H27.7908C28.422 19.922 28.9354 19.4085 28.9354 18.7772V17.7105L30.7129 16.9397V19.1731C30.7129 19.6418 30.6539 20.1374 30.5376 20.6462C29.7447 24.1245 26.5166 27.7277 23.0281 29.028C22.0963 29.376 21.3109 29.538 20.5566 29.538C19.7998 29.538 19.0146 29.376 18.0848 29.0278C14.595 27.7271 11.3656 24.1239 10.5729 20.6458ZM17.2671 32.365C17.259 32.3722 17.2512 32.3797 17.2434 32.3874L16.5301 33.0597C16.1723 33.3697 15.9282 33.607 15.7529 33.7834C15.6891 33.7384 15.6166 33.6897 15.5345 33.6379L11.4594 30.6056C11.8631 30.2938 12.3672 29.9026 12.8626 29.5182C13.3354 29.1512 13.8467 28.7546 14.1979 28.4836C14.2105 28.4935 14.2234 28.5024 14.2362 28.512C15.2739 29.3136 16.404 29.9646 17.5721 30.4C18.0349 30.5733 18.4701 30.7053 18.8901 30.8028C18.8986 30.8056 18.9071 30.8088 18.9158 30.8108L17.2671 32.365ZM39.6484 48.3714C39.6484 48.4398 39.6457 48.4933 39.642 48.5344C39.5626 48.5364 39.4638 48.5344 39.3826 48.5332C39.3041 48.5317 39.2219 48.5303 39.1359 48.5303H33.594V43.4137C33.594 43.0092 33.2661 42.6813 32.8616 42.6813C32.4571 42.6813 32.1292 43.0092 32.1292 43.4137V48.5303H24.4214L25.9153 45.6989C26.0387 45.4727 26.057 45.2442 25.9692 44.995C25.9684 44.992 25.9675 44.9888 25.9665 44.9858L25.0674 41.9907C24.9512 41.6033 24.5429 41.3837 24.1554 41.4998C23.768 41.6161 23.5481 42.0244 23.6645 42.4118L24.509 45.2252L22.7651 48.5302H20.5566H18.3453L16.6015 45.2251L19.1153 36.8464H21.9953L22.7322 39.3029C22.8274 39.6202 23.1185 39.8251 23.4335 39.8251C23.5031 39.8251 23.574 39.815 23.6442 39.794C24.0317 39.6778 24.2516 39.2695 24.1354 38.8821L23.3002 36.098L23.7939 34.1605C24.2069 34.5178 24.4546 34.7704 24.6186 34.9377C24.8759 35.2002 25.1396 35.4279 25.4748 35.4279C25.6782 35.4279 25.908 35.3439 26.1785 35.1327C26.2699 35.0614 26.3836 34.9726 26.5574 34.8642C26.5744 34.8536 26.591 34.8422 26.6071 34.8302L31.1675 31.437C35.4124 32.4604 39.6486 35.8845 39.6486 40.0944V48.3714H39.6484Z" fill="inherit"/>
</svg>
