<svg width="50" height="38" viewBox="0 0 50 38" xmlns="http://www.w3.org/2000/svg">
<path d="M40.4785 12.4107H37.3306L38.2791 1.52115C38.2808 1.50142 38.2811 1.48199 38.2812 1.46255C38.2812 1.46089 38.2814 1.45933 38.2814 1.45767C38.2814 1.45738 38.2814 1.45718 38.2814 1.45689C38.2814 1.1605 38.1026 0.899269 37.8398 0.785694C37.8376 0.784717 37.8354 0.783546 37.8332 0.782569C37.8168 0.775733 37.8 0.769873 37.783 0.764209C37.7766 0.762159 37.7706 0.759619 37.7642 0.757666C37.7503 0.753467 37.7361 0.750147 37.7219 0.746729C37.712 0.744385 37.7024 0.741553 37.6923 0.7396C37.6799 0.737159 37.667 0.735596 37.6544 0.733741C37.6424 0.731983 37.6307 0.729932 37.6187 0.728858C37.6167 0.728662 37.6148 0.728271 37.6127 0.728076C37.5999 0.726904 37.5872 0.7271 37.5744 0.726611C37.5658 0.726318 37.5574 0.725342 37.5488 0.725342H37.5396C37.5388 0.725342 37.538 0.725342 37.5374 0.725342H22.5597C22.1554 0.725342 21.8272 1.05347 21.8272 1.45777C21.8272 1.86109 22.1554 2.19019 22.5597 2.19019H36.7504L35.2928 18.9261C35.2926 18.9274 35.2926 18.9286 35.2924 18.9299L34.9247 23.1527H9.47445L9.90014 18.7583H14.746C15.1505 18.7583 15.4784 18.4304 15.4784 18.0259C15.4784 17.6214 15.1505 17.2935 14.746 17.2935H10.0421L10.941 8.01658H18.6534C19.058 8.01658 19.3858 7.68865 19.3858 7.28416C19.3858 6.87966 19.058 6.55173 18.6534 6.55173H11.083L11.5056 2.19019H19.63C20.0333 2.19019 20.3624 1.86109 20.3624 1.45777C20.3624 1.05347 20.0333 0.725342 19.63 0.725342H10.8409C10.8405 0.725342 10.8402 0.725439 10.8398 0.725439C10.4957 0.725342 10.1973 0.967531 10.1251 1.30327C10.1246 1.30572 10.1238 1.30806 10.1233 1.3105C10.1196 1.32876 10.1171 1.34741 10.1147 1.36617C10.114 1.37212 10.1127 1.37779 10.1121 1.38374C10.1121 1.38492 10.1118 1.38599 10.1117 1.38716L9.61127 6.55173H0.732425C0.327833 6.55173 0 6.87966 0 7.28416C0 7.68865 0.327833 8.01658 0.732425 8.01658H9.46928L8.57044 17.2935H5.95725C5.55266 17.2935 5.22483 17.6214 5.22483 18.0259C5.22483 18.4304 5.55266 18.7583 5.95725 18.7583H8.42855L7.93909 23.8092C7.939 23.81 7.939 23.8108 7.9389 23.8115L7.18216 31.622C7.18206 31.6228 7.18196 31.6238 7.18186 31.6246L7.18157 31.6274C7.18059 31.6376 7.18069 31.6475 7.18011 31.6577C7.17942 31.6712 7.17806 31.6844 7.17806 31.698C7.17806 31.6986 7.17815 31.6992 7.17815 31.6999C7.17815 31.7187 7.17952 31.7373 7.18089 31.7558C7.18147 31.7618 7.18128 31.7678 7.18196 31.7737C7.18392 31.7927 7.18714 31.8113 7.19056 31.8299C7.19153 31.8353 7.19202 31.8409 7.19309 31.8463C7.19593 31.8603 7.19993 31.8739 7.20364 31.8877C7.20618 31.8973 7.20823 31.9072 7.21116 31.9167C7.21204 31.9193 7.21321 31.9219 7.21399 31.9246C7.24944 32.0336 7.3096 32.1314 7.38812 32.2113C7.38958 32.2128 7.39075 32.2144 7.39222 32.2158C7.40003 32.2236 7.40853 32.2306 7.41673 32.2381C7.46722 32.2844 7.52425 32.3236 7.58665 32.3544C7.59964 32.3608 7.61243 32.3676 7.62571 32.3731C7.62972 32.3749 7.63401 32.3761 7.63812 32.3776C7.65648 32.3849 7.67493 32.392 7.69398 32.3979C7.69573 32.3984 7.69739 32.3987 7.69915 32.3993C7.72083 32.4057 7.74271 32.4114 7.76507 32.416C7.768 32.4166 7.77103 32.4168 7.77386 32.4174C7.79515 32.4214 7.81653 32.4248 7.83831 32.4269C7.8388 32.4269 7.83919 32.427 7.83968 32.4271C7.8637 32.4295 7.88753 32.4306 7.91116 32.4306C7.91146 32.4306 7.91185 32.4305 7.91224 32.4305H11.1728C11.5329 35.1603 13.8732 37.2746 16.6999 37.2746C19.5263 37.2746 21.8667 35.1603 22.2267 32.4305H33.9747C34.3349 35.1603 36.6751 37.2746 39.5017 37.2746C42.3282 37.2746 44.6687 35.1603 45.0289 32.4305H48.2902C48.2907 32.4305 48.2913 32.4306 48.2918 32.4306C48.3162 32.4306 48.3402 32.4292 48.3641 32.4268C48.3684 32.4264 48.3725 32.4256 48.3768 32.4251C48.3958 32.4228 48.4147 32.4202 48.4333 32.4165C48.4413 32.4149 48.449 32.4128 48.4569 32.4109C48.4713 32.4076 48.4857 32.4041 48.4998 32.3999C48.5094 32.3971 48.5187 32.3937 48.528 32.3905C48.54 32.3864 48.552 32.3821 48.5639 32.3773C48.574 32.3733 48.5837 32.3689 48.5936 32.3645C48.6043 32.3596 48.615 32.3545 48.6255 32.3491C48.6354 32.344 48.645 32.3387 48.6546 32.3333C48.6646 32.3274 48.6746 32.3214 48.6845 32.3151C48.6936 32.3093 48.7028 32.3033 48.7116 32.297C48.7216 32.2901 48.7311 32.2828 48.7407 32.2754C48.7487 32.269 48.7568 32.2628 48.7646 32.2561C48.7747 32.2476 48.7842 32.2387 48.7937 32.2297C48.8004 32.2233 48.8073 32.2171 48.8138 32.2104C48.8239 32.2001 48.8336 32.1891 48.8433 32.1781C48.8484 32.1721 48.8538 32.1664 48.8588 32.1603C48.8695 32.147 48.8793 32.1334 48.8891 32.1196C48.8924 32.1148 48.8961 32.1103 48.8993 32.1054C48.9112 32.0876 48.9225 32.0692 48.9328 32.0503C48.9336 32.0491 48.9344 32.048 48.9349 32.0468C48.9459 32.0264 48.9561 32.0056 48.9651 31.9842C48.9677 31.978 48.9696 31.9717 48.9721 31.9655C48.978 31.9504 48.9839 31.9352 48.9889 31.9195C48.9921 31.9094 48.9944 31.8989 48.9973 31.8886C49.0005 31.8764 49.0039 31.8643 49.0066 31.8519C49.0091 31.8409 49.0106 31.8296 49.0125 31.8183C49.0142 31.8085 49.0163 31.7988 49.0176 31.7887C49.0486 31.5399 49.6222 26.9384 49.8783 23.963C49.8786 23.9602 49.8787 23.9573 49.879 23.9544C49.9527 23.0967 50 22.3745 50 21.9323C50 16.6821 45.7287 12.4107 40.4785 12.4107ZM37.203 13.8758H40.1994L39.8167 18.2699H36.8203L37.203 13.8758ZM16.7001 35.8097C14.4328 35.8097 12.5882 33.9651 12.5882 31.6979C12.5882 29.4307 14.4329 27.5862 16.7001 27.5862C18.9673 27.5862 20.8118 29.4307 20.8118 31.6979C20.8118 33.9651 18.9673 35.8097 16.7001 35.8097ZM39.5017 35.8097C37.2345 35.8097 35.3901 33.9651 35.3901 31.6979C35.3901 29.4307 37.2346 27.5862 39.5017 27.5862C41.769 27.5862 43.6136 29.4307 43.6136 31.6979C43.6136 33.9651 41.769 35.8097 39.5017 35.8097ZM47.6431 30.9652H45.0291C44.6691 28.2352 42.3287 26.1209 39.5019 26.1209C36.6753 26.1209 34.3349 28.2353 33.9749 30.9652H22.227C21.8671 28.2352 19.5267 26.1209 16.7001 26.1209C13.8734 26.1209 11.5329 28.2353 11.1729 30.9652H8.71742L9.33256 24.6171H35.5958V24.6175C35.5962 24.6175 35.5965 24.6175 35.5969 24.6175C35.6214 24.6175 35.6457 24.6162 35.6698 24.6137C35.6743 24.6133 35.6787 24.6124 35.6832 24.6118C35.7023 24.6095 35.7213 24.6068 35.7401 24.6031C35.7482 24.6014 35.7561 24.5992 35.7641 24.5972C35.7788 24.5937 35.7934 24.5903 35.8077 24.586C35.8174 24.5831 35.8267 24.5795 35.8362 24.5762C35.8485 24.5719 35.8608 24.5677 35.8727 24.5628C35.883 24.5586 35.8928 24.554 35.9028 24.5493C35.9136 24.5443 35.9245 24.5393 35.9349 24.5338C35.9449 24.5286 35.9546 24.5229 35.9645 24.5172C35.9746 24.5114 35.9845 24.5054 35.9943 24.4992C36.0038 24.493 36.0127 24.4866 36.0218 24.4801C36.0315 24.4733 36.0409 24.4663 36.0502 24.4589C36.0586 24.4522 36.0669 24.4453 36.0751 24.4381C36.0844 24.4301 36.0935 24.4219 36.1023 24.4134C36.1097 24.4063 36.1171 24.399 36.1244 24.3915C36.1331 24.3823 36.1416 24.3728 36.15 24.3631C36.1566 24.3555 36.163 24.3479 36.1693 24.3401C36.1774 24.3298 36.1851 24.3193 36.1927 24.3086C36.1985 24.3006 36.204 24.2926 36.2095 24.2844C36.2166 24.2734 36.2235 24.2621 36.23 24.2505C36.235 24.2419 36.2401 24.2333 36.2446 24.2246C36.2507 24.213 36.256 24.2013 36.2616 24.1895C36.2659 24.18 36.2703 24.1707 36.2742 24.161C36.279 24.1495 36.283 24.1376 36.2872 24.1258C36.2908 24.1154 36.2946 24.1049 36.2978 24.0942C36.301 24.0829 36.3037 24.0712 36.3066 24.0597C36.3094 24.0481 36.3125 24.0366 36.3148 24.0247C36.317 24.0132 36.3184 24.0015 36.3202 23.9898C36.3219 23.9777 36.324 23.9658 36.3251 23.9535C36.3253 23.9517 36.3257 23.95 36.3258 23.9483L36.6929 19.7344H40.4783C42.7223 19.7344 43.7345 20.8971 44.8058 22.1282C45.6899 23.1439 46.6769 24.2772 48.3547 24.5537C48.1416 26.8066 47.7972 29.6988 47.6431 30.9652ZM48.4799 23.0859C47.3915 22.864 46.7219 22.0989 45.9106 21.1668C44.8961 20.0013 43.6575 18.5789 41.2832 18.3139L41.6621 13.9635C45.5453 14.5378 48.5352 17.8921 48.5352 21.9325C48.5352 22.207 48.5146 22.6058 48.4799 23.0859Z" fill="inherit"/>
</svg>
