<svg width="50" height="50" viewBox="0 0 50 50" xmlns="http://www.w3.org/2000/svg">
<g clip-path="url(#clip0)">
<path d="M43.9337 10.1236L25.1415 0.110175C24.8627 -0.038617 24.5286 -0.0365288 24.2519 0.115396L5.97967 10.1288C5.68 10.2933 5.49414 10.6076 5.49414 10.9495V24.0297C5.5051 34.7819 11.8755 44.5092 21.7271 48.8169L24.2634 49.9221C24.5004 50.0255 24.7703 50.026 25.0078 49.9232L27.8657 48.689C37.9 44.4748 44.4281 34.6534 44.4291 23.7702V10.9495C44.4291 10.6039 44.2386 10.286 43.9337 10.1236ZM42.558 23.7702C42.5559 33.9032 36.4763 43.0464 27.1332 46.9677L27.1269 46.9708L24.6382 48.0452L22.4758 47.1019C13.3055 43.0923 7.37519 34.0384 7.36474 24.0297V11.5035L24.7076 1.99853L42.558 11.5103V23.7702Z" fill="inherit"/>
<path d="M17.8052 23.4229C17.4695 23.0298 16.879 22.9833 16.4859 23.319C16.0927 23.6542 16.0463 24.2452 16.382 24.6378L21.324 30.425C21.6539 30.8114 22.2319 30.8641 22.6255 30.5435L34.1352 21.1796C34.5362 20.8538 34.5967 20.2644 34.2704 19.8634C33.9447 19.463 33.3552 19.4019 32.9543 19.7282L22.1535 28.5147L17.8052 23.4229Z" fill="inherit"/>
</g>
<defs>
<clipPath id="clip0">
<rect width="50" height="50" fill="white"/>
</clipPath>
</defs>
</svg>
