<svg width="50" height="42" viewBox="0 0 50 42" xmlns="http://www.w3.org/2000/svg">
<path d="M40.0085 39.8143H9.99564C9.55278 39.8143 9.1899 40.1781 9.1899 40.6201C9.1899 41.0638 9.55278 41.4258 9.99564 41.4258H40.0103C40.4538 41.4258 40.8158 41.0638 40.8158 40.6201C40.8158 40.1781 40.4556 39.8143 40.0085 39.8143Z" fill="inherit"/>
<path d="M49.6774 10.2153C49.3957 10.0037 49.0119 10.0005 48.7267 10.2037L35.756 19.4443C35.454 19.6583 35.3391 20.0486 35.4728 20.3933C35.5973 20.7087 35.6602 21.0313 35.6602 21.3486C35.6602 22.7914 34.4848 23.9672 33.0416 23.9672C31.5969 23.9672 30.4232 22.7917 30.4232 21.3486C30.4232 19.9678 31.5107 18.8251 32.8986 18.7496C33.1675 18.7332 33.4086 18.5867 33.5486 18.3563C33.6856 18.1241 33.6981 17.8442 33.5832 17.5992L25.727 1.03259C25.5933 0.751176 25.3095 0.573914 24.9985 0.573914C24.6861 0.573914 24.4038 0.751176 24.2701 1.03259L16.4075 17.6135C16.295 17.8487 16.3061 18.1274 16.4365 18.3563C16.5687 18.5885 16.8038 18.7356 17.0668 18.7591C18.4264 18.8785 19.45 19.9952 19.45 21.3486C19.45 22.7914 18.2751 23.9672 16.8316 23.9672C15.3875 23.9672 14.2129 22.7917 14.2129 21.3486C14.2129 21.0895 14.2625 20.815 14.3657 20.5115C14.4791 20.1778 14.3625 19.8081 14.0793 19.6034L1.28441 10.2106C0.998519 10.002 0.613853 10.002 0.326771 10.212C0.0435684 10.4215 -0.0713241 10.7904 0.0450605 11.124L9.28361 37.7274C9.39462 38.0515 9.70051 38.2685 10.0437 38.2685H39.9521C40.2965 38.2685 40.6006 38.0512 40.7137 37.7274L49.9514 11.124C50.074 10.7919 49.9591 10.4263 49.6774 10.2153ZM39.3837 36.6576H10.6226L2.4196 13.0432L12.685 20.5789C12.6337 20.8394 12.6062 21.0943 12.6062 21.35C12.6062 23.6822 14.5039 25.5802 16.8364 25.5802C19.1676 25.5802 21.0665 23.6825 21.0665 21.35C21.0665 19.5324 19.9334 17.9856 18.2992 17.3945L25.0033 3.26031L31.6867 17.3575C30.0075 17.9239 28.8132 19.504 28.8132 21.3515C28.8132 23.6837 30.7109 25.5817 33.0434 25.5817C35.3741 25.5817 37.2735 23.684 37.2735 21.3515C37.2735 21.0424 37.2374 20.7317 37.1649 20.4255L47.6049 12.9883L39.3837 36.6576Z" fill="inherit"/>
<path d="M25.3479 8.16873C24.9448 7.98162 24.4667 8.15052 24.2745 8.55041L20.6669 16.1617C20.5168 16.4756 20.5881 16.8564 20.8439 17.0933C22.0232 18.2005 22.678 19.709 22.678 21.3485C22.678 21.7923 23.0391 22.1543 23.4837 22.1543C23.9284 22.1543 24.2894 21.7923 24.2894 21.3485C24.2894 19.4616 23.6114 17.7054 22.3634 16.3449L25.7317 9.24513C25.9206 8.84047 25.7508 8.35912 25.3479 8.16873Z" fill="inherit"/>
</svg>
