<svg width="50" height="50" viewBox="0 0 50 50" xmlns="http://www.w3.org/2000/svg">
<path d="M40.4322 17.6538C43.6844 14.9972 42.5611 9.74378 38.4971 8.655C37.4352 8.37051 36.3359 8.42968 35.3282 8.81355L32.0991 3.22059C30.7851 0.944601 27.5262 0.884287 26.127 3.1034C22.1553 9.40294 16.8642 14.7608 10.5823 18.8266C10.2246 19.0577 10.092 19.5352 10.3037 19.9238C10.3377 19.986 15.6863 29.2491 15.7217 29.3104C15.9518 29.7088 16.4611 29.8456 16.8601 29.6154C17.2587 29.3853 17.3952 28.8756 17.1651 28.4771L12.1494 19.7893C18.1392 15.7851 23.4441 10.4838 27.5369 3.99228C28.2689 2.83111 29.9704 2.86715 30.6557 4.05395L42.218 24.0806C42.9041 25.269 42.0816 26.759 40.7121 26.8123C33.0288 27.1117 25.5065 29.0769 18.6289 32.5945C18.5996 32.6093 10.8019 37.1121 10.2649 37.4221C8.87106 38.2269 7.08247 37.7476 6.27787 36.3537L2.05682 29.0424C1.25212 27.6486 1.7314 25.86 3.12518 25.0553L8.20541 22.1222C8.60397 21.8921 8.74053 21.3824 8.51042 20.9839C8.28031 20.5852 7.77051 20.4487 7.37206 20.6788L2.29183 23.6119C0.102191 24.876 -0.650744 27.686 0.613454 29.8757L4.8346 37.187C6.0989 39.3768 8.90887 40.1295 11.0985 38.8653L11.2907 38.7544L16.5022 47.781C17.2507 49.0776 18.906 49.5216 20.2033 48.7728L22.0312 47.7174C23.3281 46.9687 23.7716 45.3133 23.0229 44.0163L19.3293 37.619C19.0992 37.2204 18.5895 37.0838 18.191 37.3139C17.7924 37.5441 17.6559 38.0538 17.886 38.4523L21.5795 44.8497C21.8676 45.3487 21.697 45.9858 21.1978 46.274L19.37 47.3293C18.8709 47.6174 18.2338 47.4467 17.9457 46.9476L12.7342 37.921L19.4067 34.0686C25.9362 30.7324 33.2001 28.7728 40.7771 28.4777C43.403 28.3753 44.9735 25.5194 43.6614 23.2471L40.4322 17.6538ZM40.1941 11.898C41.0169 13.323 40.7213 15.0914 39.5824 16.182L36.1777 10.2846C37.6703 9.8468 39.3582 10.4499 40.1941 11.898ZM48.345 8.19301L46.1888 9.43794C45.7899 9.66815 45.2804 9.53138 45.0504 9.13293C44.8202 8.73438 44.9568 8.22468 45.3554 7.99457L47.5116 6.74964C47.9105 6.51943 48.42 6.6562 48.65 7.05465C48.8801 7.4532 48.7435 7.9629 48.345 8.19301ZM39.072 3.44331L39.5979 1.48118C39.717 1.03658 40.1737 0.77293 40.6186 0.891891C41.0632 1.01106 41.327 1.46805 41.2078 1.91254L40.6819 3.87467C40.5631 4.31812 40.1073 4.58313 39.6612 4.46396C39.2167 4.34479 38.9529 3.8879 39.072 3.44331ZM49.9714 17.0915C49.8716 17.4638 49.5349 17.7093 49.1668 17.7093C49.016 17.7093 49.1215 17.7265 46.9885 17.1549C46.5439 17.0357 46.28 16.5788 46.3992 16.1343C46.5183 15.6897 46.9753 15.4261 47.4198 15.545L49.3821 16.0707C49.8266 16.1899 50.0905 16.6469 49.9714 17.0915Z" fill="inherit"/>
</svg>
