<svg width="50" height="50" viewBox="0 0 50 50" xmlns="http://www.w3.org/2000/svg">
<path d="M37.7258 21.5957V20.6413C37.7258 19.4148 36.7279 18.4165 35.5011 18.4165H26.091L27.0943 15.9663C27.7954 14.4962 27.536 12.7757 26.4301 11.5772C25.9575 11.0648 25.2888 10.8066 24.5949 10.8684C23.9006 10.9306 23.2879 11.3029 22.9137 11.8907C22.9107 11.8953 22.9076 11.9003 22.9046 11.9048L18.4906 19.2008C18.2258 18.9475 17.8684 18.7907 17.4755 18.7888L14.3249 18.766H14.3165C13.9217 18.766 13.5506 18.9193 13.2702 19.1978C12.9883 19.4785 12.833 19.852 12.833 20.2499V33.4026C12.833 34.2208 13.4987 34.8865 14.3169 34.8865H17.4663C18.1751 34.8865 18.7694 34.3868 18.9155 33.7215L22.1641 34.8289C23.7381 35.3656 25.3795 35.6376 27.0428 35.6376H33.2638C34.4906 35.6376 35.4885 34.6397 35.4885 33.4129V32.4584C35.4885 32.0949 35.4008 31.7516 35.2455 31.4479C35.9577 31.0767 36.4448 30.331 36.4448 29.4738V28.5194C36.4448 28.1211 36.3396 27.7469 36.1557 27.423C36.7851 27.0297 37.2051 26.3305 37.2051 25.5348V24.5807C37.2051 24.1336 37.0724 23.7171 36.8446 23.368C37.3798 22.961 37.7258 22.3178 37.7258 21.5957ZM36.261 21.5957C36.261 22.0146 35.9199 22.3556 35.5011 22.3556H29.8939C29.4895 22.3556 29.1614 22.6836 29.1614 23.088C29.1614 23.4924 29.4895 23.8204 29.8939 23.8204H34.9804C35.3992 23.8204 35.7403 24.1615 35.7403 24.5803V25.5348C35.7403 25.9536 35.3992 26.2946 34.9804 26.2946H29.8939C29.4895 26.2946 29.1614 26.6223 29.1614 27.0271C29.1614 27.4314 29.4895 27.7595 29.8939 27.7595H34.2201C34.6393 27.7595 34.98 28.1001 34.98 28.5194V29.4734C34.98 29.8927 34.6393 30.2337 34.2201 30.2337H29.8939C29.4895 30.2337 29.1614 30.5614 29.1614 30.9661C29.1614 31.3705 29.4895 31.6985 29.8939 31.6985H33.2638C33.6826 31.6985 34.0236 32.0392 34.0236 32.4584V33.4125C34.0236 33.8317 33.6826 34.1724 33.2638 34.1724H27.0428C25.5409 34.1724 24.0581 33.9267 22.6368 33.4422L18.9503 32.1853V25.9471C18.9503 25.5428 18.6222 25.2147 18.2178 25.2147C17.8131 25.2147 17.4854 25.5428 17.4854 25.9471V33.4026C17.4854 33.4132 17.4766 33.4216 17.466 33.4216H14.3169C14.3062 33.4216 14.2975 33.4132 14.2975 33.4026V20.2499C14.2975 20.2468 14.2975 20.2419 14.3032 20.2361C14.3089 20.2304 14.3139 20.2308 14.3154 20.2308L17.4663 20.2533C17.4766 20.2533 17.4854 20.2621 17.4854 20.2728V22.9755C17.4854 23.3798 17.8131 23.7079 18.2178 23.7079C18.6222 23.7079 18.9503 23.3798 18.9503 22.9755V21.0948C19.0834 20.9831 19.1994 20.8511 19.2943 20.7019C19.2974 20.697 19.3004 20.692 19.3031 20.6874L24.1527 12.6716C24.2813 12.4736 24.4896 12.3485 24.7249 12.3275C24.9626 12.3065 25.1915 12.3946 25.3532 12.5701C26.0536 13.3292 26.2153 14.4202 25.7656 15.3499C25.7591 15.3636 25.7526 15.3774 25.7469 15.3915L24.3221 18.8712C24.2294 19.0975 24.2557 19.3546 24.3915 19.5571C24.5277 19.7597 24.7555 19.8814 24.9996 19.8814H35.5011C35.9203 19.8814 36.261 20.2224 36.261 20.6413V21.5957Z" fill="inherit"/>
<path d="M25 50C23.4131 50 21.9799 49.255 21.0678 47.9561C20.137 46.6309 18.3956 46.1643 16.9273 46.8468C15.4881 47.5155 13.8741 47.4442 12.5 46.6507C11.1256 45.8572 10.257 44.4954 10.1166 42.9146C9.97353 41.3013 8.69827 40.0265 7.08542 39.8834C5.50461 39.743 4.14276 38.8744 3.3493 37.5C2.55585 36.1256 2.48451 34.5119 3.15323 33.0727C3.83568 31.604 3.36914 29.8626 2.04391 28.9322C0.74501 28.0201 0 26.5869 0 25C0 23.4131 0.74501 21.9799 2.04391 21.0678C3.36914 20.1374 3.83606 18.3956 3.15323 16.9273C2.48451 15.4881 2.55585 13.8744 3.3493 12.5C4.14276 11.1256 5.50461 10.257 7.08542 10.1166C8.69865 9.97353 9.97353 8.69827 10.1166 7.08542C10.257 5.50423 11.1256 4.14276 12.5 3.3493C13.8744 2.55585 15.4881 2.48413 16.9273 3.15323C18.396 3.83568 20.1374 3.36914 21.0678 2.04353C21.9799 0.74501 23.4131 0 25 0C26.5869 0 28.0201 0.74501 28.9322 2.04391H28.9318C29.8626 3.36914 31.604 3.83568 33.0727 3.15323C34.5119 2.48451 36.1256 2.55585 37.5 3.3493C38.8744 4.14276 39.743 5.50461 39.8834 7.08542C40.0265 8.69865 41.3013 9.97353 42.9146 10.1166C44.4954 10.257 45.8569 11.1256 46.6507 12.5C47.4442 13.8744 47.5155 15.4881 46.8468 16.9273C46.1639 18.396 46.6305 20.1374 47.9561 21.0678C49.255 21.9799 50 23.4131 50 25C50 26.5869 49.255 28.0201 47.9561 28.9322C46.6309 29.8626 46.1639 31.604 46.8468 33.0727C47.5155 34.5119 47.4442 36.1256 46.6507 37.5C45.8572 38.8744 44.4954 39.743 42.9146 39.8834C41.3013 40.0265 40.0265 41.3017 39.8834 42.9146C39.743 44.4954 38.8744 45.8572 37.5 46.6507C36.1256 47.4442 34.5119 47.5155 33.0727 46.8468C31.6044 46.1643 29.863 46.6309 28.9322 47.9565C28.0201 49.255 26.5869 50 25 50ZM18.3353 45.0691C19.8597 45.0691 21.3417 45.797 22.2668 47.1146C22.9008 48.0175 23.8968 48.5352 25 48.5352C26.1032 48.5352 27.0992 48.0175 27.7332 47.1146C29.0718 45.2076 31.5773 44.5362 33.6903 45.5185C34.6905 45.9831 35.8124 45.9335 36.7676 45.3819C37.7228 44.8303 38.327 43.8839 38.4243 42.7853C38.6303 40.4644 40.4644 38.6303 42.7853 38.4243C43.8839 38.3266 44.8303 37.7228 45.3823 36.7676C45.9335 35.8124 45.9831 34.6905 45.5185 33.6903C44.5362 31.5773 45.2076 29.0722 47.1146 27.7332C48.0171 27.0992 48.5352 26.1032 48.5352 25C48.5352 23.8968 48.0171 22.9008 47.1146 22.2668C45.2076 20.9282 44.5362 18.4227 45.5181 16.3097C45.9831 15.3095 45.9335 14.1876 45.3819 13.2324C44.8303 12.2772 43.8839 11.673 42.7849 11.5757C40.4644 11.3697 38.6303 9.5356 38.4243 7.21474C38.3266 6.1161 37.7228 5.16968 36.7676 4.61807C35.8124 4.06647 34.6905 4.01649 33.6903 4.48151C31.5769 5.46379 29.0718 4.79202 27.7332 2.88544C27.7332 2.88544 27.7332 2.88544 27.7328 2.88544C27.0992 1.9825 26.1032 1.46484 25 1.46484C23.8968 1.46484 22.9008 1.9825 22.2668 2.88544C20.9282 4.79202 18.4227 5.46341 16.3097 4.48151C15.3095 4.01688 14.1876 4.06647 13.2324 4.61807C12.2772 5.16968 11.673 6.1161 11.5757 7.21474C11.3697 9.5356 9.5356 11.3697 7.21474 11.5757C6.1161 11.6734 5.16968 12.2772 4.61807 13.2324C4.06647 14.1876 4.01688 15.3095 4.48151 16.3097C5.46379 18.4227 4.7924 20.9282 2.88544 22.2668C1.9825 22.9008 1.46484 23.8968 1.46484 25C1.46484 26.1032 1.9825 27.0992 2.88544 27.7332C4.7924 29.0718 5.46379 31.5773 4.48151 33.6903C4.01688 34.6905 4.06647 35.8124 4.61807 36.7676C5.16968 37.7228 6.1161 38.327 7.21474 38.4243C9.5356 38.6303 11.3697 40.4644 11.5757 42.7853C11.6734 43.8839 12.2772 44.8303 13.2324 45.3819C14.1876 45.9335 15.3095 45.9831 16.3097 45.5185C16.9628 45.2148 17.6533 45.0691 18.3353 45.0691Z" fill="inherit"/>
<path d="M25.0002 44.3618C20.0971 44.3618 15.4196 42.5258 11.8288 39.1914C8.25709 35.8752 6.08042 31.3827 5.69857 26.5411C5.66691 26.1379 5.96827 25.7854 6.37148 25.7537C6.77432 25.7205 7.12718 26.023 7.15922 26.4262C7.5117 30.9001 9.52395 35.0524 12.8252 38.1179C16.1444 41.1998 20.4679 42.897 25.0002 42.897C29.532 42.897 33.856 41.1998 37.1748 38.1179C40.4764 35.0524 42.4887 30.9001 42.8411 26.4262C42.8728 26.023 43.2257 25.7209 43.6289 25.7537C44.0321 25.7854 44.3331 26.1379 44.3014 26.5411C43.9199 31.3827 41.7429 35.8752 38.1716 39.1914C34.5808 42.5258 29.9032 44.3618 25.0002 44.3618Z" fill="inherit"/>
<path d="M6.42947 24.2448C6.4104 24.2448 6.39056 24.244 6.37111 24.2425C5.96789 24.2104 5.66691 23.8579 5.69857 23.4547C6.08119 18.6143 8.25862 14.1225 11.8296 10.8071C15.4203 7.47382 20.0975 5.63818 24.9998 5.63818C29.8994 5.63818 34.5747 7.47229 38.1643 10.8021C41.7349 14.1141 43.9135 18.6021 44.2999 23.4391C44.3319 23.8423 44.0309 24.1952 43.6277 24.2276C43.2238 24.2596 42.8717 23.959 42.8396 23.5558C42.4826 19.0858 40.4688 14.9377 37.1683 11.876C33.8503 8.79828 29.5286 7.10303 24.9998 7.10303C20.4683 7.10303 16.1451 8.7998 12.8263 11.8806C9.5251 14.9453 7.51246 19.0968 7.15884 23.5699C7.1287 23.9537 6.80789 24.2448 6.42947 24.2448Z" fill="inherit"/>
</svg>
