<svg width="50" height="50" viewBox="0 0 50 50" xmlns="http://www.w3.org/2000/svg">
<path d="M48.698 35.7875C47.7652 34.4168 46.1831 34.0821 44.4644 34.8909L43.5534 35.292C44.9898 32.2305 45.168 28.8177 44.4529 25.594C43.6317 21.8916 41.6482 18.3049 38.5576 14.9335C38.2844 14.6353 37.8212 14.6152 37.523 14.8886C37.2248 15.1618 37.2047 15.625 37.478 15.9232C40.3927 19.1025 42.2583 22.463 43.0232 25.9111C43.8287 29.5432 43.3601 33.2889 41.3043 36.2822L32.1889 40.2958L32.1964 39.2663C32.1966 39.2403 32.1954 39.2143 32.1928 39.1885C31.9823 37.0725 30.3649 35.3867 28.2596 35.0888C28.2533 35.0879 28.2471 35.0871 28.2407 35.0864L20.1391 34.1536C17.0237 33.7101 16.2214 31.8432 12.0022 30.7787C11.7107 28.3051 12.0993 25.6714 13.1644 23.031C14.7684 19.0547 17.9063 15.1914 22.2565 11.8288C23.8779 12.9784 31.1116 13.1215 32.7304 11.6385C33.5597 12.2682 34.3512 12.9173 35.0885 13.5742C35.228 13.6986 35.4021 13.7597 35.5754 13.7597C35.777 13.7597 35.9777 13.677 36.1224 13.5146C36.3914 13.2127 36.3647 12.7498 36.0627 12.4807C35.2545 11.7607 34.3852 11.0503 33.4733 10.3637C33.687 9.4576 33.388 8.39715 32.5989 7.7659C34.8918 4.28817 35.5587 2.0119 34.6375 0.819318C34.0048 8.0213e-05 33.2177 0.384553 32.8815 0.548811C32.3118 0.826936 32.0012 0.841584 31.477 0.498615C30.4769 -0.155779 29.4257 -0.176873 28.3934 0.498615C27.8625 0.845979 27.4444 0.845979 26.9138 0.498615C25.9136 -0.155779 24.8628 -0.176873 23.8303 0.498615C23.3 0.845686 22.9882 0.824201 22.4274 0.54549C22.0917 0.378596 21.3055 -0.0122245 20.6688 0.807111C19.7683 1.9661 20.3707 4.17059 22.5089 7.53006C22.3779 7.60086 22.2531 7.68397 22.1366 7.77889C21.2862 6.88084 19.893 5.94422 17.8781 6.16922C16.2069 6.35623 14.9746 5.80399 14.235 5.30789C13.899 5.08289 13.4441 5.17254 13.2189 5.50828C12.9938 5.84422 13.0835 6.2991 13.4193 6.5243C14.3622 7.15643 15.9292 7.86014 18.0406 7.62469C19.5973 7.45008 20.6535 8.24559 21.311 9.05516C21.3021 9.08641 21.2938 9.11785 21.286 9.1493C20.7252 9.15809 19.887 9.21043 18.964 9.40242C16.744 9.86424 15.0962 10.9192 14.1984 12.4536C13.9942 12.8026 14.1116 13.2513 14.4606 13.4555C14.8098 13.6597 15.2583 13.5423 15.4625 13.1932C16.7979 10.9111 20.0573 10.632 21.352 10.6145C21.3575 10.6306 21.3641 10.6466 21.3699 10.6626C16.75 14.2263 13.5336 18.2007 11.8063 22.4829C10.7145 25.1896 10.2783 27.9014 10.4997 30.4784C9.79746 30.3745 9.08711 30.3187 8.37334 30.3139V29.871C8.37334 28.6992 7.42002 27.746 6.24824 27.746H2.88652C1.71475 27.746 0.761425 28.6993 0.761425 29.871V46.9261C0.761425 48.0979 1.71475 49.0512 2.88652 49.0512H6.24814C7.41992 49.0512 8.37324 48.0978 8.37324 46.9261V46.7175L15.7063 49.4469C16.6918 49.8136 17.7246 49.9996 18.7761 49.9996H29.7024C31.373 49.9996 33.0018 49.5269 34.4127 48.6329C48.9888 39.3927 48.1036 39.9676 48.1878 39.893C49.3619 38.8508 49.5813 37.0857 48.698 35.7875ZM31.3562 10.7707C28.6782 11.4469 26.0745 11.4469 23.396 10.7707C22.2467 10.4802 22.5797 8.43035 23.8148 8.74012C26.2111 9.34168 28.5408 9.34168 30.9373 8.74012C32.151 8.43543 32.5239 10.4756 31.3562 10.7707ZM21.7586 1.84871C21.7644 1.85155 21.7701 1.85447 21.7756 1.85721C22.7667 2.34979 23.6352 2.37654 24.6321 1.7243C25.8798 0.9076 26.0152 2.21707 27.6534 2.21707C28.4421 2.21707 28.8773 1.93231 29.1951 1.7243C29.7261 1.37684 30.1442 1.37703 30.6751 1.7243C31.6765 2.37957 32.5239 2.34725 33.5439 1.85535C33.6945 2.39852 33.3535 4.01776 31.182 7.25076C30.1037 7.2324 28.5389 8.29149 24.109 7.30565C21.9422 4.03084 21.6071 2.39588 21.7586 1.84871ZM47.2552 38.7618L33.6288 47.3963C32.4527 48.1415 31.095 48.5355 29.7025 48.5355H18.7762C17.8997 48.5355 17.0388 48.3805 16.2173 48.0747L8.37324 45.1551V37.2688C8.37324 36.8643 8.04541 36.5365 7.64102 36.5365C7.23662 36.5365 6.90879 36.8643 6.90879 37.2688V46.9264C6.90879 47.2907 6.6124 47.587 6.24824 47.587H2.88652C2.52227 47.587 2.22598 47.2906 2.22598 46.9264V29.8714C2.22598 29.5071 2.52227 29.2109 2.88652 29.2109H6.24814C6.6124 29.2109 6.90869 29.5072 6.90869 29.8714V33.8454C6.90869 34.2499 7.23652 34.5777 7.64092 34.5777C8.04531 34.5777 8.37315 34.2499 8.37315 33.8454V31.7788C14.4309 31.8252 15.7929 35.0181 19.9431 35.6051C19.9493 35.606 19.9556 35.6068 19.9618 35.6075L28.0631 36.5402C29.4816 36.745 30.5733 37.8746 30.7314 39.2968L30.7212 40.6897H23.166C22.7616 40.6897 22.4337 41.0176 22.4337 41.4221C22.4337 41.8265 22.7615 42.1544 23.166 42.1544H31.4481C31.5406 42.1544 31.6475 42.1339 31.7404 42.0933C31.7554 42.0867 45.0474 36.2345 45.0629 36.2276C46.021 35.8018 46.8945 35.741 47.4869 36.6115C47.9475 37.288 47.8455 38.2025 47.2552 38.7618Z" fill="inherit"/>
<path d="M27.5691 33.2246C27.9735 33.2246 28.3014 32.8968 28.3014 32.4923V31.2784C30.3571 30.9448 31.5567 29.2808 31.8176 27.7285C32.1436 25.7893 31.1279 24.1029 29.23 23.4321C28.8946 23.3136 28.586 23.2002 28.3013 23.0907V18.4216C29.1676 18.5652 29.6877 19.0136 29.7256 19.0471C30.0231 19.3176 30.4834 19.2975 30.7564 19.0016C31.0306 18.7044 31.0118 18.2411 30.7146 17.9669C30.6629 17.9192 29.766 17.1117 28.3013 16.9429V15.9015C28.3013 15.497 27.9735 15.1691 27.569 15.1691C27.1646 15.1691 26.8367 15.497 26.8367 15.9015V17.002C26.6602 17.0358 26.4793 17.0788 26.2935 17.1348C25.0513 17.5089 24.1228 18.574 23.8701 19.9143C23.6409 21.1307 24.0266 22.3004 24.8765 22.967C25.3645 23.3497 25.9787 23.7001 26.8367 24.0747V29.8658C25.9899 29.83 25.4686 29.671 24.5592 29.0761C24.2208 28.8548 23.7669 28.9494 23.5455 29.288C23.3241 29.6264 23.419 30.0803 23.7574 30.3016C24.9528 31.0837 25.752 31.2877 26.8367 31.3299V32.4923C26.8367 32.8968 27.1646 33.2246 27.5691 33.2246ZM25.7804 21.8146C25.3623 21.4867 25.1817 20.8625 25.3094 20.1856C25.4277 19.5579 25.8593 18.7952 26.7159 18.5372C26.7567 18.5249 26.7967 18.5143 26.8367 18.5036V22.4592C26.3983 22.2402 26.0544 22.0296 25.7804 21.8146ZM28.7419 24.813C30.5642 25.457 30.4513 27.0217 30.3733 27.4858C30.2117 28.4469 29.5063 29.4728 28.3013 29.7816V24.6543C28.4439 24.7064 28.5895 24.7591 28.7419 24.813Z" fill="inherit"/>
</svg>
