<svg width="44" height="48" viewBox="0 0 44 48" xmlns="http://www.w3.org/2000/svg">
<path d="M39.7816 39.9742L43.6679 43.8605L39.7816 47.7469C39.6117 47.9149 39.392 47.9997 39.1723 47.9997C38.9489 47.9997 38.7292 47.9149 38.5631 47.7469C38.2233 47.4109 38.2233 46.8626 38.5631 46.5265L40.5387 44.5475C29.2414 44.4958 20.0596 35.292 20.0525 23.978C20.0525 23.9743 20.0525 23.9706 20.0525 23.9669C20.0525 13.5688 11.5929 5.11072 1.19634 5.11072C0.718286 5.11072 0.332437 4.72487 0.332437 4.24682C0.332437 3.77061 0.718286 3.38446 1.1982 3.38446C12.5435 3.38446 21.7751 12.612 21.7788 23.9557C21.7788 23.9595 21.7788 23.9613 21.7788 23.9669C21.7788 34.2063 29.9856 42.548 40.1659 42.8008L38.5634 41.1927C38.2218 40.8548 38.2218 40.3084 38.5634 39.9724C38.8991 39.6363 39.4474 39.6363 39.7816 39.9742ZM1.19418 42.8249C0.717976 42.8249 0.331818 43.2108 0.331818 43.6888C0.331818 44.1669 0.717667 44.5527 1.19418 44.5527C9.56713 44.5527 16.7621 39.5141 19.9708 32.3194C19.6329 31.4923 19.3541 30.6374 19.1196 29.7661C16.6681 37.3342 9.56713 42.8249 1.19418 42.8249ZM40.2358 5.12743L38.5631 6.80573C38.2233 7.14362 38.2233 7.69006 38.5631 8.02609C38.7292 8.19411 38.9489 8.27889 39.1723 8.27889C39.392 8.27889 39.6117 8.19411 39.7816 8.02609L43.6679 4.13976L39.7816 0.253417C39.4455 -0.0844722 38.8972 -0.0844722 38.5631 0.253417C38.2233 0.589449 38.2233 1.13774 38.5631 1.47378L40.4815 3.39219C32.1769 3.455 25.0559 8.4695 21.8636 15.6147C22.1996 16.4417 22.4765 17.2948 22.7111 18.1662C25.1276 10.7218 32.0438 5.30102 40.2358 5.12743Z" fill="inherit"/>
</svg>
