<svg width="97" height="97" viewBox="0 0 97 97" xmlns="http://www.w3.org/2000/svg">
<circle cx="48.5" cy="48.5" r="48.5" fill="inherit"/>
<path d="M53.625 73.3575C54.9585 73.3033 56.1319 73.1274 57.125 72.8815V71.1648C56.019 71.4089 54.8238 71.5585 53.625 71.6075V73.3575Z" fill="white"/>
<path d="M48.375 69.3815C49.3681 69.6265 50.5415 69.8033 51.875 69.8575V68.1075C50.6762 68.0585 49.481 67.9089 48.375 67.6648V69.3815Z" fill="white"/>
<path d="M53.625 69.8575C54.9585 69.8033 56.1319 69.6274 57.125 69.3815V67.6648C56.019 67.9089 54.8238 68.0585 53.625 68.1075V69.8575Z" fill="white"/>
<path d="M48.375 72.8815C49.3681 73.1265 50.5415 73.3033 51.875 73.3575V71.6075C50.6762 71.5585 49.481 71.4089 48.375 71.1648V72.8815Z" fill="white"/>
<path d="M60.625 69.8383C60.1228 70.155 59.5286 70.4289 58.875 70.6634V72.304C59.9985 71.8114 60.625 71.2321 60.625 70.75V69.8383Z" fill="white"/>
<path d="M44.875 67.25C44.875 67.7321 45.5015 68.3114 46.625 68.804V67.1634C45.9714 66.9289 45.3773 66.655 44.875 66.3383V67.25Z" fill="white"/>
<path d="M28.5029 71.0649L29.8583 72.4203C30.8741 71.904 31.8839 71.2119 32.7948 70.4069L31.386 68.9982C30.4926 69.7988 29.5109 70.4997 28.5029 71.0649Z" fill="white"/>
<path d="M32.6311 67.7689L34.032 69.1698C34.837 68.2589 35.53 67.2492 36.0454 66.2333L34.7005 64.8884C34.1361 65.8938 33.4309 66.8791 32.6311 67.7689Z" fill="white"/>
<path d="M36.573 61.6299L36.0629 61.1198C35.9728 61.7883 35.7776 62.4935 35.4976 63.2101L36.755 64.4675C37.1295 63.1707 37.07 62.1269 36.573 61.6299Z" fill="white"/>
<path d="M60.625 66.3383C60.1228 66.655 59.5286 66.9289 58.875 67.1634V68.804C59.9985 68.3114 60.625 67.7321 60.625 67.25V66.3383Z" fill="white"/>
<path d="M44.875 70.75C44.875 71.2321 45.5015 71.8114 46.625 72.304V70.6634C45.9714 70.4289 45.3773 70.155 44.875 69.8383V70.75Z" fill="white"/>
<path d="M65.875 25.25C65.875 23.8027 64.6973 22.625 63.25 22.625H42.25C40.8027 22.625 39.625 23.8027 39.625 25.25V26.125H65.875V25.25Z" fill="white"/>
<path d="M24.743 72.4352L25.2558 72.948C25.7528 73.445 26.7984 73.5045 28.0934 73.13L26.8343 71.87C26.1168 72.1509 25.4124 72.3434 24.743 72.4352Z" fill="white"/>
<path d="M34.375 55C34.375 50.6574 30.8426 47.125 26.5 47.125C22.1574 47.125 18.625 50.6574 18.625 55C18.625 59.3426 22.1574 62.875 26.5 62.875C30.8426 62.875 34.375 59.3426 34.375 55ZM31.75 54.125C32.233 54.125 32.625 54.517 32.625 55C32.625 55.483 32.233 55.875 31.75 55.875C31.267 55.875 30.875 55.483 30.875 55C30.875 54.517 31.267 54.125 31.75 54.125ZM21.25 55.875C20.767 55.875 20.375 55.483 20.375 55C20.375 54.517 20.767 54.125 21.25 54.125C21.733 54.125 22.125 54.517 22.125 55C22.125 55.483 21.733 55.875 21.25 55.875ZM23.875 56.75H25.625C25.625 57.233 26.017 57.625 26.5 57.625H27.375V56.75C27.375 56.267 26.983 55.875 26.5 55.875C25.0528 55.875 23.875 54.6972 23.875 53.25V50.625H25.625V48.875H27.375V50.786C28.3909 51.1482 29.125 52.1108 29.125 53.25H27.375C27.375 52.767 26.983 52.375 26.5 52.375H25.625V53.25C25.625 53.733 26.017 54.125 26.5 54.125C27.9473 54.125 29.125 55.3027 29.125 56.75V59.375H27.375V61.125H25.625V59.214C24.6091 58.8518 23.875 57.8892 23.875 56.75Z" fill="white"/>
<path d="M67.6688 39.656C66.5129 38.5001 65.875 36.9619 65.875 35.3256V33.125H39.625V35.3256C39.625 36.9627 38.9871 38.5001 37.8304 39.6569L37.4078 40.0804C36.5809 40.9072 36.125 42.0054 36.125 43.1744V55C36.125 56.1086 35.9273 57.17 35.5808 58.1622L37.8103 60.3926C38.8813 61.4627 39.0431 63.2722 38.2679 65.4878C37.819 66.7714 37.0779 68.1014 36.1556 69.3273C36.3271 71.5795 38.2119 73.375 40.5 73.375H44.9284C43.818 72.6908 43.125 71.8114 43.125 70.75V67.25V63.75C43.125 61.0847 47.4843 59.571 51.875 59.3925V56.75H49.25C45.3843 56.75 42.25 53.6157 42.25 49.75H45.75C48.3873 49.75 50.6815 51.2095 51.875 53.3638V44.5H49.25C46.3503 44.5 44 42.1497 44 39.25H47.5C50.1005 39.25 52.2539 41.1426 52.6713 43.625H52.8288C53.2461 41.1426 55.3995 39.25 58 39.25H61.5C61.5 42.1497 59.1498 44.5 56.25 44.5H53.625V53.3638C54.8185 51.2095 57.1128 49.75 59.75 49.75H63.25C63.25 53.6157 60.1158 56.75 56.25 56.75H53.625V59.3925C58.0158 59.571 62.375 61.0847 62.375 63.75V67.25V70.75C62.375 71.8114 61.682 72.6908 60.5716 73.375H65C67.4124 73.375 69.375 71.4124 69.375 69V43.1744C69.375 42.0054 68.9191 40.9064 68.0931 40.0813L67.6688 39.656ZM39.625 52.375H37.875V50.625H39.625V52.375ZM39.625 48.875H37.875V47.125H39.625V48.875ZM39.625 45.375H37.875V43.625H39.625V45.375ZM67.625 52.375H65.875V50.625H67.625V52.375ZM67.625 48.875H65.875V47.125H67.625V48.875ZM67.625 45.375H65.875V43.625H67.625V45.375Z" fill="white"/>
<path d="M68.5 27.875H37C36.517 27.875 36.125 28.2679 36.125 28.75V30.5C36.125 30.9821 36.517 31.375 37 31.375H68.5C68.983 31.375 69.375 30.9821 69.375 30.5V28.75C69.375 28.2679 68.983 27.875 68.5 27.875Z" fill="white"/>
<path d="M51.875 64.625V61.1425C47.5735 61.3157 44.875 62.7455 44.875 63.75C44.875 64.821 47.9427 66.375 52.75 66.375C57.5573 66.375 60.625 64.821 60.625 63.75C60.625 62.7455 57.9265 61.3166 53.625 61.1425V64.625H51.875Z" fill="white"/>
<path d="M34.3654 60.53C32.6215 63.0028 29.7489 64.625 26.5 64.625C25.6154 64.625 24.7614 64.4955 23.9468 64.2707C22.2676 66.7609 21.6298 69.3973 22.5546 70.3195C23.6965 71.4614 27.7198 70.2312 30.7884 67.1704C33.0424 64.9225 34.2691 62.2739 34.3654 60.53Z" fill="white"/>
</svg>
